<svg width="458" height="318" viewBox="0 0 458 318" fill="none" xmlns="http://www.w3.org/2000/svg">
<g filter="url(#filter0_b_4_127)">
<path d="M408.271 34.4824C464.219 74.5628 482.541 250.916 408.271 291.905C334 332.894 85.0004 259.894 0.000382855 317.394C38.5004 259.894 -23.4373 102.587 23.3449 41.4907C70.1272 -19.6061 352.323 -5.59794 408.271 34.4824Z" fill="white" fill-opacity="0.03"/>
<path d="M407.397 35.7018C421.031 45.4693 432.531 63.6814 440.911 86.3692C449.276 109.017 454.465 135.944 455.604 162.916C456.743 189.893 453.829 216.837 446.052 239.541C438.273 262.251 425.678 280.585 407.546 290.592C389.355 300.631 360.229 303.775 325.106 303.594C295.591 303.442 262.089 300.95 227.692 298.393C221.242 297.913 214.76 297.431 208.267 296.962C167.192 293.993 125.692 291.531 89.1304 293.419C55.4703 295.158 25.7735 300.588 4.41179 312.876C11.8581 298.591 14.5112 279.734 14.8113 258.639C15.1204 236.906 12.9283 212.546 10.7161 187.963C10.4971 185.53 10.2779 183.094 10.0609 180.658C7.64773 153.57 5.50619 126.487 6.87277 102.375C8.2406 78.2398 13.1147 57.3186 24.5359 42.4026C30.1669 35.0487 39.4356 28.7137 51.6231 23.3783C63.7929 18.0507 78.7584 13.7693 95.6469 10.4561C129.423 3.82995 170.722 1.10822 212.355 1.54506C253.982 1.98183 295.883 5.57558 330.849 11.5554C348.332 14.5453 364.06 18.1281 377.14 22.2023C390.245 26.284 400.596 30.8295 407.397 35.7018Z" stroke="white" stroke-width="3"/>
</g>
<defs>
<filter id="filter0_b_4_127" x="-47" y="-47" width="551.342" height="411.394" filterUnits="userSpaceOnUse" color-interpolation-filters="sRGB">
<feFlood flood-opacity="0" result="BackgroundImageFix"/>
<feGaussianBlur in="BackgroundImageFix" stdDeviation="23.5"/>
<feComposite in2="SourceAlpha" operator="in" result="effect1_backgroundBlur_4_127"/>
<feBlend mode="normal" in="SourceGraphic" in2="effect1_backgroundBlur_4_127" result="shape"/>
</filter>
</defs>
</svg>
