<svg width="365" height="671" viewBox="0 0 365 671" fill="none" xmlns="http://www.w3.org/2000/svg">
<g filter="url(#filter0_b_4_2861)">
<path d="M33.5708 59.3244C75.7182 -15.2696 298.799 -3.40594 341.828 37.9027C370.515 83.2273 366.499 606.715 319.557 635.852C272.616 664.989 100.834 685.697 49.4913 635.851C-1.8513 586.006 -8.57649 133.919 33.5708 59.3244Z" fill="white"/>
<path d="M343.941 36.5658L343.779 36.3094L343.56 36.0993C337.852 30.6198 329.327 25.771 318.888 21.5833C308.416 17.3823 295.859 13.7844 281.947 10.8856C254.122 5.08788 220.698 2.0501 187.324 2.65046C153.96 3.25062 120.523 7.48861 92.7097 16.316C64.9752 25.1184 42.3943 38.6263 31.3943 58.0946C25.9141 67.7936 21.3509 83.3559 17.5927 103C13.8211 122.714 10.8176 146.781 8.56618 173.658C4.06295 227.417 2.55615 292.569 3.97296 356.924C5.38967 421.274 9.7311 484.895 16.9415 535.583C20.546 560.921 24.8757 583.089 29.9367 600.524C34.9575 617.821 40.819 630.916 47.7499 637.645C61.1011 650.607 82.0331 658.784 106.277 663.433C130.585 668.093 158.546 669.267 186.292 667.967C214.047 666.666 241.668 662.886 265.322 657.593C288.912 652.315 308.779 645.484 320.876 637.976C324.435 635.767 327.457 631.473 330.114 625.91C332.809 620.268 335.292 612.964 337.585 604.291C342.174 586.938 346.086 563.792 349.356 536.805C355.899 482.81 359.909 413.138 361.552 343.006C363.197 272.868 362.476 202.208 359.548 146.226C358.084 118.239 356.067 93.8822 353.51 75.0771C352.232 65.6768 350.813 57.6233 349.251 51.1781C347.705 44.8003 345.964 39.7628 343.941 36.5658Z" stroke="#05100C" stroke-width="5"/>
</g>
<defs>
<filter id="filter0_b_4_2861" x="-46.041" y="-46.9243" width="457.958" height="764.887" filterUnits="userSpaceOnUse" color-interpolation-filters="sRGB">
<feFlood flood-opacity="0" result="BackgroundImageFix"/>
<feGaussianBlur in="BackgroundImageFix" stdDeviation="23.5"/>
<feComposite in2="SourceAlpha" operator="in" result="effect1_backgroundBlur_4_2861"/>
<feBlend mode="normal" in="SourceGraphic" in2="effect1_backgroundBlur_4_2861" result="shape"/>
</filter>
</defs>
</svg>
