<svg width="1113" height="522" viewBox="0 0 1113 522" fill="none" xmlns="http://www.w3.org/2000/svg">
<g filter="url(#filter0_b_4_175)">
<path d="M1032.08 48.4457C1160.64 112.298 1099.82 438.84 1039.83 485.234C979.834 531.627 110.986 525.527 57.8465 477.862C4.70689 430.197 -28.0585 146.501 57.8469 68.7185C143.752 -9.06431 903.519 -15.4065 1032.08 48.4457Z" fill="white"/>
<path d="M1041.36 487.211C1049.27 481.091 1056.99 470.547 1064.2 456.935C1071.44 443.274 1078.29 426.317 1084.39 407.15C1096.58 368.816 1105.82 321.457 1109.15 273.56C1112.48 225.681 1109.91 177.114 1098.37 136.425C1086.83 95.7578 1066.21 62.6082 1033.19 46.2067C1016.78 38.055 990.543 31.1232 957.258 25.3309C923.909 19.5275 883.266 14.8335 837.896 11.2453C747.152 4.06844 637.363 1.30493 528.929 2.96927C420.499 4.63356 313.362 10.7263 227.927 21.2759C185.215 26.55 147.871 32.9448 118.479 40.4745C89.2286 47.9681 67.408 56.6889 56.1689 66.8653C34.1188 86.8305 19.9088 119.758 11.688 158.237C3.45251 196.783 1.15282 241.252 3.20763 284.702C5.26268 328.158 11.6782 370.698 20.9322 405.407C25.5591 422.76 30.9076 438.203 36.8003 450.843C42.6747 463.444 49.1711 473.439 56.1772 479.723C59.9658 483.121 66.9803 486.059 76.287 488.713C85.719 491.403 97.9147 493.909 112.442 496.235C141.505 500.889 180.119 504.863 225.081 508.14C315.017 514.695 430.538 518.477 546.248 519.32C661.959 520.162 777.907 518.064 868.699 512.853C914.089 510.247 953.236 506.861 982.938 502.667C997.785 500.571 1010.32 498.266 1020.12 495.741C1029.81 493.243 1037.17 490.451 1041.36 487.211Z" stroke="#05100C" stroke-width="5"/>
</g>
<defs>
<filter id="filter0_b_4_175" x="-47" y="-47" width="1207" height="616" filterUnits="userSpaceOnUse" color-interpolation-filters="sRGB">
<feFlood flood-opacity="0" result="BackgroundImageFix"/>
<feGaussianBlur in="BackgroundImageFix" stdDeviation="23.5"/>
<feComposite in2="SourceAlpha" operator="in" result="effect1_backgroundBlur_4_175"/>
<feBlend mode="normal" in="SourceGraphic" in2="effect1_backgroundBlur_4_175" result="shape"/>
</filter>
</defs>
</svg>
