<svg width="264" height="71" viewBox="0 0 264 71" fill="none" xmlns="http://www.w3.org/2000/svg">
<g filter="url(#filter0_b_4_82)">
<path d="M19.3011 5.45534C-14.7318 14.7247 3.41896 58.2546 19.3011 64.9895C35.1832 71.7244 239.382 73.5298 253.449 66.6103C267.517 59.6908 267.517 14.061 253.449 7.07613C239.382 0.0912424 53.3339 -3.81407 19.3011 5.45534Z" fill="black" style="fill-opacity: 0.5;"/>
<path d="M19.6953 6.90261C11.5351 9.12517 6.66036 13.3426 4.04271 18.4095C1.40175 23.5214 0.963379 29.6845 2.06023 35.9127C3.15602 42.1349 5.7667 48.3072 9.06805 53.3251C12.3912 58.3761 16.3002 62.0877 19.8867 63.6086C20.6954 63.9515 22.2623 64.3315 24.6316 64.7127C26.9587 65.087 29.9381 65.4447 33.4875 65.7834C40.5838 66.4605 49.8909 67.0551 60.6787 67.5588C82.2504 68.5658 109.683 69.2063 137.067 69.4204C164.452 69.6344 191.77 69.4218 213.113 68.7241C223.787 68.3752 232.95 67.9055 239.872 67.3091C243.335 67.0108 246.217 66.6824 248.438 66.3254C250.718 65.959 252.133 65.5861 252.787 65.2643C255.75 63.807 258.217 60.1472 259.937 54.9036C261.635 49.7292 262.5 43.3228 262.5 36.8677C262.5 30.4128 261.635 24.002 259.937 18.819C258.217 13.5672 255.749 9.89253 252.782 8.41963C252.104 8.08297 250.734 7.68772 248.594 7.27831C246.5 6.87785 243.803 6.48724 240.572 6.1108C234.111 5.35824 225.588 4.67091 215.625 4.0699C195.702 2.86815 170.088 2.01541 143.843 1.67024C117.597 1.32508 90.7368 1.48773 68.3214 2.31478C45.836 3.14443 28.0067 4.63886 19.6953 6.90261Z" stroke="#FBBA0E" stroke-width="3"/>
</g>
<defs>
<filter id="filter0_b_4_82" x="-47" y="-47" width="358" height="165" filterUnits="userSpaceOnUse" color-interpolation-filters="sRGB">
<feFlood flood-opacity="0" result="BackgroundImageFix"/>
<feGaussianBlur in="BackgroundImageFix" stdDeviation="23.5"/>
<feComposite in2="SourceAlpha" operator="in" result="effect1_backgroundBlur_4_82"/>
<feBlend mode="normal" in="SourceGraphic" in2="effect1_backgroundBlur_4_82" result="shape"/>
</filter>
</defs>
</svg>
