<svg width="1209" height="656" viewBox="0 0 1209 656" fill="none" xmlns="http://www.w3.org/2000/svg">
<g filter="url(#filter0_b_4_201)">
<path d="M1125.78 55.6648C1266.69 137.475 1200.04 555.858 1134.28 615.299C1068.52 674.741 116.171 666.925 57.9251 605.854C-0.321191 544.783 -36.2354 181.298 57.9257 81.6393C152.087 -18.0199 984.869 -26.1459 1125.78 55.6648Z" fill="black" fill-opacity="0.37"/>
<path d="M1125.03 56.962C1159.73 77.1092 1181.84 118.109 1194.35 169.616C1206.84 221.079 1209.66 282.743 1206.03 343.781C1202.4 404.811 1192.33 465.135 1179.06 513.89C1172.43 538.269 1165 559.727 1157.21 576.922C1149.39 594.154 1141.26 606.966 1133.27 614.187C1129.43 617.662 1122.13 621.039 1111.56 624.224C1101.04 627.391 1087.48 630.312 1071.29 632.985C1038.91 638.329 996.144 642.657 946.445 645.992C847.054 652.661 720.066 655.348 593.296 654.269C466.526 653.19 340.008 648.346 241.558 639.959C192.328 635.764 150.149 630.686 118.477 624.758C102.638 621.793 89.4634 618.621 79.3637 615.254C69.1952 611.864 62.3766 608.348 59.0106 604.819C51.9265 597.391 45.0803 585.241 38.7333 569.327C32.3979 553.442 26.6054 533.923 21.5736 511.862C11.5102 467.742 4.5128 413.56 2.27147 358.157C0.029894 302.751 2.54711 246.18 11.4861 197.273C20.4347 148.314 35.7792 107.263 59.016 82.6694C70.4913 70.5239 93.4578 59.5855 125.495 49.9915C157.455 40.4208 198.18 32.2606 244.901 25.517C338.335 12.0307 455.598 4.23115 574.349 2.10058C693.097 -0.02995 813.291 3.509 912.585 12.6885C962.233 17.2783 1006.63 23.2763 1043 30.6746C1079.41 38.0809 1107.64 46.8643 1125.03 56.962Z" stroke="white" stroke-width="3"/>
</g>
<defs>
<filter id="filter0_b_4_201" x="-47" y="-47.0001" width="1303" height="750" filterUnits="userSpaceOnUse" color-interpolation-filters="sRGB">
<feFlood flood-opacity="0" result="BackgroundImageFix"/>
<feGaussianBlur in="BackgroundImageFix" stdDeviation="23.5"/>
<feComposite in2="SourceAlpha" operator="in" result="effect1_backgroundBlur_4_201"/>
<feBlend mode="normal" in="SourceGraphic" in2="effect1_backgroundBlur_4_201" result="shape"/>
</filter>
</defs>
</svg>
