<svg width="375" height="348" viewBox="0 0 375 348" fill="none" xmlns="http://www.w3.org/2000/svg">
<g filter="url(#filter0_b_4_2702)">
<path d="M662.036 33.9501C803.034 78.3329 727.835 286.758 662.036 319.006C596.236 351.253 -249.758 359.897 -308.04 326.766C-366.321 293.635 -402.257 95.7764 -308.04 41.7106C-213.822 -12.3552 521.038 -10.4327 662.036 33.9501Z" fill="black" fill-opacity="0.37"/>
<path d="M661.585 35.3809C696.432 46.3498 717.831 67.4044 729.403 93.2914C740.999 119.232 742.774 150.142 738.102 180.803C733.431 211.454 722.333 241.743 708.319 266.361C694.278 291.026 677.428 309.792 661.376 317.659C657.464 319.576 650.484 321.471 640.664 323.296C630.89 325.113 618.44 326.839 603.687 328.466C574.183 331.719 535.543 334.571 490.817 336.984C401.371 341.81 287.655 344.878 174.165 345.903C60.6751 346.928 -52.5694 345.91 -141.074 342.567C-185.329 340.895 -223.379 338.642 -252.174 335.775C-266.573 334.341 -278.634 332.756 -287.99 331.018C-297.407 329.269 -303.898 327.395 -307.298 325.462C-321.434 317.426 -334.443 299.223 -344.493 275.271C-354.518 251.381 -361.496 222.013 -363.731 191.977C-368.212 131.756 -353.611 69.5907 -307.293 43.0116C-295.772 36.4003 -274.228 30.5484 -244.836 25.5124C-215.511 20.488 -178.576 16.3058 -136.426 12.9429C-52.1304 6.21765 52.9257 2.77691 159.461 2.41211C265.994 2.04731 373.981 4.75842 464.135 10.3328C554.356 15.9113 626.539 24.349 661.585 35.3809Z" stroke="white" stroke-width="3"/>
</g>
<defs>
<filter id="filter0_b_4_2702" x="-413" y="-46.1204" width="1202" height="440.905" filterUnits="userSpaceOnUse" color-interpolation-filters="sRGB">
<feFlood flood-opacity="0" result="BackgroundImageFix"/>
<feGaussianBlur in="BackgroundImageFix" stdDeviation="23.5"/>
<feComposite in2="SourceAlpha" operator="in" result="effect1_backgroundBlur_4_2702"/>
<feBlend mode="normal" in="SourceGraphic" in2="effect1_backgroundBlur_4_2702" result="shape"/>
</filter>
</defs>
</svg>
