<svg width="29" height="29" viewBox="0 0 29 29" fill="none" xmlns="http://www.w3.org/2000/svg">
<path d="M25.328 17.399C25.1055 17.5523 24.8459 17.6427 24.5764 17.6608C24.3069 17.6789 24.0375 17.624 23.7966 17.5019C23.2311 17.1824 22.9263 16.4332 22.9263 15.4123V12.2835C22.9263 10.7816 22.3314 9.71294 21.3362 9.42283C19.6543 8.93074 18.3984 10.9909 17.9136 11.7657L14.9391 16.5801V10.7045C14.906 9.34938 14.4653 8.53781 13.6317 8.29544C13.0809 8.13386 12.2546 8.19996 11.4504 9.4265L4.79989 20.1018C3.91501 18.4089 3.4562 16.5257 3.46318 14.6154C3.46318 8.1816 8.60438 2.94859 14.9391 2.94859C21.2738 2.94859 26.4333 8.1816 26.4333 14.6154V14.6485C26.4333 14.6485 26.4333 14.6705 26.4333 14.6815C26.4958 15.9264 26.0918 16.918 25.3316 17.399H25.328ZM29.0002 14.6191V14.5567C28.9488 6.71635 22.6619 0.355957 14.9391 0.355957C7.21625 0.355957 0.892578 6.75308 0.892578 14.6154C0.892578 22.4778 7.19422 28.8786 14.9391 28.8786C18.4912 28.8784 21.9082 27.5169 24.487 25.0741C24.7373 24.8383 24.8846 24.5133 24.897 24.1696C24.9094 23.8259 24.7858 23.4912 24.5531 23.238C24.4417 23.1148 24.3071 23.0149 24.157 22.9439C24.0069 22.8729 23.8442 22.8324 23.6783 22.8245C23.5124 22.8167 23.3467 22.8417 23.1905 22.8982C23.0343 22.9546 22.8909 23.0414 22.7684 23.1535C21.6581 24.2067 20.3465 25.0247 18.9122 25.5583C17.4779 26.0919 15.9506 26.3302 14.4219 26.2589C12.8933 26.1875 11.3948 25.808 10.0165 25.1431C8.63813 24.4782 7.40836 23.5417 6.40101 22.3897L12.3868 12.7683V17.2081C12.3868 19.3417 13.2131 20.0321 13.9072 20.234C14.6012 20.436 15.6625 20.2965 16.7752 18.4897L20.0803 13.1392C20.1831 12.9666 20.2822 12.8197 20.3704 12.6912V15.4123C20.3704 17.4064 21.1709 19.0002 22.5738 19.786C23.2116 20.1304 23.9304 20.2967 24.6547 20.2677C25.379 20.2386 26.0822 20.0151 26.6904 19.6208C28.2327 18.6182 29.0737 16.8041 28.9856 14.6191H29.0002Z" fill="white"/>
</svg>
