<svg width="32" height="26" viewBox="0 0 32 26" fill="none" xmlns="http://www.w3.org/2000/svg">
<path d="M27.1649 2.19589C30.7538 7.86198 32.5262 14.2532 31.8636 21.6109C31.8608 21.642 31.8457 21.6706 31.8219 21.6894C29.1041 23.8323 26.4709 25.1328 23.8747 25.9953C23.8545 26.0018 23.8328 26.0015 23.8128 25.9942C23.7928 25.9869 23.7754 25.9731 23.7631 25.9547C23.1633 25.0586 22.6183 24.1138 22.1408 23.1217C22.1134 23.0633 22.1384 22.9929 22.1948 22.9698C23.0604 22.6197 23.8834 22.1999 24.6751 21.703C24.7375 21.6638 24.7414 21.5678 24.6838 21.5218C24.5158 21.3878 24.3494 21.2471 24.1901 21.1063C24.1603 21.0803 24.1202 21.0752 24.0864 21.0927C18.9468 23.6412 13.3165 23.6412 8.11613 21.0927C8.08236 21.0765 8.04224 21.082 8.01324 21.1076C7.85436 21.2483 7.68752 21.3878 7.52109 21.5218C7.46349 21.5678 7.46826 21.6638 7.53102 21.703C8.32268 22.1906 9.14572 22.6197 10.0101 22.9716C10.0661 22.9946 10.0927 23.0633 10.0649 23.1217C9.59776 24.1151 9.05277 25.0599 8.44185 25.956C8.41523 25.9923 8.37154 26.0089 8.33023 25.9953C5.7463 25.1328 3.11312 23.8323 0.39533 21.6894C0.372688 21.6706 0.356402 21.6408 0.354019 21.6096C-0.199708 15.2453 0.928798 8.80121 5.04838 2.19461C5.05831 2.17713 5.07341 2.16348 5.09089 2.15537C7.11791 1.15643 9.28952 0.421508 11.5592 0.00179807C11.6006 -0.00502649 11.6419 0.0154472 11.6633 0.0546884C11.9438 0.587857 12.2643 1.27159 12.4812 1.83035C14.8737 1.43794 17.3035 1.43794 19.746 1.83035C19.9629 1.28354 20.2723 0.587857 20.5515 0.0546884C20.5615 0.0352212 20.5769 0.0196252 20.5956 0.0101269C20.6143 0.000628592 20.6353 -0.00228641 20.6556 0.00179807C22.9265 0.422788 25.0981 1.15771 27.1236 2.15537C27.1414 2.16348 27.1561 2.17713 27.1649 2.19589ZM13.6975 14.2967C13.7225 12.4152 12.445 10.8584 10.8415 10.8584C9.25099 10.8584 7.98584 12.4016 7.98584 14.2967C7.98584 16.1914 9.27601 17.7346 10.8415 17.7346C12.4323 17.7346 13.6975 16.1914 13.6975 14.2967ZM24.2564 14.2967C24.2815 12.4152 23.004 10.8584 21.4008 10.8584C19.8099 10.8584 18.5448 12.4016 18.5448 14.2967C18.5448 16.1914 19.835 17.7346 21.4008 17.7346C23.004 17.7346 24.2564 16.1914 24.2564 14.2967Z" fill="white"/>
</svg>
