<svg width="41" height="42" viewBox="0 0 41 42" fill="none" xmlns="http://www.w3.org/2000/svg">
<path d="M35.6544 25.1288C35.3347 25.3491 34.9615 25.4791 34.5741 25.5051C34.1867 25.5311 33.7995 25.4522 33.4532 25.2766C32.6403 24.8174 32.2022 23.7405 32.2022 22.2731V17.7757C32.2022 15.6167 31.347 14.0806 29.9165 13.6636C27.4989 12.9563 25.6936 15.9176 24.9968 17.0314L20.7211 23.9517V15.5058C20.6736 13.558 20.0402 12.3914 18.8419 12.0431C18.0501 11.8108 16.8624 11.9058 15.7064 13.6689L6.14675 29.0139C4.87481 26.5804 4.21529 23.8735 4.22533 21.1276C4.22533 11.8794 11.6154 4.35734 20.7211 4.35734C29.8268 4.35734 37.2433 11.8794 37.2433 21.1276V21.1751C37.2433 21.1751 37.2433 21.2068 37.2433 21.2226C37.333 23.0121 36.7523 24.4373 35.6597 25.1288H35.6544ZM40.933 21.1329V21.0431C40.8591 9.77323 31.8221 0.630615 20.7211 0.630615C9.6201 0.630615 0.530273 9.82602 0.530273 21.1276C0.530273 32.4292 9.58843 41.6299 20.7211 41.6299C25.827 41.6296 30.7387 39.6725 34.4456 36.1612C34.8054 35.8222 35.0171 35.3551 35.0349 34.861C35.0527 34.367 34.8751 33.8859 34.5406 33.5219C34.3805 33.3448 34.187 33.2012 33.9712 33.0992C33.7554 32.9972 33.5216 32.9389 33.2831 32.9276C33.0447 32.9163 32.8064 32.9523 32.5819 33.0334C32.3575 33.1146 32.1513 33.2393 31.9752 33.4005C30.3792 34.9143 28.4938 36.0901 26.4322 36.8572C24.3705 37.6242 22.1751 37.9668 19.9778 37.8642C17.7804 37.7617 15.6265 37.2162 13.6452 36.2604C11.6639 35.3047 9.89625 33.9584 8.44824 32.3025L17.0524 18.4724V24.8543C17.0524 27.9212 18.2401 28.9136 19.2378 29.2039C20.2355 29.4943 21.761 29.2937 23.3604 26.6966L28.1112 19.0056C28.259 18.7575 28.4015 18.5463 28.5282 18.3616V22.2731C28.5282 25.1394 29.679 27.4303 31.6954 28.5599C32.6123 29.0549 33.6455 29.2941 34.6866 29.2523C35.7278 29.2105 36.7385 28.8893 37.6128 28.3224C39.8298 26.8813 41.0386 24.2737 40.9119 21.1329H40.933Z" fill="#020031"/>
</svg>
