<svg width="32" height="26" viewBox="0 0 32 26" fill="none" xmlns="http://www.w3.org/2000/svg">
<path d="M29.1501 0.106246L1.67851 11.0128C1.66216 11.0192 1.64632 11.027 1.63111 11.0359C1.40834 11.1653 -0.146295 12.1409 2.04584 13.0156L2.06835 13.0241L8.6098 15.1923C8.6597 15.2089 8.71255 15.2142 8.76464 15.2077C8.81673 15.2012 8.86681 15.183 8.91136 15.1546L25.1361 4.76901C25.1759 4.74354 25.2202 4.72639 25.2665 4.71856C25.4922 4.68026 26.1421 4.60854 25.7309 5.14405C25.2659 5.75189 14.1837 15.9406 12.9538 17.0705C12.8829 17.1359 12.839 17.2265 12.8311 17.324L12.2944 23.8887C12.2943 23.9556 12.3094 24.0215 12.3385 24.0813C12.3676 24.1412 12.4099 24.1932 12.462 24.2334C12.536 24.2811 12.623 24.3033 12.7101 24.2965C12.7973 24.2897 12.88 24.2544 12.9461 24.1957L16.8327 20.6319C16.8941 20.5756 16.9724 20.5426 17.0546 20.5383C17.1368 20.5339 17.218 20.5586 17.2847 20.6082L24.0655 25.6594L24.0874 25.6745C24.2516 25.7785 26.0242 26.8367 26.5361 24.4734L31.2166 1.63983C31.2231 1.5675 31.2865 0.772442 30.7326 0.302579C30.1508 -0.188558 29.3272 0.0594422 29.2034 0.0861873C29.1851 0.0914038 29.1673 0.0981116 29.1501 0.106246Z" fill="white"/>
</svg>
