<svg width="47" height="38" viewBox="0 0 47 38" fill="none" xmlns="http://www.w3.org/2000/svg">
<path d="M39.6201 3.53242C44.7789 11.677 47.3266 20.8639 46.3742 31.4401C46.3702 31.4849 46.3485 31.5259 46.3142 31.5529C42.4076 34.6332 38.6226 36.5026 34.8907 37.7423C34.8616 37.7518 34.8305 37.7512 34.8018 37.7408C34.773 37.7304 34.748 37.7105 34.7302 37.684C33.8681 36.3959 33.0847 35.0378 32.3984 33.6117C32.359 33.5278 32.3949 33.4266 32.476 33.3935C33.7202 32.8901 34.9033 32.2868 36.0412 31.5725C36.1309 31.5161 36.1366 31.3782 36.0538 31.312C35.8122 31.1194 35.573 30.9171 35.344 30.7148C35.3012 30.6774 35.2436 30.67 35.195 30.6952C27.8071 34.3585 19.7141 34.3585 12.2389 30.6952C12.1903 30.6719 12.1327 30.6798 12.091 30.7166C11.8626 30.919 11.6228 31.1194 11.3835 31.312C11.3008 31.3782 11.3076 31.5161 11.3978 31.5725C12.5358 32.2733 13.7188 32.8901 14.9613 33.3959C15.0418 33.429 15.0801 33.5278 15.0401 33.6117C14.3686 35.0397 13.5852 36.3977 12.7071 37.6859C12.6688 37.738 12.606 37.7619 12.5466 37.7423C8.83242 36.5026 5.04741 34.6332 1.14078 31.5529C1.10824 31.5259 1.08483 31.483 1.0814 31.4383C0.285459 22.29 1.90761 13.0271 7.82921 3.53058C7.84349 3.50544 7.86519 3.48582 7.89031 3.47417C10.804 2.03826 13.9255 0.981865 17.1881 0.378561C17.2475 0.368751 17.3069 0.398181 17.3377 0.454587C17.7408 1.22098 18.2016 2.2038 18.5133 3.00698C21.9523 2.44291 25.445 2.44291 28.956 3.00698C29.2677 2.22097 29.7125 1.22098 30.1139 0.454587C30.1282 0.426605 30.1503 0.404186 30.1772 0.390533C30.2041 0.37688 30.2343 0.37269 30.2635 0.378561C33.5278 0.983704 36.6493 2.0401 39.5607 3.47417C39.5864 3.48582 39.6075 3.50544 39.6201 3.53242ZM20.2617 20.9264C20.2977 18.222 18.4614 15.9841 16.1563 15.9841C13.8702 15.9841 12.0516 18.2024 12.0516 20.9264C12.0516 23.6499 13.9061 25.8681 16.1563 25.8681C18.4431 25.8681 20.2617 23.6499 20.2617 20.9264ZM35.4394 20.9264C35.4754 18.222 33.6391 15.9841 31.3346 15.9841C29.0479 15.9841 27.2293 18.2024 27.2293 20.9264C27.2293 23.6499 29.0838 25.8681 31.3346 25.8681C33.6391 25.8681 35.4394 23.6499 35.4394 20.9264Z" fill="#020031"/>
</svg>
