<svg width="45" height="46" viewBox="0 0 45 46" fill="none" xmlns="http://www.w3.org/2000/svg">
<path fill-rule="evenodd" clip-rule="evenodd" d="M29.3015 43.411C29.8699 44.4555 31.2871 44.846 32.4669 44.2832C33.6466 43.7204 34.1422 42.4174 33.5738 41.3728C30.3413 35.4327 27.9926 30.2452 26.0603 25.6145C29.8015 23.751 33.3941 21.7786 36.3759 19.8193C39.3618 17.8573 41.9792 15.7545 43.4135 13.6282C44.1123 12.5923 43.839 11.1861 42.8031 10.4873C41.7672 9.7885 40.361 10.0618 39.6622 11.0977C38.7615 12.4328 36.7982 14.1273 33.8911 16.0375C31.1922 17.8109 27.8864 19.6393 24.3489 21.4112C24.0249 20.5995 23.7105 19.8055 23.4025 19.0279L23.2076 18.5358C20.7261 12.2719 18.5715 6.90279 15.0466 2.06069C14.3408 1.09117 12.8744 0.859717 11.7713 1.54373C10.6682 2.22774 10.3461 3.56819 11.0519 4.53771C14.2329 8.90739 16.2236 13.8067 18.7355 20.1472L18.9404 20.6648C19.3018 21.5773 19.6735 22.5161 20.0606 23.4827C13.6662 26.4682 7.15961 29.0824 2.71858 30.7125C1.54554 31.143 0.943657 32.443 1.37423 33.6161C1.8048 34.7891 3.10478 35.391 4.27782 34.9604C8.76528 33.3133 15.3046 30.6883 21.7756 27.6758C23.7108 32.2889 26.0778 37.4871 29.3015 43.411Z" fill="#020031"/>
</svg>
