<svg width="45" height="38" viewBox="0 0 45 38" fill="none" xmlns="http://www.w3.org/2000/svg">
<path d="M41.5544 0.782604L2.066 16.4599C2.0425 16.4692 2.01973 16.4803 1.99787 16.4932C1.67765 16.6793 -0.557027 18.0816 2.59401 19.3389L2.62637 19.3511L12.0292 22.4677C12.101 22.4916 12.1769 22.4992 12.2518 22.4898C12.3267 22.4805 12.3987 22.4544 12.4627 22.4135L35.7846 7.48499C35.8418 7.44838 35.9055 7.42373 35.972 7.41247C36.2964 7.35743 37.2307 7.25433 36.6397 8.02408C35.9711 8.89781 20.0414 23.5433 18.2734 25.1675C18.1714 25.2614 18.1084 25.3918 18.0971 25.5319L17.3255 34.9682C17.3254 35.0643 17.3471 35.1591 17.389 35.2451C17.4308 35.3311 17.4916 35.4059 17.5665 35.4636C17.6728 35.5323 17.7979 35.5641 17.9231 35.5544C18.0484 35.5446 18.1673 35.4938 18.2623 35.4094L23.849 30.2867C23.9373 30.2058 24.0499 30.1584 24.1681 30.1522C24.2863 30.146 24.403 30.1814 24.4988 30.2527L34.2457 37.5134L34.2772 37.5352C34.5131 37.6846 37.0612 39.2058 37.797 35.8087L44.5249 2.98703C44.5343 2.88305 44.6254 1.74021 43.8291 1.06482C42.9928 0.358845 41.8091 0.715327 41.6311 0.753771C41.6048 0.761269 41.5792 0.770911 41.5544 0.782604Z" fill="#020031"/>
</svg>
