<svg width="274" height="206" viewBox="0 0 274 206" fill="none" xmlns="http://www.w3.org/2000/svg">
<path d="M100.782 62.5743C129.822 14.5754 181.067 0.438229 217.242 30.6859C301.702 101.306 211.361 165.571 167.975 175.305C127.968 184.28 20.7512 144.777 13.5172 112.531C10.8322 100.562 64.4821 122.573 100.782 62.5743Z" fill="white" stroke="#020031" stroke-width="5.11086"/>
<path d="M110.341 98.3174C110.922 100.679 111.527 103.013 112.154 105.321C112.777 107.609 113.488 109.883 114.287 112.142C114.335 112.313 114.379 112.506 114.419 112.721C114.472 112.911 114.497 113.109 114.493 113.316C114.439 113.926 114.19 114.427 113.746 114.819C113.302 115.211 112.798 115.465 112.236 115.582C111.673 115.699 111.121 115.669 110.579 115.493C110.032 115.298 109.64 114.926 109.403 114.377C109.322 114.235 109.26 114.088 109.218 113.936C109.194 113.778 109.161 113.624 109.118 113.471C108.45 110.949 107.828 108.589 107.251 106.391C106.669 104.173 106.071 101.97 105.456 99.7823C105.241 99.822 104.947 99.9049 104.571 100.031C104.191 100.138 103.794 100.26 103.381 100.396C102.987 100.527 102.599 100.647 102.219 100.753C101.857 100.855 101.586 100.911 101.404 100.921C100.834 100.937 100.346 100.808 99.9396 100.532C99.5526 100.251 99.2596 99.9018 99.0606 99.4856C98.8561 99.0504 98.7495 98.5979 98.7407 98.1283C98.7456 97.6342 98.8697 97.1991 99.1129 96.8228C99.4709 96.2706 100.079 95.843 100.939 95.54C102.907 94.8021 104.885 94.1335 106.872 93.5341C108.872 92.9104 110.71 92.3633 112.384 91.8928C113.145 91.679 113.856 91.7255 114.517 92.0324C115.192 92.315 115.67 92.7758 115.953 93.415C116.326 94.2337 116.345 95.0291 116.007 95.8013C115.684 96.5491 115.104 97.0813 114.27 97.398C113.579 97.5714 112.908 97.7395 112.256 97.9023C111.599 98.046 110.96 98.1844 110.341 98.3174ZM120.293 102.787C120.237 102.003 120.343 101.357 120.611 100.851C120.874 100.325 121.273 99.9564 121.809 99.7442C122.345 99.5321 122.824 99.4487 123.247 99.494C123.684 99.5149 124.06 99.6455 124.374 99.8857C124.701 100.102 124.962 100.408 125.155 100.805C125.368 101.197 125.51 101.629 125.581 102.102C125.652 102.719 125.775 103.341 125.952 103.969C126.142 104.572 126.335 105.185 126.53 105.807C126.726 106.43 126.909 107.046 127.08 107.654C127.27 108.258 127.405 108.846 127.483 109.419C127.523 109.778 127.496 110.083 127.402 110.335C127.309 110.587 127.164 110.802 126.968 110.981C126.771 111.159 126.539 111.317 126.269 111.454C126.014 111.567 125.739 111.685 125.445 111.809C124.858 112.056 124.266 112.068 123.67 111.846C123.074 111.623 122.645 111.158 122.385 110.452C121.948 109.261 121.533 108.002 121.139 106.676C120.741 105.33 120.459 104.034 120.293 102.787ZM124.227 95.3084C124.371 95.8221 124.37 96.2944 124.224 96.7254C124.079 97.1563 123.835 97.5326 123.495 97.8541C123.168 98.1513 122.781 98.3831 122.335 98.5494C121.889 98.7158 121.445 98.779 121.003 98.7391C120.555 98.6801 120.15 98.5168 119.788 98.2492C119.42 97.9626 119.146 97.5365 118.967 96.9711C118.817 96.4384 118.815 95.9566 118.961 95.5256C119.12 95.0703 119.363 94.694 119.69 94.3968C120.031 94.0753 120.418 93.8435 120.85 93.7016C121.301 93.5542 121.751 93.51 122.198 93.569C122.646 93.628 123.054 93.8008 123.422 94.0874C123.784 94.355 124.053 94.762 124.227 95.3084ZM130.439 92.7621C130.875 92.4139 131.406 92.0389 132.032 91.6371C132.653 91.2164 133.292 90.8622 133.95 90.5746C134.628 90.2817 135.279 90.0782 135.903 89.9642C136.528 89.8502 137.076 89.9015 137.548 90.118C137.981 90.3452 138.315 90.6928 138.549 91.1607C138.802 91.6233 138.976 92.0977 139.072 92.584C139.165 92.9889 139.174 93.3866 139.099 93.7772C139.019 94.1487 138.868 94.4887 138.647 94.7972C138.426 95.1057 138.138 95.361 137.785 95.563C137.431 95.7651 137.034 95.8869 136.594 95.9284C135.915 95.996 135.325 96.1617 134.825 96.4256C134.338 96.665 133.932 96.9741 133.607 97.3527C133.302 97.726 133.072 98.1498 132.918 98.6242C132.783 99.0932 132.725 99.5815 132.744 100.089C132.774 100.635 132.858 101.186 132.994 101.743C133.143 102.276 133.305 102.816 133.479 103.362C133.667 103.884 133.857 104.416 134.05 104.957C134.238 105.479 134.376 106.005 134.463 106.534C134.63 107.349 134.58 108.01 134.312 108.517C134.057 108.999 133.545 109.368 132.776 109.626C131.604 110.057 130.768 110.149 130.266 109.9C129.765 109.65 129.43 109.149 129.259 108.397C128.727 105.919 128.129 103.572 127.466 101.357C126.821 99.1364 126.16 97.0026 125.482 94.9555C125.286 94.4769 125.177 94.0869 125.153 93.7855C125.144 93.4597 125.21 93.1845 125.353 92.9598C125.495 92.7351 125.71 92.5515 125.998 92.4088C126.287 92.2662 126.616 92.1224 126.986 91.9775C127.323 91.8622 127.62 91.7889 127.878 91.7574C128.136 91.726 128.376 91.7406 128.599 91.8013C128.835 91.8376 129.062 91.9173 129.282 92.0404C129.52 92.1582 129.776 92.3018 130.049 92.4713C130.123 92.5124 130.186 92.5561 130.24 92.6025C130.294 92.6488 130.361 92.7021 130.439 92.7621ZM148 97.2495C148.153 97.8636 148.402 98.3479 148.747 98.7023C149.107 99.0324 149.494 99.2417 149.909 99.3304C150.343 99.4137 150.774 99.3749 151.2 99.2139C151.641 99.0285 152.021 98.737 152.34 98.3393C152.409 98.2175 152.48 98.1051 152.554 98.0023C152.646 97.8941 152.727 97.7791 152.795 97.6573C153.183 97.1378 153.655 96.81 154.213 96.674C154.77 96.538 155.314 96.6109 155.844 96.8929C156.407 97.2889 156.745 97.7587 156.856 98.3021C156.981 98.8211 156.956 99.3517 156.78 99.8938C156.604 100.436 156.331 100.964 155.963 101.478C155.589 101.973 155.212 102.387 154.834 102.719C154.201 103.246 153.516 103.654 152.776 103.944C152.05 104.21 151.314 104.365 150.567 104.411C149.519 104.48 148.556 104.34 147.678 103.991C146.819 103.637 146.045 103.146 145.355 102.519C144.685 101.886 144.11 101.155 143.63 100.325C143.164 99.4706 142.791 98.5799 142.51 97.6531C142.248 96.7208 142.086 95.7809 142.025 94.8332C141.959 93.8666 142.012 92.9588 142.184 92.1099C142.428 90.9328 142.932 89.8777 143.696 88.9446C144.474 87.987 145.381 87.2703 146.417 86.7943C147.146 86.4663 147.901 86.2647 148.68 86.1893C149.478 86.1087 150.248 86.1799 150.988 86.403C151.728 86.6261 152.401 87.0118 153.006 87.5601C153.612 88.1083 154.103 88.8326 154.479 89.7327C155.177 91.4866 155.105 92.9848 154.264 94.2271C153.436 95.445 151.98 96.3263 149.896 96.8709C149.567 96.9428 149.247 97.012 148.938 97.0785C148.647 97.1397 148.335 97.1967 148 97.2495ZM149.418 92.5405C149.807 92.3902 150.106 92.1418 150.317 91.7952C150.541 91.4243 150.559 91.0498 150.37 90.6716C150.22 90.4267 150.038 90.2929 149.827 90.2702C149.634 90.2422 149.428 90.2386 149.208 90.2594C148.754 90.3253 148.35 90.5312 147.996 90.8771C147.66 91.2177 147.459 91.5615 147.393 91.9087C147.321 92.2368 147.434 92.4925 147.731 92.6757C148.029 92.8588 148.591 92.8138 149.418 92.5405ZM163.404 84.392C163.297 84.0115 163.19 83.631 163.083 83.2505C162.995 82.8646 162.908 82.4788 162.82 82.093C162.751 81.7018 162.698 81.2957 162.662 80.8748C162.601 80.071 162.773 79.4067 163.18 78.8819C163.587 78.357 164.203 78.0299 165.029 77.9005C165.477 77.8156 165.881 77.7943 166.242 77.8366C166.603 77.8789 166.916 78.0065 167.181 78.2193C167.46 78.4079 167.687 78.7034 167.861 79.1059C168.036 79.5084 168.152 80.0301 168.209 80.671C168.317 81.9337 168.536 83.258 168.863 84.6439C169.205 86.0053 169.58 87.3778 169.99 88.7613C170.413 90.1204 170.84 91.4579 171.271 92.7736C171.721 94.084 172.109 95.3194 172.436 96.4799C172.591 97.0317 172.533 97.52 172.262 97.945C172.011 98.3647 171.671 98.655 171.245 98.816C170.761 98.9931 170.29 99.1458 169.834 99.2741C169.401 99.416 168.954 99.5417 168.492 99.651C168.036 99.7793 167.56 99.9129 167.066 100.052C166.585 100.167 166.059 100.304 165.488 100.464C164.265 100.788 163.175 100.817 162.218 100.552C161.255 100.268 160.434 99.7908 159.753 99.1201C159.066 98.4303 158.515 97.6 158.098 96.6291C157.701 95.6528 157.446 94.6365 157.334 93.58C157.198 92.366 157.22 91.2409 157.401 90.2048C157.601 89.1633 157.949 88.2445 158.444 87.4486C158.938 86.6527 159.595 85.996 160.415 85.4783C161.253 84.9554 162.25 84.5933 163.404 84.392ZM166.027 93.508C166.095 93.017 166.104 92.5013 166.054 91.9609C166.005 91.4205 165.878 90.9326 165.674 90.4974C165.464 90.0432 165.181 89.6918 164.824 89.4432C164.461 89.1756 164.003 89.0786 163.449 89.1522C162.932 89.215 162.534 89.44 162.253 89.8269C161.99 90.2085 161.819 90.657 161.738 91.1724C161.676 91.6825 161.703 92.2187 161.82 92.7812C161.932 93.3246 162.112 93.818 162.359 94.2616C162.672 94.7896 163.015 95.1345 163.389 95.2963C163.777 95.4337 164.142 95.4543 164.484 95.358C164.84 95.2374 165.157 95.0149 165.436 94.6904C165.728 94.3415 165.925 93.9473 166.027 93.508ZM186.821 75.2254C188.3 74.7894 189.7 74.6218 191.022 74.7226C192.338 74.8043 193.513 75.1515 194.547 75.7641C195.595 76.3523 196.472 77.1732 197.179 78.2268C197.905 79.2751 198.401 80.5314 198.669 81.9957C198.921 83.4029 198.918 84.7072 198.66 85.9086C198.403 87.1101 197.954 88.1803 197.315 89.1195C196.694 90.0533 195.934 90.8521 195.032 91.516C194.125 92.1608 193.152 92.6397 192.111 92.9528C191.089 93.2605 190.031 93.4038 188.937 93.3827C187.857 93.3373 186.823 93.0939 185.837 92.6526C184.846 92.1922 183.949 91.5205 183.146 90.6375C182.339 89.7354 181.702 88.6007 181.235 87.2332C180.857 86.1078 180.673 84.9384 180.681 83.725C180.702 82.4873 180.937 81.3129 181.384 80.2019C181.845 79.0665 182.528 78.0637 183.433 77.1936C184.333 76.3045 185.462 75.6484 186.821 75.2254ZM191.048 87.3087C191.706 87.0211 192.236 86.6054 192.637 86.0615C193.039 85.5176 193.307 84.9392 193.443 84.3264C193.573 83.6944 193.572 83.0687 193.439 82.4492C193.32 81.8054 193.064 81.2613 192.673 80.8172C192.3 80.3676 191.802 80.056 191.178 79.8823C190.549 79.6895 189.807 79.7134 188.951 79.954C188.132 80.1838 187.52 80.5612 187.113 81.086C186.707 81.6109 186.46 82.1934 186.373 82.8337C186.286 83.4739 186.355 84.1217 186.58 84.7769C186.8 85.413 187.12 85.9695 187.542 86.4464C187.958 86.9043 188.471 87.2323 189.081 87.4304C189.691 87.6285 190.346 87.5879 191.048 87.3087ZM207.881 79.0069C208.123 78.9183 208.413 78.8165 208.75 78.7012C209.101 78.5616 209.451 78.422 209.802 78.2823C210.172 78.1374 210.525 78.0072 210.863 77.892C211.213 77.7524 211.519 77.6356 211.78 77.5418C212.596 77.2304 213.288 77.2104 213.857 77.4816C214.421 77.7338 214.78 78.3923 214.936 79.4571C215.021 79.9053 214.985 80.3259 214.828 80.7189C214.686 81.0874 214.445 81.4013 214.108 81.6604C213.775 81.9385 213.389 82.1703 212.948 82.3557C212.521 82.5167 212.073 82.6735 211.602 82.8262C211.146 82.9545 210.689 83.0828 210.233 83.2111C209.771 83.3204 209.343 83.4407 208.948 83.572C209.053 83.871 209.136 84.094 209.198 84.2408C209.273 84.3633 209.361 84.5646 209.46 84.8446C209.653 85.3856 209.837 85.9293 210.011 86.4757C210.198 86.9977 210.37 87.5346 210.525 88.0863C210.707 88.7332 210.677 89.2855 210.436 89.7432C210.22 90.2146 209.729 90.5884 208.965 90.8646C208.269 91.1629 207.629 91.2606 207.046 91.1576C206.482 91.0492 206.022 90.655 205.667 89.9748C205.489 89.6347 205.34 89.2866 205.22 88.9305C205.118 88.569 205.017 88.2075 204.915 87.846C204.835 87.5607 204.756 87.316 204.678 87.1121C204.614 86.8838 204.543 86.6677 204.465 86.4637C204.406 86.2544 204.345 86.0357 204.28 85.8074C204.216 85.5791 204.144 85.3222 204.064 85.0368C203.534 85.268 203.081 85.3746 202.707 85.3567C202.332 85.3387 202.018 85.2423 201.763 85.0675C201.504 84.8736 201.3 84.623 201.152 84.3156C201.004 84.0082 200.882 83.6833 200.785 83.3409C200.714 83.0121 200.737 82.7285 200.854 82.4901C200.967 82.2328 201.15 82.0069 201.403 81.8126C201.623 81.6479 201.859 81.4997 202.109 81.3677C202.36 81.2358 202.619 81.1012 202.889 80.964C202.561 80.0912 202.253 79.213 201.964 78.3295C201.693 77.4407 201.491 76.5739 201.356 75.7291C201.216 74.8652 201.178 74.0344 201.241 73.2366C201.304 72.4388 201.511 71.7136 201.861 71.0609C202.225 70.3838 202.754 69.7835 203.449 69.2599C204.157 68.712 205.091 68.2749 206.252 67.9488C206.613 67.8473 206.975 67.7457 207.336 67.6441C207.692 67.5235 208.057 67.4315 208.429 67.3679C209.092 67.2433 209.658 67.2484 210.127 67.3835C210.615 67.5132 211.011 67.7199 211.317 68.0035C211.622 68.2872 211.853 68.6329 212.009 69.0408C212.164 69.4487 212.251 69.8657 212.268 70.292C212.277 70.6178 212.256 70.9421 212.203 71.2649C212.169 71.5823 212.07 71.8873 211.905 72.1797C211.736 72.4531 211.501 72.7141 211.202 72.9625C210.897 73.1919 210.497 73.3761 210.002 73.5151C209.418 73.556 208.911 73.5755 208.479 73.5736C208.061 73.5473 207.716 73.5621 207.445 73.6179C207.168 73.6547 206.962 73.7638 206.828 73.9451C206.708 74.102 206.664 74.3814 206.694 74.7833C206.739 75.1608 206.857 75.692 207.05 76.3769C207.242 77.0618 207.519 77.9385 207.881 79.0069ZM107.043 129.459C107.479 129.111 108.01 128.736 108.636 128.334C109.257 127.914 109.896 127.56 110.554 127.272C111.232 126.979 111.883 126.776 112.507 126.662C113.132 126.548 113.68 126.599 114.152 126.815C114.585 127.043 114.919 127.39 115.153 127.858C115.406 128.321 115.581 128.795 115.676 129.281C115.769 129.686 115.778 130.084 115.704 130.475C115.623 130.846 115.472 131.186 115.251 131.495C115.03 131.803 114.742 132.058 114.389 132.26C114.035 132.462 113.638 132.584 113.198 132.626C112.519 132.693 111.929 132.859 111.429 133.123C110.942 133.362 110.536 133.671 110.211 134.05C109.906 134.423 109.676 134.847 109.522 135.321C109.387 135.79 109.329 136.279 109.348 136.787C109.379 137.332 109.462 137.884 109.598 138.441C109.747 138.974 109.909 139.513 110.083 140.059C110.271 140.581 110.461 141.113 110.654 141.654C110.842 142.176 110.98 142.702 111.067 143.232C111.234 144.047 111.184 144.707 110.916 145.214C110.661 145.696 110.149 146.066 109.38 146.323C108.208 146.755 107.372 146.846 106.871 146.597C106.369 146.348 106.034 145.847 105.863 145.094C105.331 142.616 104.733 140.27 104.07 138.054C103.425 135.834 102.764 133.7 102.086 131.653C101.89 131.174 101.781 130.784 101.758 130.483C101.748 130.157 101.814 129.882 101.957 129.657C102.099 129.432 102.314 129.249 102.602 129.106C102.891 128.964 103.22 128.82 103.59 128.675C103.927 128.56 104.224 128.486 104.482 128.455C104.74 128.423 104.98 128.438 105.203 128.499C105.439 128.535 105.666 128.615 105.886 128.738C106.124 128.856 106.38 128.999 106.653 129.169C106.727 129.21 106.79 129.253 106.844 129.3C106.898 129.346 106.965 129.399 107.043 129.459ZM122.788 139.753C122.095 139.188 121.462 138.504 120.887 137.701C120.331 136.892 119.838 136.015 119.408 135.068C118.973 134.103 118.624 133.082 118.363 132.006C118.101 130.93 117.941 129.846 117.88 128.754C117.879 128.385 117.89 128.023 117.913 127.667C117.956 127.307 118.041 126.954 118.171 126.61C118.344 126.13 118.675 125.739 119.165 125.437C119.669 125.111 120.195 124.902 120.744 124.809C121.306 124.692 121.843 124.705 122.356 124.849C122.868 124.992 123.239 125.288 123.468 125.737C123.626 126.083 123.764 126.537 123.881 127.099C124.017 127.656 124.148 128.266 124.272 128.929C124.416 129.586 124.553 130.256 124.683 130.938C124.832 131.615 124.996 132.236 125.176 132.801C125.424 133.614 125.768 134.215 126.206 134.605C126.639 134.976 127.034 135.142 127.393 135.103C127.765 135.04 128.051 134.744 128.252 134.215C128.452 133.687 128.464 132.924 128.286 131.927C128.194 131.378 128.043 130.805 127.834 130.207C127.643 129.603 127.44 129.024 127.222 128.469C127.005 127.915 126.798 127.398 126.602 126.919C126.406 126.441 126.262 126.04 126.171 125.716C125.997 125.17 125.986 124.691 126.137 124.279C126.302 123.843 126.56 123.483 126.911 123.199C127.263 122.916 127.674 122.698 128.144 122.545C128.633 122.387 129.107 122.284 129.566 122.238C130.006 122.196 130.395 122.302 130.733 122.556C131.066 122.791 131.366 123.128 131.633 123.566C131.9 124.004 132.132 124.503 132.331 125.063C132.529 125.623 132.699 126.191 132.841 126.768C132.982 127.344 133.108 127.903 133.22 128.447C133.332 128.99 133.431 129.455 133.519 129.841C133.777 131.123 133.894 132.342 133.87 133.499C133.865 134.65 133.67 135.71 133.286 136.68C132.858 137.786 132.235 138.71 131.417 139.453C130.613 140.172 129.719 140.68 128.735 140.977C127.77 141.268 126.76 141.326 125.705 141.151C124.664 140.951 123.691 140.485 122.788 139.753ZM146.947 132.996C144.814 134.683 142.506 135.311 140.025 134.879C139.379 134.773 138.81 134.574 138.317 134.281C137.838 133.964 137.412 133.581 137.039 133.131C136.667 132.682 136.35 132.176 136.089 131.613C135.847 131.044 135.65 130.453 135.498 129.839C135.152 128.458 134.979 127.152 134.982 125.919C134.985 124.687 135.192 123.561 135.604 122.543C136.034 121.518 136.684 120.617 137.554 119.839C138.423 119.061 139.548 118.427 140.929 117.936C141.636 117.676 142.358 117.504 143.094 117.42C143.824 117.318 144.53 117.345 145.211 117.503C145.905 117.636 146.561 117.924 147.178 118.367C147.789 118.79 148.339 119.395 148.827 120.182C149.139 120.71 149.469 121.407 149.815 122.275C150.162 123.142 150.494 124.106 150.813 125.166C151.15 126.221 151.453 127.336 151.722 128.513C152.005 129.665 152.236 130.781 152.416 131.859C152.591 132.918 152.713 133.9 152.782 134.805C152.851 135.709 152.829 136.433 152.715 136.979C152.529 137.996 152.155 138.891 151.592 139.665C151.049 140.434 150.405 141.066 149.662 141.562C148.938 142.053 148.142 142.4 147.275 142.602C146.414 142.824 145.582 142.894 144.778 142.811C144.312 142.758 143.837 142.676 143.354 142.565C142.891 142.449 142.457 142.294 142.053 142.099C141.669 141.899 141.328 141.636 141.031 141.309C140.758 140.995 140.574 140.596 140.478 140.109C140.393 139.661 140.417 139.234 140.549 138.827C140.7 138.415 140.92 138.066 141.209 137.779C141.498 137.493 141.849 137.281 142.262 137.145C142.676 137.008 143.109 136.979 143.562 137.057C143.779 137.098 143.977 137.145 144.155 137.198C144.34 137.269 144.54 137.326 144.757 137.367C145.438 137.525 145.964 137.459 146.334 137.171C146.729 136.895 147.003 136.521 147.157 136.046C147.311 135.572 147.361 135.055 147.307 134.496C147.266 133.912 147.146 133.412 146.947 132.996ZM140.518 126.335C140.609 127.171 140.825 127.829 141.165 128.308C141.505 128.787 141.883 129.112 142.301 129.282C142.737 129.447 143.174 129.468 143.612 129.345C144.063 129.198 144.439 128.928 144.739 128.535C145.039 128.143 145.226 127.639 145.299 127.023C145.386 126.383 145.284 125.652 144.991 124.831C144.777 124.214 144.411 123.824 143.893 123.662C143.37 123.48 142.845 123.474 142.317 123.643C141.809 123.806 141.365 124.126 140.986 124.602C140.606 125.078 140.45 125.656 140.518 126.335ZM161.147 130.422C161.241 130.683 161.325 130.946 161.4 131.213C161.494 131.474 161.588 131.735 161.682 131.996C161.942 132.703 162.02 133.307 161.914 133.809C161.828 134.305 161.624 134.711 161.302 135.028C160.981 135.344 160.587 135.588 160.122 135.759C159.663 135.95 159.199 136.091 158.732 136.181C158.384 136.258 158.06 136.236 157.759 136.116C157.464 136.014 157.193 135.854 156.947 135.636C156.725 135.431 156.524 135.19 156.343 134.912C156.182 134.629 156.061 134.345 155.981 134.06C155.633 132.823 155.244 131.547 154.812 130.231C154.381 128.915 153.947 127.59 153.51 126.255C153.074 124.921 152.649 123.593 152.237 122.272C151.839 120.926 151.479 119.611 151.159 118.325C150.956 117.459 151.059 116.691 151.466 116.022C151.874 115.353 152.433 114.786 153.143 114.319C153.867 113.828 154.696 113.452 155.628 113.19C156.56 112.928 157.504 112.745 158.46 112.641C159.636 112.515 160.741 112.575 161.774 112.818C162.821 113.037 163.762 113.429 164.599 113.995C165.449 114.536 166.179 115.234 166.788 116.089C167.417 116.939 167.908 117.92 168.262 119.031C168.717 120.505 168.819 121.892 168.569 123.194C168.314 124.477 167.827 125.63 167.109 126.653C166.404 127.651 165.519 128.485 164.455 129.154C163.404 129.798 162.302 130.22 161.147 130.422ZM159.233 125.91C160.116 125.764 160.845 125.436 161.42 124.926C161.995 124.415 162.417 123.835 162.685 123.185C162.949 122.515 163.054 121.829 163 121.126C162.965 120.417 162.779 119.792 162.442 119.25C162.1 118.69 161.61 118.263 160.974 117.969C160.337 117.676 159.558 117.608 158.637 117.764C158.246 117.833 157.947 118.009 157.739 118.293C157.532 118.577 157.475 119.034 157.57 119.665C157.795 120.464 158.013 121.388 158.226 122.436C158.458 123.48 158.793 124.638 159.233 125.91ZM174.011 125.36C173.318 124.795 172.685 124.111 172.11 123.308C171.554 122.499 171.061 121.621 170.631 120.675C170.195 119.709 169.847 118.688 169.586 117.612C169.324 116.536 169.164 115.452 169.103 114.361C169.102 113.992 169.113 113.629 169.136 113.274C169.179 112.913 169.264 112.561 169.394 112.216C169.567 111.737 169.898 111.346 170.388 111.044C170.892 110.718 171.418 110.508 171.967 110.416C172.529 110.299 173.066 110.312 173.579 110.455C174.091 110.599 174.462 110.895 174.691 111.344C174.849 111.689 174.987 112.143 175.104 112.705C175.24 113.263 175.37 113.873 175.495 114.535C175.639 115.193 175.776 115.863 175.906 116.545C176.055 117.221 176.219 117.842 176.398 118.408C176.647 119.22 176.991 119.822 177.429 120.212C177.862 120.583 178.257 120.749 178.616 120.71C178.988 120.646 179.274 120.35 179.475 119.822C179.675 119.293 179.687 118.531 179.509 117.534C179.416 116.985 179.266 116.411 179.056 115.813C178.866 115.21 178.663 114.631 178.445 114.076C178.228 113.521 178.021 113.005 177.825 112.526C177.629 112.047 177.485 111.646 177.394 111.323C177.22 110.777 177.209 110.297 177.36 109.885C177.525 109.449 177.783 109.089 178.134 108.806C178.486 108.522 178.897 108.304 179.367 108.151C179.856 107.993 180.33 107.891 180.789 107.844C181.229 107.803 181.618 107.909 181.956 108.163C182.289 108.398 182.589 108.734 182.856 109.172C183.123 109.611 183.355 110.11 183.554 110.67C183.752 111.23 183.922 111.798 184.064 112.374C184.205 112.95 184.331 113.51 184.443 114.053C184.555 114.597 184.654 115.061 184.742 115.447C185 116.73 185.117 117.949 185.093 119.105C185.088 120.256 184.893 121.317 184.509 122.287C184.081 123.392 183.458 124.317 182.64 125.06C181.836 125.778 180.942 126.286 179.958 126.583C178.993 126.875 177.983 126.933 176.928 126.757C175.886 126.557 174.914 126.091 174.011 125.36ZM184.897 105.335C184.82 104.187 184.991 103.297 185.409 102.666C185.822 102.017 186.589 101.606 187.711 101.434C188.537 101.305 189.156 101.429 189.57 101.805C189.978 102.162 190.205 102.714 190.251 103.461C190.423 106.41 190.861 109.284 191.565 112.083C192.289 114.877 193.207 117.523 194.32 120.023C194.545 120.678 194.613 121.213 194.524 121.628C194.455 122.037 194.206 122.395 193.779 122.7C193.215 123.104 192.607 123.316 191.956 123.335C191.323 123.348 190.768 123.125 190.289 122.664C189.775 122.295 189.296 121.722 188.851 120.943C188.407 120.165 187.993 119.276 187.609 118.275C187.22 117.255 186.872 116.163 186.564 114.997C186.252 113.812 185.974 112.638 185.729 111.475C185.503 110.307 185.315 109.2 185.165 108.154C185.029 107.084 184.939 106.144 184.897 105.335ZM192.393 103.229C192.317 102.08 192.488 101.19 192.906 100.56C193.318 99.9101 194.086 99.4995 195.208 99.3279C196.033 99.1985 196.653 99.322 197.067 99.6984C197.475 100.056 197.702 100.608 197.748 101.355C197.919 104.303 198.358 107.177 199.062 109.976C199.785 112.77 200.704 115.417 201.816 117.916C202.042 118.571 202.11 119.106 202.021 119.521C201.952 119.931 201.703 120.288 201.275 120.593C200.712 120.998 200.104 121.21 199.453 121.228C198.82 121.242 198.264 121.018 197.786 120.557C197.272 120.189 196.793 119.615 196.348 118.837C195.904 118.059 195.489 117.169 195.106 116.169C194.716 115.149 194.368 114.056 194.061 112.89C193.749 111.705 193.47 110.531 193.226 109.369C193 108.2 192.812 107.093 192.662 106.048C192.525 104.977 192.436 104.038 192.393 103.229ZM207.656 107.5C208.038 107.618 208.419 107.696 208.799 107.733C209.192 107.745 209.578 107.801 209.954 107.901C211.172 108.216 212.158 108.729 212.912 109.441C213.685 110.147 214.207 110.945 214.477 111.834C214.742 112.703 214.74 113.607 214.47 114.545C214.194 115.464 213.633 116.279 212.785 116.989C212.036 117.61 211.145 118.056 210.112 118.325C209.104 118.609 208.134 118.809 207.203 118.928C206.711 119.004 206.21 119.011 205.7 118.949C205.209 118.882 204.773 118.717 204.391 118.455C204.009 118.193 203.715 117.803 203.508 117.287C203.302 116.77 203.234 116.091 203.306 115.25C203.349 114.745 203.551 114.37 203.913 114.125C204.294 113.874 204.728 113.701 205.214 113.605C205.72 113.504 206.229 113.453 206.742 113.453C207.255 113.452 207.67 113.469 207.988 113.503C208.411 113.548 208.745 113.496 208.99 113.345C209.254 113.188 209.416 112.999 209.477 112.777C209.538 112.554 209.488 112.343 209.329 112.141C209.165 111.92 208.877 111.775 208.468 111.706C208.207 111.656 207.969 111.61 207.752 111.568C207.529 111.507 207.3 111.459 207.064 111.423C206.717 111.356 206.385 111.306 206.067 111.272C205.75 111.238 205.427 111.185 205.099 111.113C204.125 110.935 203.281 110.597 202.567 110.1C201.871 109.597 201.315 109.005 200.897 108.321C200.498 107.633 200.252 106.902 200.157 106.128C200.077 105.329 200.148 104.56 200.371 103.82C200.613 103.074 201.027 102.393 201.614 101.777C202.219 101.155 202.999 100.68 203.953 100.35C204.38 100.189 204.809 100.037 205.242 99.8954C205.688 99.7291 206.129 99.5844 206.567 99.4615C206.852 99.3813 207.143 99.3201 207.439 99.278C207.73 99.2168 208.014 99.1678 208.291 99.131C208.836 99.1008 209.321 99.1803 209.743 99.3695C210.185 99.5533 210.548 99.8209 210.831 100.172C211.128 100.499 211.341 100.891 211.469 101.348C211.598 101.804 211.614 102.303 211.52 102.842C211.4 103.512 211.148 104.076 210.763 104.533C210.397 104.985 209.859 105.259 209.147 105.356C208.971 105.386 208.787 105.427 208.597 105.48C208.42 105.509 208.232 105.532 208.031 105.547C207.658 105.611 207.34 105.72 207.076 105.877C206.812 106.033 206.647 106.213 206.581 106.416C206.51 106.6 206.554 106.793 206.713 106.995C206.872 107.197 207.187 107.365 207.656 107.5ZM225.654 95.6375C226.048 96.307 226.29 96.9881 226.382 97.6807C226.493 98.368 226.486 99.0371 226.361 99.688C226.255 100.334 226.057 100.944 225.767 101.518C225.496 102.087 225.172 102.578 224.796 102.992C224.474 103.308 224.137 103.608 223.786 103.891C223.453 104.169 223.124 104.457 222.797 104.754C222.712 104.819 222.609 104.889 222.486 104.964C222.383 105.035 222.279 105.105 222.176 105.175C221.969 105.315 221.807 105.432 221.69 105.527C221.592 105.616 221.518 105.719 221.469 105.835C221.419 105.952 221.406 106.089 221.43 106.247C221.449 106.385 221.493 106.578 221.562 106.825C221.717 107.377 221.741 107.863 221.633 108.283C221.525 108.704 221.337 109.054 221.067 109.335C220.791 109.598 220.463 109.782 220.083 109.889C219.721 109.991 219.364 109.998 219.012 109.913C218.654 109.808 218.32 109.604 218.009 109.302C217.712 108.975 217.507 108.539 217.396 107.996C217.143 106.877 217.146 105.829 217.405 104.853C217.665 103.877 218.26 103.001 219.192 102.226C219.53 101.967 219.865 101.698 220.197 101.42C220.53 101.142 220.865 100.873 221.202 100.614C221.807 100.136 222.188 99.701 222.344 99.3081C222.52 98.9098 222.539 98.576 222.401 98.3067C222.264 98.0373 222.004 97.8435 221.622 97.7251C221.254 97.5823 220.828 97.5275 220.344 97.5607C219.861 97.5939 219.364 97.7233 218.852 97.9491C218.341 98.1749 217.878 98.5 217.464 98.9244C217.123 99.2459 216.762 99.5321 216.381 99.7829C215.994 100.015 215.576 100.204 215.124 100.351C214.181 100.719 213.373 100.546 212.7 99.8319C212.368 99.4532 212.183 99.0533 212.147 98.6324C212.13 98.2061 212.223 97.7695 212.426 97.3225C212.799 96.4582 213.314 95.6977 213.971 95.0409C214.628 94.3841 215.363 93.8594 216.176 93.4666C216.984 93.0548 217.833 92.7857 218.721 92.6593C219.628 92.5275 220.506 92.5476 221.355 92.7196C222.223 92.8863 223.033 93.2129 223.786 93.6993C224.533 94.1668 225.156 94.8129 225.654 95.6375ZM220.04 111.379C220.629 111.213 221.18 111.274 221.692 111.561C222.204 111.849 222.543 112.287 222.708 112.877C222.831 113.458 222.741 114.017 222.44 114.553C222.134 115.071 221.7 115.388 221.137 115.505C220.586 115.66 220.054 115.593 219.542 115.306C219.049 115.014 218.725 114.591 218.57 114.04C218.38 113.436 218.422 112.891 218.696 112.403C218.983 111.892 219.431 111.55 220.04 111.379Z" fill="black"/>
</svg>
