<svg width="178" height="138" viewBox="0 0 178 138" fill="none" xmlns="http://www.w3.org/2000/svg">
<path d="M67.1348 42.3545C86.4629 10.4079 120.57 0.998581 144.647 21.1305C200.861 68.1333 140.733 110.906 111.857 117.384C85.2288 123.358 13.8687 97.0658 9.05397 75.6041C7.2669 67.6382 42.9747 82.2877 67.1348 42.3545Z" fill="white" stroke="#020031" stroke-width="3.40163"/>
<path d="M83.0147 49.0891C83.2888 50.6844 83.5796 52.2628 83.8871 53.8244C84.1919 55.3731 84.556 56.9163 84.9795 58.454C85.0033 58.57 85.0233 58.7002 85.0396 58.8445C85.0661 58.9734 85.0732 59.1062 85.061 59.243C84.9961 59.6457 84.8069 59.9666 84.4935 60.2055C84.18 60.4445 83.8338 60.5895 83.4549 60.6405C83.076 60.6915 82.7107 60.6458 82.3592 60.5032C82.0049 60.3477 81.7624 60.082 81.6314 59.7061C81.5844 59.6083 81.5504 59.5079 81.5292 59.4048C81.5209 59.2991 81.5062 59.1947 81.485 59.0916C81.1613 57.3857 80.86 55.7892 80.5813 54.3023C80.3 52.8025 80.0071 51.3118 79.7026 49.8301C79.5582 49.8464 79.3585 49.8874 79.1035 49.9532C78.8458 50.0062 78.5766 50.0682 78.2958 50.1394C78.0279 50.2079 77.7651 50.2686 77.5074 50.3215C77.2626 50.3718 77.0796 50.396 76.9583 50.3941C76.5791 50.378 76.2612 50.2688 76.0048 50.0664C75.7612 49.8613 75.5832 49.6159 75.4708 49.3301C75.3557 49.0315 75.3064 48.7261 75.3228 48.4139C75.3494 48.0861 75.4524 47.8031 75.6317 47.5649C75.8955 47.2152 76.3198 46.9602 76.9045 46.7998C78.2464 46.4032 79.591 46.053 80.9385 45.7492C82.2963 45.4299 83.542 45.1538 84.6758 44.9208C85.1912 44.8149 85.661 44.8794 86.0853 45.1145C86.5198 45.3341 86.8156 45.6627 86.9727 46.1004C87.182 46.6616 87.1564 47.1906 86.8959 47.6872C86.6457 48.1683 86.236 48.4942 85.6668 48.6649C85.2003 48.7473 84.7467 48.8271 84.306 48.9043C83.8627 48.9685 83.4322 49.0301 83.0147 49.0891ZM92.0043 46.1943C93.0066 45.9749 93.944 45.93 94.8166 46.0595C95.6865 46.1761 96.4503 46.4623 97.1079 46.918C97.7757 47.3581 98.3192 47.9447 98.7384 48.6777C99.1705 49.408 99.4407 50.2655 99.5491 51.2503C99.6495 52.1965 99.5857 53.0623 99.3577 53.8477C99.1297 54.6331 98.7813 55.3223 98.3123 55.9155C97.8563 56.5061 97.3133 57.0004 96.6835 57.3984C96.0509 57.7835 95.3817 58.0553 94.6757 58.2138C93.9826 58.3696 93.2735 58.4147 92.5483 58.3488C91.8333 58.2675 91.159 58.057 90.5252 57.7172C89.8888 57.3646 89.3251 56.8762 88.8343 56.252C88.3408 55.6148 87.9717 54.8313 87.7268 53.9014C87.5293 53.1363 87.462 52.3512 87.5248 51.546C87.5979 50.7254 87.8092 49.9568 88.1588 49.2404C88.5186 48.5085 89.0196 47.8752 89.6617 47.3404C90.3011 46.7927 91.0819 46.4107 92.0043 46.1943ZM94.2378 54.4164C94.6883 54.2567 95.0598 54.0058 95.352 53.6638C95.6443 53.3217 95.85 52.9505 95.9691 52.55C96.0856 52.1367 96.1143 51.7212 96.0554 51.3036C96.0067 50.8705 95.8628 50.4972 95.6238 50.1838C95.3977 49.8677 95.0818 49.6372 94.6761 49.4923C94.2677 49.3346 93.7736 49.3152 93.1938 49.4344C92.6398 49.5482 92.2154 49.7697 91.9204 50.0989C91.6255 50.4281 91.4341 50.8031 91.346 51.224C91.2579 51.645 91.2731 52.0783 91.3916 52.5239C91.5073 52.9566 91.6938 53.3413 91.951 53.6779C92.2055 54.0015 92.5305 54.2436 92.926 54.404C93.3215 54.5644 93.7588 54.5686 94.2378 54.4164ZM102.907 50.1977C102.446 50.373 102.049 50.468 101.717 50.4826C101.394 50.4817 101.122 50.4303 100.9 50.3283C100.687 50.2108 100.525 50.0427 100.413 49.824C100.301 49.6053 100.229 49.3516 100.196 49.0629C100.164 48.7741 100.2 48.525 100.305 48.3155C100.407 48.0931 100.555 47.9015 100.75 47.7405C100.946 47.5795 101.173 47.4455 101.433 47.3384C101.693 47.2312 101.969 47.1343 102.26 47.0477C102.159 46.5581 102.073 46.1394 102.002 45.7915C101.943 45.441 101.89 45.1162 101.842 44.8173C101.806 44.5157 101.778 44.2127 101.756 43.9084C101.746 43.6015 101.734 43.2482 101.719 42.8484C101.714 42.4332 101.831 42.1204 102.07 41.9102C102.306 41.6871 102.607 41.5179 102.973 41.4024C103.364 41.2817 103.744 41.2371 104.113 41.2687C104.495 41.2976 104.796 41.4844 105.014 41.8289C105.167 42.0525 105.284 42.324 105.363 42.6435C105.452 42.9474 105.525 43.2681 105.581 43.6058C105.634 43.9305 105.674 44.2579 105.702 44.5879C105.74 44.9024 105.782 45.1756 105.83 45.4075C105.851 45.5106 105.871 45.6072 105.89 45.6974C105.906 45.7747 105.931 45.8636 105.965 45.964C106.171 45.9217 106.358 45.8833 106.525 45.8488C106.703 45.7989 106.878 45.7696 107.051 45.7609C107.365 45.7232 107.653 45.7513 107.914 45.8454C108.172 45.9266 108.395 46.0621 108.582 46.252C108.766 46.429 108.899 46.6502 108.98 46.9154C109.059 47.1678 109.067 47.4347 109.004 47.7162C108.918 48.083 108.755 48.3715 108.517 48.5817C108.275 48.779 107.977 48.9276 107.621 49.0275C107.444 49.0775 107.252 49.1236 107.046 49.166C106.85 49.1928 106.642 49.2287 106.423 49.2737C106.567 50.1036 106.726 50.8431 106.899 51.4922C107.083 52.1258 107.31 52.7708 107.579 53.4271C107.78 53.9497 107.86 54.4033 107.818 54.7879C107.776 55.1725 107.528 55.4988 107.073 55.7669C106.687 55.9805 106.339 56.0855 106.03 56.082C105.72 56.0784 105.442 56.0012 105.197 55.8503C104.964 55.6968 104.754 55.4915 104.566 55.2346C104.392 54.9749 104.235 54.6985 104.094 54.4052C103.796 53.7412 103.54 53.0487 103.325 52.3275C103.119 51.5909 102.98 50.8809 102.907 50.1977ZM117.368 52.3419C116.823 53.0852 116.193 53.6173 115.481 53.9383C114.778 54.2439 114.096 54.3571 113.436 54.278C112.788 54.1963 112.21 53.9324 111.702 53.4863C111.207 53.0375 110.891 52.4174 110.756 51.6262C110.66 51.0954 110.639 50.5692 110.693 50.0479C110.747 49.5265 110.875 49.037 111.076 48.5794C111.277 48.1217 111.555 47.7088 111.909 47.3407C112.261 46.9596 112.7 46.6478 113.228 46.4051C113.433 46.2956 113.652 46.2171 113.884 46.1694C114.126 46.1063 114.361 46.038 114.587 45.9645C114.701 45.9278 114.817 45.904 114.935 45.893C115.064 45.8666 115.186 45.8414 115.302 45.8176C115.326 45.4099 115.264 45.1071 115.116 44.9093C114.98 44.7088 114.797 44.5988 114.564 44.5794C114.342 44.5445 114.098 44.5948 113.83 44.7303C113.563 44.8659 113.308 45.0659 113.067 45.3303C112.903 45.5117 112.732 45.6944 112.555 45.8785C112.376 46.0497 112.182 46.1836 111.973 46.2801C111.778 46.374 111.565 46.4177 111.336 46.4112C111.103 46.3918 110.847 46.29 110.568 46.1057C110.117 45.8089 109.973 45.3685 110.135 44.7847C110.43 43.999 110.832 43.3726 111.34 42.9056C111.846 42.4257 112.387 42.0862 112.964 41.8871C113.551 41.6725 114.136 41.5791 114.719 41.607C115.299 41.622 115.819 41.7301 116.276 41.9315C116.718 42.1226 117.098 42.4005 117.414 42.7651C117.728 43.1169 117.999 43.5179 118.225 43.9681C118.463 44.4028 118.666 44.8712 118.837 45.3733C119.007 45.8754 119.16 46.3608 119.297 46.8296C119.426 47.2597 119.538 47.7066 119.633 48.1705C119.726 48.6214 119.814 49.0865 119.9 49.5659C119.965 49.8209 120.023 50.0708 120.074 50.3156C120.137 50.5577 120.187 50.8025 120.225 51.05C120.244 51.2072 120.256 51.3658 120.262 51.5257C120.268 51.6856 120.253 51.843 120.218 51.998C120.135 52.3106 119.999 52.5667 119.812 52.7663C119.622 52.953 119.407 53.0844 119.168 53.1605C118.939 53.221 118.69 53.2185 118.421 53.1528C118.165 53.0845 117.927 52.9387 117.707 52.7155C117.642 52.6617 117.582 52.6001 117.528 52.5307C117.473 52.4613 117.42 52.3984 117.368 52.3419ZM114.202 50.7568C114.267 50.7435 114.311 50.7278 114.334 50.7097C114.724 50.4548 115.044 50.1474 115.292 49.7876C115.541 49.4277 115.727 49.0269 115.851 48.5851C115.922 48.4093 115.893 48.2676 115.764 48.16C115.631 48.0394 115.472 47.9848 115.287 47.9961C115.062 48.0153 114.837 48.0952 114.611 48.2357C114.382 48.3633 114.174 48.5269 113.987 48.7265C113.812 48.9235 113.663 49.1423 113.537 49.3828C113.423 49.6078 113.367 49.8274 113.371 50.0415C113.359 50.3124 113.427 50.5132 113.575 50.644C113.736 50.7721 113.945 50.8097 114.202 50.7568ZM119.876 40.1041C119.88 39.3379 120.035 38.7554 120.343 38.3566C120.647 37.9448 121.176 37.7086 121.929 37.6478C122.484 37.601 122.889 37.7124 123.146 37.9819C123.4 38.2385 123.525 38.6158 123.52 39.1136C123.494 41.0794 123.648 43.0081 123.983 44.8997C124.331 46.7887 124.816 48.5892 125.436 50.3013C125.554 50.747 125.574 51.1054 125.496 51.3767C125.43 51.6453 125.248 51.8707 124.95 52.0528C124.557 52.2948 124.143 52.4066 123.71 52.3883C123.289 52.3673 122.931 52.1925 122.635 51.8639C122.311 51.5947 122.02 51.1913 121.762 50.6535C121.504 50.1157 121.271 49.5056 121.064 48.8231C120.853 48.1278 120.674 47.3858 120.526 46.5972C120.374 45.7958 120.245 45.0033 120.138 44.2197C120.043 43.4334 119.971 42.6896 119.921 41.9882C119.881 41.2713 119.866 40.6433 119.876 40.1041ZM77.39 73.8315C77.6381 73.9282 77.8874 73.9978 78.1379 74.0403C78.3986 74.0673 78.6516 74.1227 78.8971 74.2066C79.6905 74.4732 80.3206 74.8607 80.7876 75.369C81.2675 75.8746 81.5761 76.4289 81.7135 77.0318C81.8481 77.6218 81.8036 78.2218 81.5798 78.8317C81.3534 79.4288 80.9421 79.943 80.3459 80.3744C79.8191 80.7512 79.2065 81.0046 78.5081 81.1347C77.8253 81.275 77.1718 81.3623 76.5478 81.3966C76.2177 81.4241 75.8849 81.4052 75.5492 81.3399C75.2264 81.272 74.9445 81.1419 74.7036 80.9497C74.4627 80.7575 74.2858 80.4851 74.1731 80.1323C74.0603 79.7794 74.0476 79.3255 74.1349 78.7705C74.1873 78.4374 74.3395 78.198 74.5916 78.0522C74.8565 77.9038 75.1526 77.8094 75.48 77.7689C75.8203 77.7259 76.1607 77.7163 76.5014 77.7403C76.842 77.7643 77.1169 77.7951 77.326 77.8327C77.6049 77.8828 77.8292 77.8636 77.999 77.775C78.1816 77.6837 78.2984 77.5657 78.3492 77.421C78.4 77.2763 78.3774 77.1332 78.2812 76.9919C78.1823 76.8376 77.9986 76.7277 77.73 76.662C77.5595 76.6165 77.4032 76.5748 77.2611 76.5368C77.1164 76.486 76.9666 76.4429 76.8116 76.4076C76.5843 76.3469 76.3661 76.2978 76.1569 76.2602C75.9478 76.2226 75.736 76.1721 75.5215 76.1088C74.8835 75.9445 74.3391 75.6804 73.8884 75.3165C73.4505 74.9499 73.1091 74.5299 72.8641 74.0566C72.632 73.5806 72.503 73.0834 72.477 72.5651C72.4613 72.0312 72.545 71.5239 72.7282 71.0431C72.9243 70.5597 73.2315 70.1273 73.65 69.7459C74.0813 69.3618 74.6216 69.083 75.2707 68.9093C75.5617 68.8226 75.8541 68.7424 76.1477 68.6686C76.4517 68.5793 76.7518 68.5042 77.0481 68.4433C77.2414 68.4036 77.4373 68.3768 77.6358 68.3628C77.8317 68.336 78.0225 68.3169 78.2082 68.3056C78.5719 68.3114 78.8896 68.3872 79.1612 68.5328C79.4457 68.6757 79.6738 68.8705 79.8453 69.1173C80.0271 69.3485 80.1498 69.6187 80.2133 69.9279C80.2769 70.2371 80.2644 70.5686 80.176 70.9225C80.0648 71.3616 79.8707 71.7238 79.5936 72.009C79.3294 72.2916 78.9588 72.4483 78.4817 72.4792C78.3631 72.4901 78.2394 72.5088 78.1106 72.5353C77.992 72.5463 77.8656 72.5521 77.7315 72.5528C77.4814 72.5773 77.265 72.6352 77.0824 72.7265C76.8997 72.8177 76.7816 72.9293 76.7281 73.0611C76.672 73.1801 76.6921 73.3102 76.7882 73.4516C76.8844 73.593 77.085 73.7196 77.39 73.8315ZM84.4226 77.885C83.9896 77.4771 83.6014 76.9929 83.258 76.4324C82.9274 75.8692 82.6417 75.2632 82.401 74.6145C82.1576 73.9528 81.9746 73.2586 81.8521 72.5318C81.7296 71.805 81.6742 71.0779 81.6858 70.3504C81.7026 70.1052 81.7271 69.8652 81.7594 69.6303C81.8046 69.3927 81.8782 69.1628 81.9802 68.9404C82.1178 68.6301 82.3565 68.3864 82.696 68.2092C83.0458 68.0164 83.4051 67.9023 83.7738 67.8669C84.1527 67.8158 84.5088 67.8501 84.8422 67.9696C85.1756 68.089 85.4076 68.3032 85.5382 68.6121C85.6272 68.8489 85.6972 69.1568 85.7482 69.5357C85.8121 69.912 85.8697 70.3231 85.9211 70.7691C85.9853 71.2125 86.0445 71.6636 86.0985 72.1224C86.1654 72.5787 86.245 72.9987 86.3373 73.3826C86.464 73.9339 86.6636 74.3495 86.9359 74.6292C87.2056 74.896 87.4603 75.025 87.7002 75.016C87.9503 74.9914 88.1544 74.8085 88.3125 74.4672C88.4706 74.1258 88.5144 73.62 88.4438 72.9497C88.4083 72.581 88.3353 72.1932 88.2248 71.7862C88.1272 71.3765 88.0194 70.9824 87.9013 70.6039C87.7832 70.2253 87.6704 69.8725 87.5629 69.5455C87.4555 69.2184 87.3792 68.9454 87.3342 68.7264C87.2445 68.3554 87.2596 68.0367 87.3794 67.7704C87.5095 67.4886 87.6979 67.2619 87.9446 67.0903C88.1914 66.9187 88.4745 66.7934 88.7939 66.7144C89.1262 66.6326 89.4459 66.5871 89.7528 66.5777C90.0468 66.571 90.3001 66.66 90.5126 66.8446C90.7224 67.0163 90.9055 67.2539 91.0619 67.5575C91.2183 67.8611 91.3491 68.2034 91.4543 68.5847C91.5595 68.9659 91.6453 69.3511 91.7119 69.7402C91.7784 70.1294 91.8359 70.507 91.8843 70.873C91.9326 71.2391 91.9768 71.5522 92.0169 71.8126C92.1272 72.6761 92.147 73.4912 92.0763 74.2577C92.0184 75.0215 91.8389 75.7164 91.5378 76.3422C91.2011 77.0559 90.7437 77.64 90.1657 78.0945C89.598 78.5335 88.9804 78.8282 88.3131 78.9788C87.6587 79.1267 86.9854 79.1173 86.2932 78.9508C85.6112 78.7686 84.9877 78.4134 84.4226 77.885ZM98.7998 75.8771C98.8498 76.0548 98.8933 76.2339 98.9303 76.4142C98.9803 76.592 99.0302 76.7697 99.0802 76.9474C99.2195 77.429 99.2422 77.8339 99.1485 78.162C99.0677 78.4875 98.913 78.7475 98.6845 78.9422C98.4559 79.1369 98.1832 79.2802 97.8664 79.3721C97.5523 79.477 97.2379 79.5483 96.9234 79.5861C96.6889 79.6208 96.4746 79.591 96.2807 79.4966C96.0893 79.4151 95.9172 79.296 95.7642 79.1395C95.6267 78.9932 95.5045 78.8236 95.3978 78.6307C95.3039 78.4351 95.237 78.2407 95.1973 78.0475C95.0252 77.21 94.8272 76.3443 94.6032 75.4504C94.3792 74.5565 94.1539 73.6561 93.9273 72.7493C93.7007 71.8425 93.4818 70.9409 93.2707 70.0443C93.0698 69.1322 92.8936 68.2419 92.742 67.3734C92.6486 66.7883 92.753 66.2835 93.0551 65.8588C93.3572 65.4342 93.7552 65.0838 94.249 64.8078C94.7531 64.5162 95.3208 64.3056 95.9521 64.1758C96.5834 64.0461 97.2188 63.9692 97.8584 63.9452C98.645 63.9178 99.3755 64.0094 100.05 64.22C100.735 64.415 101.341 64.72 101.869 65.1351C102.408 65.5347 102.86 66.0327 103.224 66.6292C103.601 67.2231 103.881 67.8975 104.063 68.6523C104.295 69.652 104.297 70.578 104.07 71.4305C103.839 72.27 103.461 73.0124 102.936 73.6575C102.421 74.287 101.794 74.7985 101.056 75.1919C100.328 75.5698 99.5758 75.7982 98.7998 75.8771ZM97.7427 72.7911C98.3357 72.7364 98.8351 72.5532 99.241 72.2415C99.647 71.9298 99.9546 71.5644 100.164 71.1454C100.371 70.7136 100.473 70.2629 100.47 69.7934C100.481 69.3213 100.387 68.8975 100.189 68.5219C99.988 68.1335 99.6833 67.8268 99.2746 67.602C98.8658 67.3771 98.3521 67.2947 97.7333 67.3547C97.4703 67.3819 97.2632 67.4849 97.1119 67.6637C96.9607 67.8425 96.9017 68.1433 96.9349 68.5662C97.0461 69.1073 97.1474 69.731 97.2388 70.4373C97.3431 71.141 97.5111 71.9256 97.7427 72.7911ZM110.916 73.3872C110.966 73.5649 111.01 73.744 111.047 73.9243C111.097 74.1021 111.146 74.2798 111.196 74.4575C111.336 74.9391 111.358 75.344 111.265 75.6721C111.184 75.9976 111.029 76.2576 110.801 76.4523C110.572 76.647 110.299 76.7903 109.983 76.8822C109.669 76.9871 109.354 77.0584 109.04 77.0962C108.805 77.1309 108.591 77.1011 108.397 77.0067C108.206 76.9252 108.033 76.8061 107.88 76.6496C107.743 76.5033 107.621 76.3337 107.514 76.1408C107.42 75.9452 107.353 75.7508 107.314 75.5576C107.141 74.7201 106.943 73.8544 106.719 72.9605C106.495 72.0666 106.27 71.1662 106.044 70.2594C105.817 69.3526 105.598 68.4509 105.387 67.5544C105.186 66.6423 105.01 65.752 104.858 64.8835C104.765 64.2984 104.869 63.7936 105.171 63.3689C105.474 62.9443 105.871 62.5939 106.365 62.3179C106.869 62.0263 107.437 61.8157 108.068 61.6859C108.7 61.5562 109.335 61.4793 109.975 61.4553C110.761 61.4279 111.492 61.5195 112.166 61.73C112.851 61.9251 113.457 62.2301 113.986 62.6452C114.524 63.0448 114.976 63.5428 115.34 64.1393C115.717 64.7332 115.997 65.4076 116.179 66.1624C116.411 67.1621 116.413 68.0881 116.186 68.9406C115.955 69.7801 115.578 70.5225 115.052 71.1675C114.537 71.7971 113.91 72.3086 113.172 72.702C112.444 73.0799 111.692 73.3083 110.916 73.3872ZM109.859 70.3012C110.452 70.2465 110.951 70.0632 111.357 69.7516C111.763 69.4399 112.071 69.0745 112.28 68.6555C112.487 68.2237 112.589 67.773 112.586 67.3035C112.597 66.8314 112.503 66.4076 112.305 66.032C112.104 65.6435 111.8 65.3369 111.391 65.1121C110.982 64.8872 110.468 64.8048 109.85 64.8648C109.587 64.892 109.379 64.995 109.228 65.1738C109.077 65.3526 109.018 65.6534 109.051 66.0763C109.162 66.6174 109.264 67.2411 109.355 67.9474C109.459 68.6511 109.627 69.4357 109.859 70.3012ZM116.831 60.1269C116.835 59.3608 116.99 58.7782 117.298 58.3794C117.602 57.9676 118.131 57.7314 118.884 57.6706C119.439 57.6239 119.844 57.7352 120.101 58.0047C120.355 58.2613 120.48 58.6386 120.474 59.1364C120.449 61.1022 120.603 63.0309 120.938 64.9225C121.286 66.8115 121.77 68.612 122.391 70.3241C122.509 70.7698 122.529 71.1282 122.451 71.3995C122.385 71.6681 122.203 71.8935 121.905 72.0756C121.511 72.3176 121.098 72.4294 120.665 72.4111C120.244 72.3901 119.886 72.2153 119.59 71.8867C119.266 71.6175 118.975 71.2141 118.717 70.6763C118.459 70.1385 118.226 69.5284 118.018 68.8459C117.808 68.1506 117.629 67.4086 117.48 66.6201C117.329 65.8186 117.2 65.0261 117.093 64.2425C116.998 63.4562 116.926 62.7124 116.876 62.011C116.836 61.2941 116.821 60.6661 116.831 60.1269ZM128.513 65.0578C128.423 64.1631 128.238 63.2948 127.958 62.4528C127.69 61.6081 127.445 60.8059 127.221 60.0461C127.15 59.7653 127.182 59.4968 127.318 59.2408C127.453 58.9847 127.643 58.7644 127.887 58.58C128.131 58.3955 128.412 58.2573 128.728 58.1654C129.058 58.0708 129.382 58.0446 129.699 58.0867C130.027 58.1134 130.323 58.2137 130.587 58.3877C130.851 58.5617 131.053 58.8289 131.195 59.1893C131.223 59.264 131.244 59.3335 131.258 59.3979C131.281 59.4468 131.299 59.5035 131.313 59.5679C131.5 60.4156 131.68 61.2581 131.852 62.0956C132.024 62.933 132.165 63.75 132.275 64.5465C132.385 65.343 132.444 66.1165 132.45 66.8672C132.47 67.6151 132.42 68.3235 132.303 68.9922C132.157 69.7875 131.948 70.4683 131.675 71.0346C131.418 71.6112 131.076 72.1044 130.65 72.5143C130.237 72.9214 129.728 73.2543 129.123 73.5129C128.518 73.7715 127.796 73.9803 126.955 74.1396C126.582 74.2163 126.22 74.2505 125.869 74.242C125.518 74.2336 125.203 74.1707 124.924 74.0536C124.644 73.9364 124.407 73.7635 124.213 73.535C124.021 73.3193 123.889 73.0375 123.818 72.6897C123.767 72.4449 123.736 72.1961 123.725 71.9434C123.728 71.7009 123.784 71.4813 123.891 71.2847C123.996 71.0752 124.168 70.8989 124.407 70.7558C124.644 70.5997 124.969 70.4858 125.384 70.414C125.789 70.3577 126.196 70.2807 126.606 70.1831C127.026 70.07 127.399 69.9261 127.725 69.7515C128.052 69.577 128.302 69.3577 128.477 69.0937C128.661 68.8141 128.712 68.4746 128.63 68.0752C128.023 68.388 127.46 68.5909 126.942 68.6839C126.437 68.7743 125.969 68.7832 125.538 68.7107C125.119 68.6355 124.739 68.4853 124.398 68.2601C124.053 68.022 123.745 67.7296 123.472 67.3828C123.218 67.0591 122.978 66.6115 122.753 66.0401C122.539 65.4531 122.352 64.8401 122.194 64.2012C122.049 63.5597 121.947 62.936 121.89 62.3301C121.833 61.7242 121.839 61.2327 121.909 60.8558C121.985 60.5045 122.181 60.2159 122.497 59.9898C122.826 59.7611 123.186 59.6199 123.578 59.5662C123.98 59.497 124.368 59.5246 124.743 59.649C125.115 59.7606 125.387 59.9732 125.559 60.287C125.726 60.6421 125.852 60.9923 125.936 61.3375C126.02 61.6827 126.092 62.0306 126.15 62.3811C126.206 62.7187 126.262 63.0563 126.318 63.394C126.387 63.7289 126.475 64.0599 126.583 64.387C126.753 64.822 126.98 65.0775 127.264 65.1534C127.561 65.2266 127.977 65.1947 128.513 65.0578ZM133.233 62.9598C133.18 62.568 133.256 62.2503 133.461 62.0068C133.666 61.7632 133.905 61.6201 134.178 61.5773C134.461 61.5191 134.74 61.5692 135.015 61.7277C135.286 61.8733 135.464 62.1522 135.549 62.5645C135.559 62.9385 135.453 63.2421 135.233 63.4755C135.012 63.7088 134.76 63.8546 134.477 63.9128C134.204 63.9555 133.939 63.9092 133.683 63.7739C133.437 63.623 133.287 63.3516 133.233 62.9598ZM134.207 67.6946C134.153 67.3028 134.229 66.9851 134.434 66.7415C134.639 66.498 134.878 66.3548 135.151 66.3121C135.434 66.2539 135.713 66.304 135.988 66.4625C136.259 66.6081 136.437 66.887 136.522 67.2993C136.532 67.6733 136.426 67.9769 136.206 68.2102C135.985 68.4436 135.733 68.5894 135.45 68.6476C135.177 68.6903 134.912 68.644 134.656 68.5086C134.41 68.3577 134.26 68.0864 134.207 67.6946ZM76.5042 92.377C76.3473 92.4629 76.2033 92.5462 76.0722 92.6269C75.9513 92.692 75.8226 92.752 75.6862 92.8069C75.5111 92.8698 75.3397 92.8849 75.1718 92.8522C75.0142 92.804 74.8731 92.7055 74.7485 92.5565C74.4349 92.2718 74.3596 91.9382 74.5227 91.5555C74.5966 91.3926 74.6783 91.2349 74.7678 91.0822C74.8546 90.9166 74.9415 90.7511 75.0283 90.5855C75.2482 90.2181 75.463 89.8584 75.6726 89.5065C75.8925 89.139 76.1047 88.7664 76.309 88.3887C76.4342 88.1482 76.6047 87.9654 76.8208 87.8405C77.047 87.7 77.2801 87.6252 77.5199 87.6162C77.77 87.5917 78.0127 87.6291 78.248 87.7285C78.4832 87.8278 78.6853 87.9944 78.8542 88.2283C78.9712 88.4056 79.0729 88.6063 79.1592 88.8303C79.2557 89.0387 79.3265 89.2524 79.3715 89.4714C79.4453 89.7651 79.4946 90.0705 79.5195 90.3877C79.5573 90.7022 79.5938 91.0103 79.6289 91.3119C79.762 92.0902 79.9015 92.8672 80.0475 93.6429C80.1935 94.4185 80.3266 95.1969 80.4468 95.9778C80.5322 96.5242 80.6047 97.0733 80.6644 97.625C80.7241 98.1767 80.7902 98.7271 80.8627 99.2762C80.8581 99.3845 80.8522 99.4865 80.845 99.5819C80.8378 99.6774 80.8319 99.7793 80.8273 99.8877C80.7366 100.296 80.5436 100.631 80.2483 100.893C79.9633 101.139 79.6338 101.268 79.2598 101.277C78.8729 101.29 78.5202 101.174 78.2016 100.931C77.8831 100.687 77.6892 100.365 77.62 99.9627C77.519 99.406 77.4336 98.8596 77.3637 98.3235C77.304 97.7717 77.2315 97.2227 77.1461 96.6763C77.0728 95.9931 76.9867 95.3125 76.8876 94.6346C76.8015 93.9541 76.7089 93.2749 76.6099 92.597C76.6019 92.5583 76.5889 92.5274 76.5707 92.5043C76.5499 92.4683 76.5277 92.4259 76.5042 92.377ZM89.7259 88.8744C89.8339 88.8119 89.9419 88.7494 90.0499 88.687C90.1681 88.6089 90.2786 88.5258 90.3813 88.4376C90.857 88.1384 91.3549 87.9152 91.8752 87.768C92.3929 87.6079 92.9421 87.5689 93.5229 87.651C94.2458 87.771 94.8652 88.0734 95.3811 88.5582C95.9073 89.0275 96.3255 89.5927 96.636 90.254C96.9594 90.9127 97.1785 91.6196 97.2934 92.3748C97.4057 93.1171 97.4196 93.8058 97.3353 94.4408C97.246 95.1171 97.0491 95.6947 96.7447 96.1735C96.4531 96.6497 96.0786 97.0489 95.6212 97.3712C95.1637 97.6935 94.6402 97.9555 94.0505 98.1573C93.4737 98.3564 92.8555 98.517 92.1958 98.6391C91.3299 98.8036 90.6299 98.8602 90.0956 98.8089C89.5587 98.7446 89.127 98.5715 88.8005 98.2895C88.4714 97.9946 88.2112 97.5781 88.0201 97.0399C87.8418 96.4992 87.6693 95.823 87.5025 95.0113C87.3727 94.38 87.2388 93.6958 87.1008 92.9588C86.9601 92.2089 86.8181 91.4525 86.6748 90.6897C86.5417 89.9114 86.4048 89.1473 86.2642 88.3974C86.1364 87.6449 86.0154 86.9581 85.9012 86.337C85.8429 86.0535 85.9292 85.7874 86.1601 85.5385C86.3883 85.2768 86.6632 85.0793 86.985 84.946C87.3196 84.8101 87.6585 84.7606 88.0018 84.7975C88.3424 84.8215 88.5961 84.9775 88.7627 85.2655C88.8876 85.4816 88.9974 85.7544 89.092 86.0841C89.1969 86.3982 89.285 86.7292 89.3565 87.0771C89.4382 87.4094 89.5057 87.738 89.5591 88.0627C89.6252 88.3848 89.6808 88.6554 89.7259 88.8744ZM94.0189 91.4364C93.7178 91.082 93.3944 90.9135 93.0489 90.9308C92.7033 90.9481 92.3893 91.0865 92.1069 91.3459C91.8374 91.6027 91.6342 91.9533 91.4973 92.3977C91.3732 92.8395 91.3821 93.3076 91.524 93.8021C91.6266 94.1705 91.8072 94.4288 92.066 94.577C92.3247 94.7253 92.5984 94.7831 92.8872 94.7507C93.1888 94.7155 93.4823 94.6082 93.7677 94.4287C94.0504 94.2363 94.2619 93.9915 94.4022 93.6941C94.5554 93.394 94.613 93.0532 94.5748 92.6717C94.5341 92.2772 94.3487 91.8655 94.0189 91.4364ZM98.3459 90.5069C98.3457 89.9833 98.4466 89.5597 98.6487 89.2362C98.8482 88.8998 99.1307 88.6739 99.4964 88.5584C99.8621 88.443 100.184 88.4104 100.463 88.4605C100.752 88.4951 100.995 88.5995 101.192 88.7739C101.399 88.9327 101.558 89.1486 101.668 89.4214C101.79 89.6916 101.864 89.9853 101.889 90.3025C101.907 90.7151 101.959 91.134 102.047 91.5592C102.144 91.9688 102.243 92.3849 102.343 92.8074C102.444 93.2299 102.536 93.6473 102.621 94.0596C102.719 94.4692 102.78 94.8661 102.805 95.2504C102.814 95.4902 102.782 95.6916 102.708 95.8545C102.634 96.0174 102.528 96.1534 102.389 96.2625C102.25 96.3715 102.088 96.4652 101.903 96.5436C101.728 96.6064 101.54 96.6719 101.339 96.7401C100.937 96.8763 100.544 96.8565 100.158 96.6805C99.7731 96.5046 99.5108 96.1758 99.3716 95.6941C99.1377 94.8828 98.9217 94.0275 98.7235 93.1283C98.5226 92.2162 98.3967 91.3424 98.3459 90.5069ZM101.312 85.7281C101.383 86.076 101.36 86.3895 101.243 86.6687C101.126 86.9479 100.947 87.1862 100.705 87.3835C100.474 87.5653 100.206 87.7009 99.9025 87.7902C99.5986 87.8795 99.3007 87.9004 99.009 87.8529C98.7146 87.7926 98.4534 87.665 98.2254 87.4701C97.9947 87.2624 97.8332 86.9666 97.7409 86.5828C97.6668 86.222 97.6883 85.902 97.8055 85.6228C97.9329 85.3281 98.1122 85.0898 98.3434 84.908C98.5848 84.7107 98.8524 84.5752 99.1461 84.5014C99.4526 84.4249 99.7531 84.4169 100.047 84.4773C100.342 84.5376 100.604 84.6717 100.835 84.8794C101.063 85.0742 101.222 85.3571 101.312 85.7281ZM102.503 83.4892C102.507 82.7231 102.662 82.1406 102.97 81.7417C103.275 81.3299 103.803 81.0937 104.556 81.033C105.111 80.9862 105.516 81.0975 105.773 81.367C106.027 81.6236 106.152 82.0009 106.147 82.4988C106.121 84.4645 106.276 86.3932 106.611 88.2848C106.959 90.1738 107.443 91.9743 108.063 93.6865C108.182 94.1321 108.201 94.4905 108.123 94.7618C108.057 95.0304 107.875 95.2558 107.577 95.438C107.184 95.6799 106.77 95.7917 106.337 95.7734C105.916 95.7524 105.558 95.5776 105.262 95.249C104.938 94.9798 104.647 94.5764 104.389 94.0386C104.131 93.5009 103.898 92.8907 103.691 92.2083C103.481 91.5129 103.301 90.7709 103.153 89.9824C103.001 89.1809 102.872 88.3884 102.765 87.6048C102.67 86.8185 102.598 86.0747 102.548 85.3733C102.508 84.6564 102.493 84.0284 102.503 83.4892ZM107.58 82.4459C107.584 81.6798 107.739 81.0973 108.047 80.6984C108.351 80.2867 108.88 80.0504 109.633 79.9897C110.187 79.9429 110.593 80.0543 110.85 80.3238C111.104 80.5804 111.229 80.9576 111.223 81.4555C111.198 83.4212 111.352 85.3499 111.687 87.2415C112.035 89.1305 112.519 90.9311 113.14 92.6432C113.258 93.0888 113.278 93.4473 113.2 93.7185C113.134 93.9871 112.952 94.2125 112.654 94.3947C112.26 94.6367 111.847 94.7485 111.414 94.7301C110.993 94.7091 110.635 94.5343 110.339 94.2057C110.015 93.9366 109.724 93.5331 109.466 92.9954C109.208 92.4576 108.975 91.8475 108.767 91.165C108.557 90.4696 108.378 89.7277 108.229 88.9391C108.078 88.1377 107.949 87.3451 107.842 86.5615C107.747 85.7753 107.675 85.0314 107.625 84.3301C107.585 83.6132 107.57 82.9851 107.58 82.4459ZM113.331 87.4275C113.331 86.9039 113.432 86.4803 113.634 86.1568C113.833 85.8204 114.116 85.5945 114.481 85.479C114.847 85.3636 115.169 85.3309 115.448 85.381C115.737 85.4156 115.98 85.5201 116.177 85.6945C116.384 85.8533 116.543 86.0692 116.653 86.342C116.775 86.6122 116.849 86.9059 116.874 87.223C116.892 87.6357 116.944 88.0546 117.032 88.4797C117.129 88.8894 117.228 89.3055 117.328 89.728C117.429 90.1505 117.521 90.5679 117.606 90.9802C117.703 91.3898 117.765 91.7867 117.79 92.1709C117.799 92.4108 117.767 92.6122 117.693 92.7751C117.619 92.938 117.512 93.074 117.374 93.183C117.235 93.2921 117.073 93.3858 116.888 93.4642C116.713 93.527 116.525 93.5925 116.324 93.6606C115.922 93.7969 115.529 93.777 115.143 93.6011C114.758 93.4251 114.496 93.0963 114.356 92.6147C114.123 91.8034 113.907 90.9481 113.708 90.0489C113.507 89.1368 113.382 88.263 113.331 87.4275ZM116.297 82.6487C116.368 82.9966 116.345 83.3101 116.228 83.5893C116.111 83.8685 115.931 84.1068 115.69 84.3041C115.459 84.4859 115.191 84.6214 114.887 84.7108C114.583 84.8001 114.286 84.821 113.994 84.7735C113.7 84.7132 113.438 84.5856 113.21 84.3907C112.98 84.183 112.818 83.8872 112.726 83.5033C112.652 83.1426 112.673 82.8226 112.79 82.5434C112.918 82.2487 113.097 82.0104 113.328 81.8286C113.57 81.6313 113.837 81.4957 114.131 81.422C114.438 81.3455 114.738 81.3375 115.032 81.3978C115.327 81.4582 115.589 81.5922 115.82 81.8C116.048 81.9948 116.207 82.2777 116.297 82.6487ZM122.7 79.7013C123.702 79.4819 124.64 79.4369 125.512 79.5664C126.382 79.6831 127.146 79.9693 127.804 80.4249C128.472 80.8651 129.015 81.4516 129.434 82.1846C129.866 82.9149 130.137 83.7725 130.245 84.7573C130.345 85.7034 130.282 86.5692 130.054 87.3546C129.826 88.14 129.477 88.8293 129.008 89.4225C128.552 90.013 128.009 90.5073 127.379 90.9053C126.747 91.2904 126.078 91.5622 125.372 91.7207C124.679 91.8766 123.969 91.9216 123.244 91.8558C122.529 91.7744 121.855 91.5639 121.221 91.2242C120.585 90.8716 120.021 90.3831 119.53 89.7589C119.037 89.1218 118.668 88.3383 118.423 87.4083C118.225 86.6432 118.158 85.8581 118.221 85.053C118.294 84.2323 118.505 83.4638 118.855 82.7474C119.215 82.0155 119.715 81.3821 120.358 80.8473C120.997 80.2997 121.778 79.9177 122.7 79.7013ZM124.934 87.9234C125.384 87.7636 125.756 87.5127 126.048 87.1707C126.34 86.8287 126.546 86.4574 126.665 86.0569C126.781 85.6436 126.81 85.2281 126.751 84.8106C126.703 84.3775 126.559 84.0042 126.32 83.6907C126.094 83.3747 125.778 83.1442 125.372 82.9993C124.964 82.8415 124.469 82.8222 123.89 82.9413C123.336 83.0552 122.911 83.2767 122.616 83.6058C122.321 83.935 122.13 84.3101 122.042 84.731C121.954 85.1519 121.969 85.5852 122.087 86.0308C122.203 86.4636 122.39 86.8482 122.647 87.1848C122.901 87.5085 123.226 87.7505 123.622 87.911C124.017 88.0714 124.455 88.0755 124.934 87.9234ZM133.851 78.739C134.301 78.3781 134.809 78.0723 135.375 77.8217C135.954 77.5684 136.544 77.4337 137.145 77.4177C137.759 77.3989 138.351 77.539 138.923 77.8378C139.508 78.1339 140.024 78.6522 140.471 79.3928C140.797 79.9302 141.069 80.5388 141.29 81.2186C141.523 81.8958 141.711 82.5823 141.854 83.278C142.007 83.9582 142.12 84.6064 142.193 85.2225C142.266 85.8386 142.316 86.3452 142.344 86.7423C142.363 86.9667 142.327 87.1822 142.235 87.3891C142.154 87.5804 142.03 87.7603 141.863 87.9289C141.706 88.0819 141.52 88.2209 141.304 88.3459C141.098 88.4553 140.892 88.5312 140.686 88.5735C140.434 88.6523 140.186 88.6897 139.944 88.6858C139.699 88.669 139.474 88.6212 139.27 88.5423C139.063 88.4506 138.89 88.3251 138.749 88.1659C138.607 87.9938 138.511 87.7918 138.464 87.5599C138.399 87.0495 138.328 86.5404 138.251 86.0327C138.186 85.5223 138.115 85.0132 138.037 84.5054C137.992 84.2864 137.949 84.0738 137.906 83.8677C137.877 83.6589 137.84 83.445 137.795 83.2259C137.625 82.4014 137.386 81.8261 137.077 81.5002C136.779 81.1586 136.496 81.0221 136.228 81.0906C135.957 81.1462 135.739 81.3924 135.574 81.8292C135.419 82.2505 135.401 82.8181 135.521 83.532C135.652 84.2975 135.784 85.0423 135.92 85.7664C136.053 86.4776 136.19 87.1811 136.333 87.8769C136.408 88.2376 136.393 88.5898 136.289 88.9334C136.243 89.0368 136.178 89.1442 136.093 89.2556C136.009 89.367 135.916 89.4397 135.816 89.4738C135.463 89.6536 135.101 89.7884 134.731 89.878C134.375 89.9779 133.997 90.0018 133.597 89.9498C133.404 89.9224 133.234 89.8498 133.089 89.7319C132.944 89.614 132.821 89.4715 132.719 89.3044C132.631 89.1346 132.554 88.9557 132.488 88.7678C132.436 88.5772 132.392 88.3981 132.358 88.2306C132.113 86.9112 131.848 85.5557 131.562 84.1643C131.289 82.7702 130.975 81.3712 130.619 79.9672C130.534 79.5549 130.605 79.2115 130.83 78.9368C131.066 78.6467 131.361 78.4452 131.713 78.3324C132.079 78.217 132.457 78.1931 132.847 78.2607C133.247 78.3127 133.567 78.4684 133.809 78.7276C133.827 78.7508 133.844 78.7674 133.859 78.7777C133.885 78.7724 133.882 78.7595 133.851 78.739Z" fill="black"/>
</svg>
