<?xml version="1.0" standalone="no"?>
<!DOCTYPE svg PUBLIC "-//W3C//DTD SVG 1.1//EN" "http://www.w3.org/Graphics/SVG/1.1/DTD/svg11.dtd" >
<svg xmlns="http://www.w3.org/2000/svg" xmlns:xlink="http://www.w3.org/1999/xlink" version="1.1">
<metadata>
Created by FontForge 20170924 at Thu Aug 10 10:22:59 2023
 By www
Copyright (c) 2022 by Khurasan. All rights reserved.
</metadata>
<defs>
<font id="NiceTango" horiz-adv-x="647" >
  <font-face 
    font-family="Nice Tango"
    font-weight="400"
    font-stretch="normal"
    units-per-em="1000"
    panose-1="0 0 0 0 0 0 0 0 0 0"
    ascent="800"
    descent="-200"
    x-height="603"
    cap-height="751"
    bbox="-164.55 -305.043 877.842 893.741"
    underline-thickness="50"
    underline-position="-100"
    unicode-range="U+0020-2122"
  />
    <missing-glyph />
    <glyph glyph-name="space" unicode=" " horiz-adv-x="296" 
 />
    <glyph glyph-name="asciitilde" unicode="~" horiz-adv-x="525" 
d="M196 407q23 1 41.5 -7t34.5 -22t30 -27.5t29 -27.5q18 -15 27 -13.5t22 21.5q5 8 9 16.5t10 16.5q10 15 19 24q11 8 22 11t24 -4q12 -5 17 -16t5 -23q0 -22 -9.5 -45.5t-25 -43t-36 -33.5t-42.5 -18q-25 -5 -47.5 2.5t-42.5 22.5q-13 9 -24.5 20t-23.5 21
q-13 11 -21.5 16.5t-16 5t-15.5 -6.5t-20 -18q-8 -7 -14.5 -14.5t-14.5 -15.5q-5 -5 -10 -9.5t-11 -8.5q-24 -18 -48 -3q-27 16 -21 49q5 22 20.5 46t36.5 43.5t46 31t50 9.5z" />
    <glyph glyph-name="currency" unicode="&#xa4;" horiz-adv-x="578" 
d="M163 138q-5 -5 -11 -12t-13 -14q-6 -6 -12.5 -12t-14.5 -11q-14 -10 -28.5 -10t-25.5 10t-12 24.5t10 29.5q11 14 23 27t26 27q-18 32 -29 65t-13 66.5t6.5 67.5t31.5 69q-10 8 -19 15.5t-17 15.5q-7 8 -13 17t-12 17q-17 28 4 52q10 12 23.5 16t26.5 -3q15 -7 29 -16
t27 -20q8 -5 12.5 -13t6.5 -14q31 10 52 18t45 11t57 -0.5t88 -16.5q13 11 24.5 23t25.5 20q18 13 36 12t31 -15q12 -12 13.5 -29t-9.5 -35q-6 -13 -15 -23.5t-17 -21.5q19 -34 27.5 -67t5 -68.5t-19.5 -75t-45 -86.5q8 -8 16 -15t16 -16q6 -5 12 -11.5t11 -14.5
q8 -13 8.5 -26t-7.5 -22q-18 -21 -49 -8q-13 8 -24.5 16t-24.5 16q-8 5 -15.5 11t-16.5 13q-27 -10 -56.5 -14t-58.5 1q-28 5 -56 13.5t-60 16.5zM310 218q20 -2 38.5 3t34.5 18q17 14 26.5 34t13.5 40q10 36 -9 63.5t-55 32.5q-14 2 -27 3t-25 2q-36 2 -64 -20.5t-33 -57.5
q-7 -43 12 -75t57 -40q8 -2 15.5 -2t15.5 -1z" />
    <glyph glyph-name="grave" unicode="`" horiz-adv-x="254" 
d="M99 744q28 -21 52.5 -45.5t49.5 -50.5q11 -10 10 -22.5t-9 -21.5q-16 -19 -41 -8q-32 14 -56.5 35.5t-47.5 44.5q-14 17 -13.5 33t8.5 27t21 14t26 -6z" />
    <glyph glyph-name="question" unicode="?" horiz-adv-x="523" 
d="M486 587q10 -38 5.5 -73t-19 -65t-36 -54t-45.5 -39q-20 -11 -40.5 -20t-40.5 -19q-5 -2 -11.5 -4t-12.5 -4q-12 -4 -18.5 -7t-10.5 -8t-5 -12.5t-1 -20.5q0 -29 -11 -48t-28 -28.5t-36.5 -9.5t-35.5 9.5t-26.5 29t-8.5 47.5q3 58 29 102t82 69q20 8 40 17t40 17
q36 15 49.5 32t10.5 32t-19.5 26.5t-40.5 16.5t-52 1t-54 -19q-21 -11 -43 -17.5t-46 -7.5q-51 -5 -74 39q-11 23 -6.5 44t20.5 40q30 37 71 60t86 31.5t90.5 2.5t85 -26t69.5 -53.5t43 -80.5zM160 127q31 0 52 -21t21 -52q-2 -30 -24 -51.5t-51 -19.5q-29 0 -49.5 21
t-20.5 50q-1 32 19.5 52.5t52.5 20.5z" />
    <glyph glyph-name="underscore" unicode="_" horiz-adv-x="378" 
d="M64 18q-20 0 -29.5 11.5t-9.5 25.5t9 26t27 14q22 2 59.5 4t77 2.5t74 0t51.5 -3.5q16 -2 24 -13.5t8 -24.5t-8.5 -25t-23.5 -15q-26 -3 -60 -4t-69.5 -1t-69.5 1t-60 2z" />
    <glyph glyph-name="bracketright" unicode="]" horiz-adv-x="384" 
d="M135 778q-14 0 -31.5 -0.5t-31.5 0.5q-20 2 -32.5 13.5t-13.5 29.5q-2 16 10 30.5t31 16.5q11 3 24 1q72 -4 139 6q21 4 40 2.5t33.5 -12t22.5 -31t6 -54.5q5 -104 5.5 -198t-1 -187t-2 -187.5t3.5 -198.5q1 -15 -0.5 -30.5t-3.5 -31.5q-5 -32 -26.5 -52.5t-52.5 -21.5
h-77t-77 3q-13 0 -25.5 5t-22.5 13q-9 8 -14 20t-5 24t5.5 22.5t16.5 15.5q10 5 22.5 5.5t25 0t24.5 -1.5t23 0q-7 107 -8 205t0 194t0 193.5t-8 205.5z" />
    <glyph glyph-name="backslash" unicode="\" horiz-adv-x="432" 
d="M66 761q16 6 34.5 1.5t32.5 -18.5q27 -32 58.5 -85t63 -117.5t60 -135.5t50.5 -139t35 -128t13 -103q1 -17 -6.5 -28t-20.5 -16q-34 -9 -56 22q-6 8 -11 18.5t-10 21.5q-32 76 -62.5 153t-62 153.5t-66 152t-73.5 149.5q-8 13 -12 28t-2 28.5t10 25t25 17.5z" />
    <glyph glyph-name="bracketleft" unicode="[" horiz-adv-x="384" 
d="M252 778q-7 -108 -8 -205.5t0 -193.5t0 -194t-8 -205q11 -1 24 0t26.5 2t25.5 0t22 -5q11 -5 16 -16t4.5 -23t-6 -24t-14.5 -20q-10 -8 -22.5 -13t-25.5 -5q-43 -3 -77 -3h-77q-31 1 -52.5 21.5t-26.5 52.5q-2 16 -3.5 31.5t-0.5 30.5q4 104 3.5 198.5t-2 187.5t-1 187
t5.5 198q-2 34 6 54.5t22.5 30.5t33.5 12t40 -2q67 -10 139 -6q13 2 24 -1q19 -2 31 -16.5t10 -30.5q-1 -18 -13.5 -29.5t-32.5 -13.5q-14 -1 -31.5 -0.5t-31.5 0.5z" />
    <glyph glyph-name="Z" unicode="Z" horiz-adv-x="610" 
d="M382 559q-22 -3 -53 -4t-63 -1.5t-62 -1t-51 -1.5q-13 -2 -25.5 -1.5t-25.5 2.5q-26 7 -42.5 25.5t-24.5 42.5t-7 49.5t11 46.5t27.5 34.5t43.5 11.5q48 -3 94.5 -6t91.5 -4.5t89 0t88 6.5q39 6 65.5 -3.5t39.5 -28.5t12.5 -44.5t-14.5 -51.5q-29 -57 -70.5 -116.5
t-85.5 -119t-86 -117t-72 -108.5q38 9 75.5 16.5t70.5 10.5t60 1.5t43 -8.5q25 -12 39 -32t17 -43t-4.5 -47.5t-24.5 -45.5q-14 -14 -30.5 -23t-35.5 -7q-84 5 -162.5 5t-157.5 -3q-10 0 -20 -0.5t-20 1.5q-26 2 -47 11t-33 31q-13 25 -12.5 49.5t19.5 46.5q86 110 173 212
t170 215z" />
    <glyph glyph-name="Y" unicode="Y" horiz-adv-x="687" 
d="M336 443q16 29 33.5 66t35 75.5t34.5 73.5t32 59q9 15 24.5 26t34 16.5t38 4.5t37.5 -9q35 -16 47.5 -53.5t-4.5 -81.5q-8 -21 -26 -61t-43.5 -91.5t-56.5 -109.5t-64.5 -115t-68 -108.5t-65.5 -88.5q-18 -22 -34 -33t-30 -15t-26 -2t-24 7q-17 6 -25 17t-10 24t0.5 27
t5.5 27q12 37 26.5 72t21.5 72q4 24 4 38t-4.5 24.5t-13 21t-20.5 28.5q-35 51 -65.5 103t-60.5 106q-14 25 -23.5 50.5t-13.5 52.5q-5 35 13.5 59t57.5 32q45 10 74.5 -3t48.5 -53q14 -31 25.5 -63t22.5 -64q5 -12 12 -30t14.5 -36.5t16.5 -36t19 -28.5z" />
    <glyph glyph-name="X" unicode="X" horiz-adv-x="574" 
d="M285 155q-8 -14 -13.5 -25l-10.5 -21q-12 -25 -28 -50.5t-38 -42.5t-48.5 -21t-59.5 13q-22 12 -27 32t-1 41.5t13.5 43t16.5 37.5q20 38 38.5 74.5t38.5 74.5q8 16 8.5 28.5t-7.5 29.5q-29 51 -55.5 102.5t-53.5 103.5q-15 29 -25.5 57.5t-8.5 61.5q2 38 32 55
q45 26 75.5 15.5t50.5 -48.5q26 -51 47.5 -99t50.5 -90q21 43 40.5 82.5t38.5 77.5q5 10 9.5 20.5t11.5 19.5q19 25 49 35.5t56 0.5q25 -8 42.5 -32t17.5 -55q-1 -16 -5 -32t-11 -30q-28 -56 -57.5 -110t-57.5 -110q-9 -14 -17.5 -29.5t-19.5 -32.5q38 -53 74 -102.5
t71 -103.5q14 -32 7.5 -63t-31.5 -51q-24 -18 -56.5 -17.5t-59.5 23.5q-16 13 -29.5 30t-25 35.5t-22 37t-20.5 34.5z" />
    <glyph glyph-name="W" unicode="W" horiz-adv-x="809" 
d="M281 270q6 36 10.5 71t9.5 54q6 27 11.5 43.5t16 26t28.5 12.5t49 2q37 -2 53 -15.5t24 -40.5q11 -29 20 -68.5t19 -74.5q14 -58 30 -83.5t29 -21.5t20.5 34t4.5 83q-6 75 -14.5 148.5t-17.5 147.5q-2 9 -3 19t-3 19q-9 39 3 66.5t34.5 43t51.5 18.5t54.5 -7t43 -33.5
t17.5 -61.5q1 -93 2 -184t-1 -183q0 -41 -9 -91t-29.5 -94.5t-53.5 -75t-82 -32.5q-40 -2 -70 12t-54 36.5t-43 51t-37 56.5q-13 -29 -29.5 -58.5t-38.5 -53.5t-49.5 -39t-62.5 -15q-31 0 -59.5 12.5t-52 34.5t-39.5 52t-22 66q-13 74 -15.5 155.5t1 155t11 130.5t14.5 83
q5 30 23.5 49.5t42 28t49 7t46 -13t32.5 -32t8 -49.5q-5 -47 -11.5 -99t-12.5 -104.5t-10.5 -104t-5.5 -97.5q-3 -55 4.5 -76.5t19 -16t24 33.5t19.5 73z" />
    <glyph glyph-name="V" unicode="V" horiz-adv-x="607" 
d="M392 618q3 34 7 61.5t15 46.5t32 28t58 7q53 -3 70.5 -34.5t9.5 -71.5q-5 -27 -11 -71.5t-14.5 -98t-21 -113t-29.5 -117.5t-39.5 -110.5t-51.5 -91.5q-64 -89 -164 -39q-47 24 -83 67t-61.5 97.5t-42.5 117t-26 125t-12 121t0 106.5q1 39 20 68t61 31q41 4 70.5 -14
t31.5 -56q5 -117 12.5 -217t33.5 -176q15 -46 26 -68t20 -22t17.5 22t19.5 64q9 37 17.5 80.5t15.5 88.5t12 88t7 81z" />
    <glyph glyph-name="U" unicode="U" horiz-adv-x="696" 
d="M39 577q1 25 3 49t4 50q7 28 25.5 46t42 26t48.5 6.5t46 -13t34.5 -31.5t13.5 -49q1 -35 -1 -70.5t-2 -71.5q0 -20 -1.5 -47.5t-3 -56.5t-2 -56.5t0.5 -45.5q3 -62 26 -94.5t53.5 -41t62.5 5t54 44.5q13 19 19.5 39.5t8 41.5t0.5 42t-2 41q-1 32 -1.5 66.5t-1.5 68.5
t-1.5 66t-0.5 58q0 20 2 38.5t16 33.5q20 22 50 29t59 -0.5t51 -27t25 -49.5q1 -8 0.5 -15.5t-0.5 -15.5q-3 -49 -3.5 -105t-2 -112t-5 -110t-12.5 -99q-11 -57 -34 -98.5t-61 -69t-93.5 -40.5t-131.5 -13q-81 0 -135 26.5t-87 70.5t-48.5 102t-20 122.5t-1.5 131t7 128.5z
" />
    <glyph glyph-name="T" unicode="T" horiz-adv-x="648" 
d="M404 574q-4 -123 -5 -243.5t7 -241.5q0 -9 -0.5 -19.5t-3.5 -20.5q-11 -29 -38 -42t-56 -11t-53 18.5t-28 46.5q-2 8 -1.5 16t0.5 16q2 132 4 247.5t2 230.5q-11 1 -31 0.5t-41.5 -1.5t-41 -1t-28.5 2q-28 7 -43.5 26t-19.5 42.5t2.5 47t23.5 38.5q25 22 71 25
q106 9 211.5 11.5t193.5 2.5q40 0 68.5 -23.5t33.5 -58.5q7 -45 -19.5 -77.5t-71.5 -36.5q-36 1 -70 2.5t-66 3.5z" />
    <glyph glyph-name="S" unicode="S" horiz-adv-x="524" 
d="M80 4q-48 25 -57 73q-2 20 2 36.5t12 33.5q14 25 34 34.5t51 4.5q11 -2 21.5 -4t21.5 -4q12 -2 28.5 -5t33.5 -5t33 -1.5t26 6.5q27 16 24 36.5t-20.5 40.5t-41 37t-38.5 25q-92 51 -134 110t-43.5 115.5t32 105.5t90.5 79t133.5 36.5t160.5 -22.5q20 -7 33 -24.5t18 -39
t2.5 -44.5t-14.5 -40.5t-33.5 -26t-52.5 -1.5q-20 4 -42 8.5t-43 6.5t-39 0.5t-28.5 -8.5t-11 -21.5t12.5 -38.5q8 -12 20 -23.5t24 -22.5q32 -31 59.5 -51t51.5 -40q54 -43 78 -97.5t17 -118.5q-4 -45 -27 -78t-58.5 -55t-80 -33.5t-90 -13t-89 6t-76.5 23.5z" />
    <glyph glyph-name="R" unicode="R" horiz-adv-x="614" 
d="M413 223q1 -14 11 -28t25 -26t33.5 -19.5t36.5 -7.5q32 -2 43.5 -22t9.5 -47t-18.5 -44.5t-43.5 -24.5q-47 -10 -86 9.5t-73 52.5t-64.5 71t-60.5 65q-4 -6 -6 -27t-2.5 -46t-0.5 -47t-1 -29q-2 -21 -11.5 -32.5t-24 -16.5t-31 -6.5t-32.5 -1.5t-31 4t-27 13.5t-19 25
t-7 36.5q0 65 0.5 132t1.5 133t1.5 128t0.5 116q0 20 1 41t6.5 40t17 34t32.5 23q38 14 91 21t108 5.5t105.5 -12.5t83.5 -33q40 -27 65.5 -68.5t36 -89.5t5 -98.5t-26.5 -95t-58 -78.5t-91 -50zM221 359q50 -11 91.5 -2.5t67 32t31 59.5t-15.5 80q-12 24 -33 37.5t-46 19
t-49.5 3.5t-43.5 -9q0 -51 -1 -109t-1 -111z" />
    <glyph glyph-name="Q" unicode="Q" horiz-adv-x="738" 
d="M601 117q10 -14 20.5 -26.5t18.5 -25.5q11 -21 7.5 -43t-16 -39.5t-33 -28t-42.5 -8.5q-14 4 -25.5 13t-21 20.5t-17 24t-13.5 23.5q-51 -20 -100.5 -26.5t-95.5 -0.5q-68 9 -116.5 40t-79.5 76.5t-46.5 102t-16.5 116.5t10 119t33 109q31 70 86.5 113t122 59.5t137 8
t130.5 -41t102.5 -87.5t54.5 -131q16 -99 -3 -187.5t-85 -164.5q-2 -2 -4.5 -6t-6.5 -9zM479 269q22 42 29.5 91t-3 90.5t-41 70t-85.5 30.5q-34 1 -66.5 -12t-55.5 -40q-17 -20 -28 -55.5t-14.5 -77t1 -83t19.5 -71.5q9 -19 25 -32t36 -18t43 -2t47 17q-18 20 -26.5 41.5
t-8.5 41t7.5 35t21.5 23.5q11 7 21.5 11t21.5 -2q20 -8 32.5 -25.5t23.5 -32.5z" />
    <glyph glyph-name="P" unicode="P" horiz-adv-x="612" 
d="M220 148q0 -21 1 -41t-1 -39q-3 -35 -23.5 -53.5t-55.5 -19.5q-54 -2 -78.5 20t-24.5 61q1 43 1 92.5t-1 100t-2.5 100t-4.5 91.5l-4 64t-4 65q0 11 -1 26.5t-0.5 31t3.5 29.5t11 23q14 17 31 26.5t36 14.5q78 22 162.5 17t157.5 -48q59 -35 102.5 -89.5t58.5 -123.5
q8 -40 5 -80t-15 -76.5t-33.5 -68.5t-49.5 -56q-29 -24 -62 -37.5t-68 -20t-71 -8t-70 -1.5zM215 324q31 -7 68.5 -1.5t67.5 23.5t44 48t-1 72q-14 38 -38 61t-56 37q-33 14 -55 6.5t-30 -31.5q-6 -17 -6 -46t1.5 -61t3.5 -61.5t1 -46.5z" />
    <glyph glyph-name="O" unicode="O" horiz-adv-x="740" 
d="M341 3q-82 4 -142 36.5t-98.5 83t-56 114.5t-14.5 131.5t25.5 132.5t64.5 118t103 88t140 43q95 9 161.5 -22t107.5 -87t56.5 -129.5t8.5 -149t-36 -145.5t-77 -119q-47 -47 -107 -73.5t-136 -21.5zM375 187q30 5 56.5 20.5t46 40t31 56t13.5 69.5q2 53 -10 91.5
t-33 63.5t-49 37t-57 12q-54 0 -90 -32t-53.5 -79.5t-17 -101.5t18.5 -97.5t54 -67.5t90 -12z" />
    <glyph glyph-name="N" unicode="N" horiz-adv-x="595" 
d="M229 228v-35.5v-14v-14.5t1 -36q-1 -7 -0.5 -15t0.5 -16q1 -29 -11.5 -51.5t-32.5 -35t-46 -13.5t-52 14q-19 10 -26.5 30.5t-11.5 40.5q-2 11 -2 21v20q-2 63 -4 135t-2.5 145.5t1.5 145t8 133.5q2 21 10 34t19.5 20.5t25.5 10.5t28 5t32.5 -6t34.5 -43q18 -39 34 -90.5
t35 -109t42 -118t55 -118.5q-3 35 -6.5 89.5t-6.5 113t-4.5 113t1.5 89.5q1 21 12 36.5t28 26t37.5 15t40.5 2.5q42 -5 64 -32t22 -68q-2 -84 -1.5 -165.5t0.5 -165.5q-1 -24 -1.5 -54.5t-1.5 -62.5t-2 -62.5t-2 -54.5q-1 -16 -4.5 -32t-12.5 -30q-8 -13 -23.5 -19.5
t-33.5 -6t-34.5 7t-26.5 20.5q-11 16 -29 49t-38.5 70t-41 71t-37 51t-27 10.5t-10.5 -50.5z" />
    <glyph glyph-name="M" unicode="M" horiz-adv-x="795" 
d="M242 440q-2 0 -3 -0.5t-3 -0.5q-1 -7 -1.5 -13t-0.5 -12v-79t1 -79q2 -41 4.5 -93.5t2.5 -94.5q0 -32 -26 -51t-60 -23t-65.5 8t-43.5 42q-5 12 -5 25.5t1 26.5q1 80 1.5 170.5t4.5 171.5q2 57 5.5 114.5t8.5 115.5q1 14 5 29.5t10 29.5q24 50 80 45q23 -2 39.5 -13.5
t27.5 -30.5l108 -183q17 -27 33 -55.5t35 -60.5q23 41 43.5 79.5t41.5 75.5t42.5 73t44.5 73q16 24 41 32.5t51 0.5q28 -6 46 -26.5t20 -49.5q4 -26 5 -52l2 -52q2 -57 4.5 -117t6 -121t8.5 -121.5t14 -116.5q7 -36 -6 -59t-48 -37q-12 -5 -25 -7.5t-25 -3.5q-75 -5 -95 70
q-3 17 -5 33t-3 33q-2 30 -3 63.5t-1.5 68t-1.5 68.5t-2 64q-1 5 -2 11t-3 16q-7 -8 -10 -13.5t-7 -10.5q-19 -26 -37 -52.5t-37 -52.5q-11 -15 -26 -23.5t-31.5 -9t-32 6.5t-27.5 24q-38 51 -72 99q-8 11 -14.5 22.5t-14.5 22.5z" />
    <glyph glyph-name="L" unicode="L" horiz-adv-x="492" 
d="M221 152q19 1 45 5.5t53.5 7.5t54.5 3t47.5 -7.5t32 -25t8.5 -49.5q-3 -33 -26 -57.5t-58 -26.5q-48 -4 -95.5 -4.5t-95.5 -1.5h-27t-25 2q-37 6 -58 21.5t-31.5 38t-11.5 51t3 59.5q13 101 16.5 202t-6.5 204q-6 49 -3 96q2 38 19 58t54 25q14 3 29 5t29 2
q25 0 49.5 -19.5t32.5 -47.5q10 -33 10 -68q-1 -40 -2.5 -79t-4.5 -78q-2 -38 -8.5 -80.5t-13.5 -84t-12 -80.5t-5 -71z" />
    <glyph glyph-name="K" unicode="K" horiz-adv-x="517" 
d="M309 373q72 -15 109.5 -45.5t54 -70t18 -85.5t2.5 -91q0 -21 -7.5 -36.5t-20.5 -26t-30 -15t-34 -3.5q-15 1 -29 3t-24 8.5t-16.5 17.5t-6.5 30q-1 16 -1.5 39t-1.5 46.5t-3.5 46t-7.5 37.5q-7 21 -25 32.5t-37 13.5t-34 -4.5t-15 -21.5q-2 -38 -4.5 -82t-4.5 -83
q-2 -40 -27 -61.5t-66 -16.5q-13 1 -26 6t-23.5 13.5t-16.5 20t-5 26.5q3 58 7 121.5t6.5 129t3 131.5t-3.5 130q-1 17 -3.5 35t-5.5 35q-3 24 3 41.5t20 29.5t34.5 17t45.5 3q43 -3 65 -17.5t22 -53.5q-1 -20 -1 -47.5v-57t-0.5 -57.5t-1.5 -49q16 18 33.5 43.5t35 55.5
t34 62t29.5 63q11 26 27.5 38.5t34.5 14.5t34.5 -5t29 -20.5t18.5 -31.5t1 -38q-8 -33 -28.5 -71.5t-47.5 -76t-56 -70t-54 -53.5z" />
    <glyph glyph-name="I" unicode="I" horiz-adv-x="238" 
d="M39 676q3 27 17.5 44t34.5 24.5t42 6.5t40.5 -11t31 -28t12.5 -44q0 -34 -2.5 -66.5t-5.5 -65.5q-4 -42 -6.5 -90t-3.5 -97.5t-1 -98t1 -91.5q2 -39 0 -80q-2 -32 -23.5 -55t-52.5 -27q-30 -5 -57 10.5t-38 44.5q-6 16 -6 34q0 78 0.5 162t2.5 163.5t5.5 148.5t8.5 116z
" />
    <glyph glyph-name="J" unicode="J" horiz-adv-x="584" 
d="M340 558q-30 -2 -53 -3t-44.5 0t-44.5 4t-51 9q-33 8 -48.5 27.5t-17.5 50.5q-2 32 13.5 56.5t46.5 35.5q20 10 39 10l126 2t126 -1q51 -2 78 -29t29 -78q1 -52 7 -116t7.5 -131.5t-5.5 -133.5t-30.5 -120t-67.5 -91.5t-118 -48.5q-31 -5 -61 -4t-60 10q-64 17 -105 59
t-62 104q-13 38 -15.5 77t-1.5 78q1 26 14.5 45t34 29.5t44 12.5t44 -6.5t34 -28.5t13.5 -52q-1 -52 9 -84t26 -47.5t35 -14.5t37.5 15t33 41t20.5 65t5.5 79t-6 77.5t-14 63.5t-17.5 38z" />
    <glyph glyph-name="H" unicode="H" horiz-adv-x="656" 
d="M226 453h222q5 67 9 123.5t10 116.5q5 30 21 45t47 17q27 3 56 0q38 -3 45 -40q3 -14 3.5 -27.5t-1.5 -27.5q-11 -137 -15.5 -273t-4.5 -274q0 -14 0.5 -27.5t-1.5 -27.5q-1 -32 -24.5 -46t-58.5 -18q-14 -1 -31 0t-32.5 6t-26 16t-10.5 30q0 18 0.5 46t1 58t1 58t0.5 47
q1 5 1 8.5t1 8.5q-9 3 -37.5 4.5t-63 1t-67 -3t-50.5 -6.5q-2 -17 -3.5 -44t-3 -55.5t-2.5 -55.5t-1 -45q1 -22 -5.5 -35t-18.5 -20.5t-28 -10.5t-33 -5q-32 -4 -59.5 10t-32.5 50q-2 11 -2 22.5v22.5q0 32 0.5 69.5t1 75.5t1 75.5t1.5 69.5q1 33 0.5 69.5t-1.5 73.5
t-1 73.5t2 69.5q1 29 19 47.5t43.5 26t55 3.5t54.5 -20q8 -6 11.5 -14t4.5 -17.5t1 -19.5v-19q2 -23 1.5 -45.5t-0.5 -45.5v-121z" />
    <glyph glyph-name="G" unicode="G" 
d="M413 307q-15 1 -31 -3t-31.5 -7.5t-29.5 -3t-25 11.5q-25 25 -25 58t26 58q15 14 32.5 23t37.5 11q33 2 65.5 4.5t64.5 0.5q55 -2 82.5 -29.5t33.5 -81.5q6 -50 7.5 -99.5t-6.5 -99.5q-9 -46 -37.5 -77.5t-69 -51t-88.5 -27.5t-95.5 -6.5t-90 11t-71.5 24.5
q-54 28 -85.5 81t-44.5 118t-8 136.5t24 137t52 119t76 82.5q30 20 64 34t72 20q25 4 58.5 2.5t68.5 -9t67.5 -21t55.5 -33.5t32.5 -46.5t-1.5 -60.5q-13 -37 -42.5 -51.5t-66.5 -1.5q-30 10 -53 29q-23 18 -57 18t-67.5 -14.5t-61.5 -42.5t-39 -67q-12 -44 -13 -96t19 -106
q8 -23 25.5 -37t38.5 -21t43.5 -6.5t41.5 8.5q10 4 24.5 12.5t24.5 22t12.5 32.5t-9.5 45z" />
    <glyph glyph-name="F" unicode="F" horiz-adv-x="631" 
d="M284 393h72.5t69.5 -1q29 0 46.5 -8t26.5 -21t11 -29.5t1 -33.5q-2 -27 -11 -43t-22 -24.5t-29.5 -10.5t-33.5 -1q-36 3 -71 5.5t-70 2.5q0 -4 0.5 -16.5t0.5 -26.5t0.5 -26.5t0.5 -15.5v-54.5t-7.5 -47.5t-27 -33.5t-58.5 -12.5q-33 0 -53 14.5t-28 47.5q-5 19 -6 39.5
t-2 40.5q-1 18 -1 29.5v22v23v31.5q-29 -3 -44 5.5t-22 22.5q-6 13 -8.5 29.5t-0.5 32t10 27.5t23 17q11 3 23 5t26 5q1 8 1 17t1 19q2 25 0.5 53.5t-4 57.5t-3.5 57.5t2 54.5q4 29 17 48t33.5 30t46.5 16t56 7q67 3 134 4t135 2q41 0 67.5 -27t25.5 -65q0 -37 -27 -62.5
t-66 -25.5q-91 -1 -182 0q-16 0 -26 -2t-15.5 -7t-8 -14.5t-2.5 -25.5q-2 -32 -1.5 -65t0.5 -67z" />
    <glyph glyph-name="E" unicode="E" horiz-adv-x="549" 
d="M208 459q64 0 94.5 0.5t43.5 1.5q40 2 58 -20t18 -49.5t-17 -50.5t-48 -23q-29 -2 -58 -2h-58h-42q-2 -17 -4.5 -40t0.5 -43t14.5 -34t37.5 -13q22 0 59.5 2.5t76.5 1.5t72 -8t47 -25q12 -17 16 -39t-2 -43.5t-22 -40t-42 -27.5q-21 -8 -33.5 -9t-34.5 -2
q-24 -2 -59.5 -2.5t-73 0t-73 2.5t-59.5 6q-33 6 -52 32t-28 62t-11.5 76t-2.5 73q-1 97 4.5 192t8.5 192q1 38 25 61.5t60.5 36t81.5 17t88 4.5t79.5 -2.5t57.5 -2.5q44 -4 71.5 -30.5t25.5 -68.5q-1 -39 -30.5 -65t-73.5 -24q-21 2 -46 6t-49.5 6t-47.5 -0.5t-39.5 -13.5
t-26 -33.5t-6.5 -60.5z" />
    <glyph glyph-name="D" unicode="D" 
d="M34 628q3 71 64 92q130 43 227 35t162 -57t97.5 -133.5t32.5 -193.5q0 -53 -10.5 -102.5t-36.5 -95.5q-23 -40 -56.5 -69t-73 -49t-82 -32t-84.5 -18.5t-80.5 -8.5t-69.5 -1q-20 -3 -40 9t-31 33q-5 8 -7 17t-5 20q-1 3 -0.5 6.5t0.5 6.5q-8 144 -10 276.5t3 264.5z
M214 175q28 0 61.5 9t64 25.5t53 41t30.5 54.5q16 69 9 123t-34.5 87.5t-73 44.5t-105.5 -5q-5 -44 -5.5 -92t0.5 -97t1.5 -97.5t-1.5 -93.5z" />
    <glyph glyph-name="C" unicode="C" horiz-adv-x="652" 
d="M172 676q66 49 151.5 68t179.5 -3q29 -6 56 -16q41 -14 59.5 -50t5.5 -78q-7 -20 -20.5 -35t-30.5 -23.5t-37 -9.5t-39 8q-57 26 -109 22t-94 -44q-23 -23 -35 -53t-15 -63t1.5 -67t13.5 -66q10 -36 36 -54t58 -22t65 4t57 23q20 13 41.5 15.5t41 -4t35.5 -21t26 -36.5
q9 -21 8 -41.5t-9.5 -39.5t-24 -34t-37.5 -24q-65 -26 -131.5 -33.5t-136.5 10.5q-46 11 -84 32t-68 50q-41 39 -66.5 88.5t-36 103.5t-7 110t21.5 108.5t49 97.5t75 77z" />
    <glyph glyph-name="B" unicode="B" horiz-adv-x="590" 
d="M450 414q48 -19 74 -61t31.5 -92.5t-9.5 -103t-48 -93.5q-20 -24 -42 -37t-46.5 -20t-52 -9t-58.5 -4q-45 -2 -89.5 1t-85.5 21q-24 11 -34.5 32.5t-12.5 50.5q-7 227 -45 454q-8 45 2 80.5t32 61t54 41.5t68 22q34 6 70 8.5t70.5 -0.5t67 -13.5t60.5 -31.5
q40 -30 57 -69.5t14.5 -82t-23 -83.5t-54.5 -72zM370 182q20 24 17.5 44.5t-18 35t-39 23t-46 9t-39.5 -7.5t-18 -26q-4 -40 -2 -68.5t23 -39.5q26 -13 59 -5.5t63 35.5zM212 485q37 -8 81 0q36 6 59 19t33.5 29t9 32.5t-14.5 29.5t-38 19.5t-60 2.5q-20 -2 -36 -12.5
t-26.5 -27.5t-13 -40.5t5.5 -51.5z" />
    <glyph glyph-name="A" unicode="A" 
d="M411 168q-47 -3 -92 -5.5t-93 -6.5v-33v-22q0 -5 -0.5 -8.5t-1.5 -7.5q-11 -48 -33 -67.5t-67 -19.5q-41 -1 -66.5 25.5t-28.5 69.5q-1 28 -1 55t2 54q8 81 15.5 160t18.5 158q5 45 24 85t49 74q45 50 105 70t120 12t112.5 -43.5t82.5 -95.5q26 -54 37 -109.5t13 -113.5
q1 -32 0 -64.5t0 -64.5q2 -38 5 -75t7 -75q3 -27 -5 -51t-30 -42q-13 -11 -32.5 -17t-40.5 -6t-41 6t-33 17q-14 11 -19.5 26.5t-6.5 32.5q0 11 0 10.5v-4v-4.5t0 10v70zM426 314q2 101 -12.5 163t-37.5 89.5t-50 22.5t-48.5 -39.5t-34 -96t-6.5 -145.5q49 2 95 3t94 3z" />
    <glyph glyph-name="braceright" unicode="}" horiz-adv-x="315" 
d="M141 367q-4 5 -6.5 9.5t-6.5 9.5q-26 35 -34 74t-4 81q2 27 4.5 54t4.5 53q3 37 0 70q-2 22 -11.5 39t-32.5 28q-19 8 -25.5 22t-2.5 31q3 17 17 28t33 13q42 3 72 -27q32 -34 44 -78q10 -33 12 -67t1 -68q-1 -23 -2 -45t-1 -45q-1 -28 7.5 -52t29.5 -43q6 -4 10.5 -9
t9.5 -10q60 -66 -11 -117q-30 -22 -29 -56q1 -18 2.5 -35t1.5 -34q4 -44 7 -87t3 -88q0 -18 -4 -37t-12 -36q-7 -17 -19.5 -30t-27.5 -20.5t-31.5 -9t-31.5 3.5q-14 4 -23.5 13t-13.5 20t-1 23t13 22q18 18 21.5 37.5t1.5 42.5q-2 39 -5 78t-5 78q-2 45 7 86.5t38 77.5z" />
    <glyph glyph-name="bar" unicode="|" horiz-adv-x="224" 
d="M57 669q1 20 3.5 35.5t9.5 26.5t21 16.5t38 4.5t36.5 -8.5t18.5 -20t6.5 -28t-0.5 -31.5q-2 -46 -4 -104.5t-4 -123t-4.5 -134t-5.5 -138t-7 -133.5t-9 -121q-3 -29 -22 -42.5t-40 -11.5t-38 20t-17 51q-2 90 -0.5 185.5t4.5 191.5t7 189t7 176z" />
    <glyph glyph-name="braceleft" unicode="{" horiz-adv-x="315" 
d="M181 367q29 -36 38 -77.5t7 -86.5q-2 -39 -5 -78t-5 -78q-2 -23 1.5 -42.5t21.5 -37.5q10 -10 13 -22t-1 -23t-13.5 -20t-23.5 -13q-15 -5 -31.5 -3.5t-31.5 9t-27.5 20.5t-19.5 30q-8 17 -12 36t-4 37q0 45 3 88t7 87q0 17 1.5 34t2.5 35q1 34 -29 56q-71 51 -11 117
q5 5 9.5 10t10.5 9q21 19 29.5 43t7.5 52q0 23 -1 45t-2 45q-1 34 1 68t12 67q12 44 44 78q30 30 72 27q19 -2 33 -13t17 -28q4 -17 -2.5 -31t-25.5 -22q-23 -11 -32.5 -28t-11.5 -39q-3 -33 0 -70q2 -26 4.5 -53t4.5 -54q4 -42 -4 -81t-34 -74q-4 -5 -6.5 -9.5t-6.5 -9.5z
" />
    <glyph glyph-name="z" unicode="z" horiz-adv-x="515" 
d="M260 180h72h38t37 -2q42 -2 60 -29.5t15 -60t-24.5 -59t-57.5 -26.5q-82 -2 -162 -2.5t-161 -2.5q-14 0 -24 6.5t-16.5 17.5t-9 25.5t-1.5 29.5q0 28 9 50.5t26 42.5q23 32 46.5 61t45.5 60q10 13 23 29t27 32.5t27.5 33.5t24.5 31q-27 1 -59.5 -3.5t-63.5 -3.5
t-55.5 13.5t-35.5 47.5q-10 34 -10.5 57.5t8.5 39t28 26t49 18.5q30 9 70 13.5t81 5t79 -4t64 -13.5q17 -5 29.5 -16.5t20.5 -31.5q12 -32 10.5 -63t-22.5 -60q-53 -71 -98 -135t-90 -127z" />
    <glyph glyph-name="y" unicode="y" horiz-adv-x="552" 
d="M333 280q7 68 -0.5 135t-12.5 127q-1 22 13 39t35 27t46.5 12t49 -5.5t40.5 -24.5t22 -46q1 -6 1.5 -10.5t0.5 -9.5q1 -66 1 -131t-4 -126t-14.5 -117t-29.5 -104q-23 -57 -51.5 -95.5t-66 -62.5t-86.5 -34t-114 -9q-29 0 -55 6t-45 19t-30 32.5t-11 46.5q0 19 3.5 37.5
t14.5 32t31 21t52 6.5q31 -2 63.5 -0.5t59.5 9.5t44.5 25.5t17.5 48.5q-50 -14 -89.5 -13t-70 13t-52.5 34.5t-37 52.5q-14 28 -21.5 74.5t-9 96.5t3.5 96t16 73q11 25 38.5 37t58 10.5t56.5 -16t34 -40.5q7 -29 8 -56t0 -53.5t-1.5 -52.5t2.5 -52q6 -35 26.5 -45t62.5 -8z
" />
    <glyph glyph-name="x" unicode="x" horiz-adv-x="547" 
d="M366 334q15 -23 32 -48.5t34.5 -52t34.5 -52t32 -47.5q17 -27 17.5 -51.5t-10 -43.5t-30 -31.5t-42 -14.5t-46 8t-41.5 35q-21 28 -46.5 68t-47.5 72q-11 -16 -25 -37.5t-29 -44t-30.5 -42t-28.5 -31.5q-24 -21 -49.5 -23.5t-48.5 12.5q-20 15 -24 38t13 52q6 13 16.5 32
t21.5 39t21.5 39t18.5 32q11 19 23.5 37.5t24.5 38.5q-15 19 -31 42t-31.5 46t-29.5 46t-25 42q-25 39 7 74q17 20 38 31.5t48 3.5q20 -6 38.5 -22.5t35 -37t31 -40.5t27.5 -34q27 42 57.5 80.5t64.5 72.5q10 10 23 15t27 5.5t27.5 -3.5t25.5 -12q23 -17 30.5 -42.5
t-4.5 -50.5q-13 -28 -31.5 -53t-39.5 -49.5t-42 -48.5t-37 -49z" />
    <glyph glyph-name="w" unicode="w" horiz-adv-x="866" 
d="M397 65q-3 0 -7 -5q-28 -35 -66 -50t-78 -13q-63 3 -105 29.5t-66.5 68.5t-34.5 95t-8.5 108t11.5 108t25 95q20 58 54.5 74.5t90.5 5.5q43 -8 53 -36.5t2 -69.5q-11 -54 -23.5 -102t-17.5 -91q-8 -59 3.5 -85t29.5 -24t37 29.5t25 76.5q2 22 3.5 43.5t3.5 42.5
q0 17 7 31t18 24.5t25 16.5t29 7q38 2 58 -8t29 -29.5t10.5 -47t1.5 -60.5q0 -60 18.5 -88.5t41.5 -26.5t45 32.5t28 87.5q5 46 -2.5 92.5t-22.5 78.5q-22 45 -4.5 79.5t65.5 43.5q29 8 49 5t33.5 -13.5t22.5 -27t18 -35.5q21 -56 29.5 -120.5t2.5 -127.5t-27.5 -120
t-60.5 -97q-33 -33 -80.5 -50t-97 -17t-95 17t-73.5 53z" />
    <glyph glyph-name="v" unicode="v" horiz-adv-x="627" 
d="M370 312q7 23 13 54t11.5 63t11.5 62.5t12 53.5q4 11 12.5 24t23.5 23t37.5 14t53.5 -3q19 -5 33.5 -19.5t22.5 -38.5q9 -31 4.5 -77.5t-19 -99t-36.5 -107t-48 -102t-53.5 -83.5t-53.5 -52q-45 -26 -96 -22t-99 39q-48 34 -81 87t-53.5 113.5t-30.5 123t-13 115.5
q-3 40 13.5 72t56.5 44q47 15 74.5 -1.5t38.5 -46.5q8 -24 13 -55.5t9.5 -65t9.5 -65t14 -55.5q19 -57 34 -81.5t29 -22t27.5 30.5t28.5 78z" />
    <glyph glyph-name="u" unicode="u" horiz-adv-x="571" 
d="M101 93q-26 37 -42.5 84t-24.5 99.5t-6 108.5t14 110q5 18 11.5 35t17.5 32q15 21 43.5 29.5t57 6t51.5 -16.5t28 -39q3 -19 1.5 -48t-4 -63t-5 -69t-1.5 -65q1 -43 17 -67.5t34.5 -27t35.5 20.5t22 74q3 28 1.5 60t-4.5 62t-6 56t-3 43q-1 29 12.5 47.5t34.5 27.5
t46.5 10t48.5 -3q22 -4 35 -20.5t20 -41.5t9 -55t1 -60t-3 -58t-3 -48q-5 -66 -21.5 -122t-48.5 -98q-36 -48 -85.5 -72.5t-101 -25.5t-100 22.5t-82.5 71.5z" />
    <glyph glyph-name="t" unicode="t" horiz-adv-x="496" 
d="M143 316q-37 -6 -61.5 -1.5t-39 16t-19.5 29.5t-3 40t13 36.5t28 23.5t38 13t44 6q0 38 0.5 65t2 50t5 46t8.5 53q6 31 27 43.5t50 15.5q31 3 58.5 -5t38.5 -37q8 -19 9.5 -43.5t0.5 -50t-3.5 -50t-2.5 -42.5v-14.5t1 -14.5q16 0 29.5 0.5t26.5 -1.5q24 -2 42 -12.5
t29 -27t13 -37t-7 -40.5q-12 -26 -33 -37.5t-49 -13.5q-14 -1 -29.5 -0.5t-32.5 0.5q-2 -64 1.5 -114.5t13.5 -103.5q7 -42 -2 -70t-47 -41q-32 -10 -55 -5t-38.5 20t-25 37t-15.5 46q-12 54 -16.5 111.5t0.5 109.5z" />
    <glyph glyph-name="s" unicode="s" horiz-adv-x="467" 
d="M260 366q17 -11 35.5 -17.5t35.5 -16.5q55 -32 82.5 -77t28.5 -91.5t-25 -88t-77 -64.5q-45 -20 -98.5 -19.5t-100.5 7.5q-25 3 -48.5 13t-38.5 28t-18 46t12 68q9 24 30.5 31t47 5t50.5 -9t40 -13q20 -8 34.5 -4t20.5 14t1 22.5t-24 21.5q-12 6 -22 11.5t-21 10.5
q-16 8 -31 14t-30 14q-45 22 -72.5 56t-38 73t-4 78.5t28 72.5t59 55t88.5 25q23 2 46.5 3.5t46.5 1.5q15 0 30 -1.5t29 -3.5q27 -6 45.5 -21t28 -35.5t9.5 -44.5t-12 -49q-15 -31 -39.5 -48t-60.5 -12q-9 1 -18.5 1.5t-19.5 2.5q-19 2 -34 -2t-21 -12.5t-1 -20.5t26 -25z
" />
    <glyph glyph-name="r" unicode="r" horiz-adv-x="525" 
d="M209 571q26 11 62 22.5t72.5 16.5t68.5 2t52 -20q18 -17 23.5 -43t3.5 -51q-1 -21 -10 -38.5t-24 -29.5t-35 -17t-42 -1q-34 6 -61.5 0.5t-48 -19.5t-34 -35t-19.5 -46q-6 -27 -6.5 -55.5t1 -57t3.5 -57t-1 -55.5q-3 -42 -22.5 -62.5t-60.5 -22.5q-63 -5 -84 14t-19 58
q8 128 6.5 245t-6.5 226q-3 26 0.5 41.5t13.5 24.5t26 12t36 5q18 1 31 -1t23.5 -7.5t20 -14.5t20.5 -21q3 -3 5 -6t5 -7z" />
    <glyph glyph-name="q" unicode="q" horiz-adv-x="566" 
d="M305 78q-20 2 -39.5 2t-37.5 3q-80 15 -131 65.5t-65 129.5q-19 87 7 156.5t83.5 114.5t139.5 61.5t174 -1.5q22 -5 42.5 -15.5t36 -26t23 -35t3.5 -42.5q-3 -18 -12 -54t-16.5 -75.5t-9 -74.5t9.5 -51q26 -32 30 -60t-29 -54q-15 -12 -19 -33t-4 -44.5t1 -46t-3 -38.5
q-5 -15 -17.5 -27t-29 -19.5t-35 -11t-34.5 -1.5q-37 4 -53 23.5t-20 45.5t-0.5 55.5t5.5 53.5zM349 248q-3 14 1.5 44t5.5 59.5t-6.5 51t-33.5 19.5q-23 -3 -43 -10.5t-35 -20t-23 -31.5t-8 -45q2 -32 15.5 -48.5t34 -23t44.5 -4.5t48 9z" />
    <glyph glyph-name="o" unicode="o" horiz-adv-x="689" 
d="M332 626q78 1 141 -21.5t105.5 -66t63 -104.5t13.5 -136q-7 -72 -36 -127t-72.5 -92t-96.5 -56.5t-107.5 -20.5t-107 15.5t-94.5 52t-69 90t-31 127.5q-3 60 14.5 119.5t55 108t93.5 79t128 32.5zM359 195q36 5 63 26t42 49.5t17.5 61t-10 59.5t-40.5 44.5t-73 17.5
q-43 0 -70 -20t-40 -50t-11 -64.5t16 -63t41 -46.5t65 -14z" />
    <glyph glyph-name="p" unicode="p" horiz-adv-x="627" 
d="M264 46q1 -14 1.5 -28t1.5 -28q3 -38 -8.5 -61t-31.5 -34t-45 -13.5t-49 -0.5q-18 1 -31 10.5t-21.5 23t-13 29.5t-4.5 31q0 65 -3 135t-6 141t-4.5 141.5t0.5 137.5q2 45 31 72t70 40q42 14 91 14t97 -8q59 -10 106.5 -35.5t81 -64t52 -88.5t20.5 -109q2 -78 -28 -137.5
t-78.5 -99t-109 -57t-119.5 -11.5zM243 210q45 -5 80 12t57 45.5t29.5 63.5t-1.5 66.5t-36 54.5t-74 28q-20 2 -34 -9t-18 -43q0 -42 -3.5 -96t0.5 -122z" />
    <glyph glyph-name="n" unicode="n" horiz-adv-x="587" 
d="M206 560q39 20 85.5 30t92 2t84 -39t60.5 -93q16 -45 22.5 -99t7 -107.5t-3.5 -100.5t-8 -77q-2 -17 -11.5 -30.5t-24 -23t-32 -15t-33.5 -5.5q-20 -2 -38 2.5t-32 14t-22 24t-8 32.5q3 39 5.5 78t4.5 78q0 17 0.5 33t0.5 33q0 64 -17.5 93.5t-38.5 29t-39.5 -30
t-20.5 -84.5q-2 -59 -3 -114.5t-1 -109.5q0 -28 -13 -52q-5 -7 -13 -14t-16 -8q-29 -8 -57.5 -9.5t-57.5 8.5q-14 5 -23 16t-13.5 25t-6 29t-1.5 28q2 102 2.5 210t-4.5 218q0 32 21.5 49.5t50 20.5t57 -7.5t42.5 -33.5q1 -2 2.5 -2.5t-0.5 1.5z" />
    <glyph glyph-name="m" unicode="m" horiz-adv-x="910" 
d="M224 561q63 38 121 32t115 -53q50 38 101.5 51.5t99 6t89 -32.5t71.5 -63t45 -86.5t11 -101.5q1 -53 0.5 -105t-2.5 -104q-1 -22 -9.5 -41.5t-22.5 -34t-32.5 -23t-39.5 -8.5q-21 -1 -41 1.5t-36 10.5t-25.5 22t-9.5 36q-1 36 -1.5 66.5t-0.5 58.5v54t-1 52
q-1 44 -16.5 63t-34.5 17.5t-35.5 -22t-19.5 -54.5q-2 -26 -2.5 -51.5t-1.5 -51.5q-1 -22 -0.5 -47t-4.5 -47t-19 -38.5t-42 -20.5q-38 -8 -77 0q-55 10 -55 75q0 48 4.5 92.5t2.5 89.5q-2 40 -19 59t-37 18t-37 -21t-18 -59q-2 -56 -1 -106.5t-2 -100.5q-4 -42 -23 -66.5
t-57 -28.5q-54 -4 -80 7t-36 32.5t-10 51t-1 64.5q0 33 -1.5 82.5t-2 102.5t-0.5 103t2 85q4 45 23 65t49 28q16 4 33.5 4.5t34 -5.5t30.5 -19.5t22 -38.5z" />
    <glyph glyph-name="a" unicode="a" horiz-adv-x="526" 
d="M343 62q-52 -47 -109.5 -59.5t-105 3.5t-78 57t-28.5 102q1 41 13 79t34 69t54 53.5t75 32.5q17 5 35.5 5.5t36.5 2.5q9 1 18.5 0.5t18.5 -0.5q8 30 0.5 47t-24 22.5t-38.5 -0.5t-44 -22q-15 -11 -31 -21.5t-32.5 -14.5t-33.5 0.5t-35 22.5q-29 29 -8 70q34 54 79 81.5
t91.5 34t89.5 -4t74 -32.5q30 -21 48 -52.5t28.5 -68t15.5 -76.5t8 -77q3 -34 3 -69.5t-1 -72.5q1 -20 1.5 -39t-0.5 -38q-1 -12 -3 -24t-7 -23q-11 -22 -28 -33.5t-35.5 -13t-37 7.5t-31.5 29q-4 5 -7 11t-6 11zM202 173q5 0 7 1q33 13 57 36t40 54q8 12 0 22.5t-22 12.5
q-17 2 -36 -4.5t-35.5 -18.5t-29 -27.5t-15.5 -31.5q-5 -20 4.5 -32t29.5 -12z" />
    <glyph glyph-name="b" unicode="b" horiz-adv-x="570" 
d="M197 507q9 3 18.5 6.5t18.5 8.5q40 15 81 18.5t83 -11.5q52 -20 83.5 -63.5t45 -97.5t10.5 -111.5t-19 -103.5q-17 -49 -46.5 -80t-68.5 -48t-85.5 -23t-97.5 -5q-67 1 -106 13.5t-59 39t-25.5 69.5t-5.5 106q0 49 1 106.5t2.5 117t3 117.5t2.5 106q0 22 21 37.5
t47.5 20.5t51.5 -2.5t33 -31.5q6 -18 8.5 -43.5t3 -52t0 -51.5t-0.5 -42zM384 336q-17 31 -43 35t-50.5 -11t-41 -46t-13.5 -70q2 -29 19 -44t39.5 -17t46.5 7.5t39.5 29.5t18.5 49.5t-15 66.5z" />
    <glyph glyph-name="c" unicode="c" horiz-adv-x="563" 
d="M177 564q47 26 100.5 34.5t107.5 -3.5q27 -6 51.5 -18t47.5 -29q20 -16 30.5 -38.5t10 -46t-11.5 -44.5t-34 -33q-23 -13 -49 -16t-54 24q-22 21 -46 21t-46 -13.5t-38.5 -36t-23.5 -44.5q-12 -36 -7 -71t26.5 -57.5t60 -26.5t95.5 24q8 5 16.5 9.5t16.5 7.5
q25 8 47.5 3.5t39.5 -24.5t19 -42.5t-9 -45.5q-7 -11 -16 -22t-20 -18q-42 -28 -84.5 -42t-90.5 -17q-63 -4 -109 6.5t-79 33.5q-42 28 -66 71.5t-32 94.5t-1.5 105t26 102.5t51 88.5t71.5 63z" />
    <glyph glyph-name="d" unicode="d" horiz-adv-x="530" 
d="M314 542q0 20 0.5 40t1.5 40q2 20 6 41q8 40 35 60t69 15q23 -2 40 -9t27.5 -20.5t13.5 -35.5t-3 -54q-12 -63 -14.5 -134.5t-1 -144t5 -142.5t3.5 -131q0 -29 -18.5 -46t-41.5 -19q-26 -2 -49.5 -2.5t-47.5 0t-49.5 1t-55.5 0.5q-64 1 -107 27.5t-67 69t-30.5 95.5
t2.5 106q10 61 33.5 109t58.5 80t82.5 46t106.5 8zM316 222q10 23 15 50t1 51.5t-18 42t-42 21.5q-26 4 -44.5 -11t-29 -39t-12.5 -52.5t4 -53.5q8 -30 24.5 -42.5t35 -12t37 13t29.5 32.5z" />
    <glyph glyph-name="e" unicode="e" horiz-adv-x="517" 
d="M213 265q-1 -32 11.5 -53.5t32 -31.5t43 -7.5t44.5 17.5q5 5 10.5 9t10.5 9q26 20 55 19t51 -22q22 -27 20.5 -54.5t-17.5 -51.5t-41 -43.5t-48 -30.5q-38 -17 -77.5 -20.5t-76.5 4.5q-52 11 -89.5 40t-62 69t-36 87.5t-12 96.5t9.5 96.5t30 86.5q28 54 78.5 89.5
t107.5 44.5q40 6 79.5 -1t72.5 -28t55 -56t28 -84q10 -95 -47.5 -143.5t-166.5 -46.5q-17 1 -32.5 2t-32.5 3zM302 405q21 2 36.5 16.5t11.5 35.5q-4 14 -13.5 18t-20.5 6q-23 3 -44.5 -9t-29.5 -27.5t4 -28.5t56 -11z" />
    <glyph glyph-name="f" unicode="f" horiz-adv-x="559" 
d="M292 311q13 1 31.5 2.5t38 3.5t38 3.5t32.5 2.5q44 4 68 -16.5t17 -74.5q-2 -23 -14.5 -39.5t-32.5 -24.5q-20 -9 -43.5 -11.5t-48 -3t-48.5 0t-45 -0.5q1 -16 2.5 -23.5t2.5 -22.5q2 -29 3.5 -57.5t1.5 -57.5q0 -34 -17.5 -53.5t-58.5 -22.5q-38 -5 -64.5 8t-34.5 51
q-4 19 -4.5 38t-0.5 38q0 15 -0.5 26.5t-1 22.5t-0.5 23v27q-29 -4 -47 2t-28 18.5t-13 29.5t-3 35q1 17 10 27.5t24 16.5q13 5 27 8t29 6q-4 47 -5.5 94t3.5 90.5t19 81.5t40.5 65.5t68 44t102.5 16.5q19 0 38 0.5t38 -1.5q34 -3 55.5 -16t32.5 -31t13 -40t-3 -43
q-4 -16 -10.5 -31t-18.5 -26.5t-30 -19t-44 -7.5q-29 6 -49.5 12.5t-34.5 8t-22.5 -5t-12 -26t-3.5 -55.5t3 -93z" />
    <glyph glyph-name="g" unicode="g" horiz-adv-x="597" 
d="M376 92q-127 -53 -242 2q-30 14 -49.5 35.5t-31.5 48.5t-16.5 58t-3.5 63q2 72 19 132t51.5 104t87.5 70t127 31q38 3 75 -2.5t68.5 -22t55.5 -46t37 -74.5q8 -30 13 -77t6.5 -103t-1 -116.5t-8.5 -115t-15 -99.5t-22 -70q-23 -47 -60.5 -77t-80 -44t-87.5 -12.5
t-83 16.5q-22 9 -43.5 21t-38 27t-26 34.5t-7.5 44.5q2 23 14.5 41t30.5 28t40 11t43 -9q10 -5 18 -10.5t18 -10.5q31 -17 53.5 -8.5t36.5 29.5t19.5 49.5t1.5 51.5zM228 367q-7 -42 3 -70t28.5 -42t42 -13.5t43.5 15.5t32.5 44.5t9.5 73.5q-2 33 -25 48.5t-50.5 14.5
t-52.5 -19t-31 -52z" />
    <glyph glyph-name="h" unicode="h" horiz-adv-x="637" 
d="M234 487q55 26 114 30.5t110 -14t88 -60t48 -106.5q5 -31 9.5 -65t6.5 -68t1.5 -66.5t-4.5 -60.5q-6 -20 -17 -33.5t-26 -22.5t-32 -13.5t-34 -4.5q-19 0 -36.5 4t-31.5 14t-23.5 26.5t-10.5 39.5q-2 28 -1 55.5t0 56.5q0 18 -1 38.5t-6.5 38.5t-17 30.5t-32.5 14.5
q-26 2 -43.5 -7t-29 -24.5t-17.5 -36t-8 -41.5q-2 -29 -2 -56.5t-1 -55.5q0 -10 -0.5 -19.5t-2.5 -18.5q-3 -23 -18.5 -38.5t-38.5 -17.5q-18 -2 -35.5 -2t-34.5 3q-23 4 -37.5 11.5t-22.5 18.5t-10.5 26t-1.5 35q3 68 3.5 139.5t-0.5 142.5t-3.5 139t-5.5 130q-1 18 8 33.5
t24 26.5t33.5 17t36.5 6q27 0 45 -4.5t30 -15t19.5 -27.5t13.5 -42q2 -10 1.5 -30.5t-2 -44t-3 -46t-1.5 -35.5z" />
    <glyph glyph-name="i" unicode="i" horiz-adv-x="250" 
d="M38 338q8 39 28 60.5t49 24.5t49.5 -4.5t33 -23t17 -37.5t1.5 -46q-5 -31 -4.5 -63.5t1.5 -65.5t1.5 -65t-3.5 -61q-3 -18 -11 -29t-20 -17t-26.5 -8.5t-30.5 -4.5q-32 -4 -58 15t-29 57q-5 64 -6 134.5t8 133.5zM234 545q0 -27 -13 -46t-33.5 -29.5t-44.5 -12.5t-45 6.5
t-35 27t-15 48.5q0 28 13.5 47.5t34 30t44 11.5t44.5 -8t35 -27.5t15 -47.5z" />
    <glyph glyph-name="j" unicode="j" horiz-adv-x="269" 
d="M37 314q5 48 26.5 77t69.5 31q31 1 58 -12t31 -40q7 -46 12 -100.5t6 -112.5t-3.5 -117t-17.5 -112.5t-35.5 -100t-56.5 -79.5q-25 -24 -56.5 -37t-65 -15.5t-67 6.5t-61.5 30q-14 10 -23.5 25.5t-14 32.5t-4 34.5t7.5 33.5q21 53 78 53q9 0 20 -3q21 -5 35 -6t24.5 4.5
t18.5 20t17 42.5q5 17 6 35l2 36q1 30 0.5 66t-2.5 73t-3.5 72t-1.5 63zM215 560q-1 -27 -14 -45.5t-32.5 -27.5t-41.5 -9t-40.5 9.5t-30 28.5t-9.5 48q3 28 17 45.5t33.5 25.5t40.5 6.5t38.5 -11.5t28.5 -28t10 -42z" />
    <glyph glyph-name="k" unicode="k" horiz-adv-x="475" 
d="M316 527q10 24 31.5 27.5t43.5 -3.5q21 -6 38 -26.5t17 -43.5q0 -26 -8.5 -49.5t-22.5 -44.5t-31.5 -40t-34.5 -34q17 -13 34.5 -42t32.5 -62.5t26 -66.5t14 -53q2 -12 1 -23.5t-6 -22.5q-11 -24 -37 -33t-48 -10q-28 -2 -40 16t-20 53q-6 28 -14 54t-17 46
q-12 26 -22.5 35.5t-18.5 6.5t-13 -16.5t-6 -34.5q-1 -13 -1 -27v-26v-21.5v-12.5q-4 -33 -17.5 -48t-45.5 -24q-20 -5 -39.5 -5t-39.5 8q-45 22 -45 68v31.5t1 30.5q6 86 9 156.5t3.5 130.5t-0.5 113t-2 104q-1 21 6.5 36.5t20.5 24.5t31 13t38 3q22 -1 38 -11.5t26.5 -26
t15.5 -34t5 -36.5q2 -60 -2 -116.5t-4 -113.5q14 4 28.5 21t28 39.5t25.5 47t21 42.5z" />
    <glyph glyph-name="l" unicode="l" horiz-adv-x="263" 
d="M66 644q12 57 41 82.5t86 18.5q42 -5 57 -28.5t7 -60.5q-32 -146 -35.5 -292t16.5 -283q2 -35 -7.5 -54t-34.5 -28q-33 -12 -64.5 -4t-48.5 37q-20 25 -31 69t-16 98.5t-4 116t5.5 121.5t12 113.5t16.5 93.5z" />
    <glyph glyph-name="exclam" unicode="!" horiz-adv-x="233" 
d="M37 663q0 8 0.5 16.5t4.5 17.5q7 23 28 37t48 13q28 -1 48.5 -17t25.5 -41q3 -16 1 -36q0 -85 -0.5 -167.5t-1.5 -166.5v-60q-1 -9 -3.5 -18t-6.5 -18q-9 -20 -28 -30.5t-41 -9.5q-49 2 -65 40q-8 21 -10 46q-1 102 -1.5 199.5t1.5 194.5zM112 -9q-32 -1 -55 21t-23 55
q0 16 6.5 30.5t17 25.5t25 17.5t30.5 6.5q32 1 54.5 -20t22.5 -51q0 -18 -5.5 -33.5t-16 -27t-25 -18t-31.5 -6.5z" />
    <glyph glyph-name="quotedbl" unicode="&#x22;" horiz-adv-x="298" 
d="M39 592q2 31 4 57l4 52q3 22 16.5 35t33.5 13q19 -1 32.5 -15t12.5 -36q0 -16 -2.5 -46.5t-10.5 -58t-23 -45t-42 -7.5q-22 9 -25 34v17zM163 592q2 31 4 57l4 52q3 22 16.5 35t33.5 13q19 -1 32.5 -15t12.5 -36q0 -16 -2.5 -46.5t-10.5 -58t-23 -45t-42 -7.5
q-22 9 -25 34v17z" />
    <glyph glyph-name="numbersign" unicode="#" horiz-adv-x="643" 
d="M475 193q-2 -20 -3 -37.5t-4 -34.5q-3 -15 -7.5 -31.5t-12.5 -30.5q-10 -18 -26.5 -27t-37.5 -6q-23 4 -36 18t-17 36q-3 17 -2 35t2 35q1 9 2.5 18.5t3.5 20.5h-71q-8 -19 -14 -36.5t-14 -32.5q-16 -29 -45.5 -34.5t-52.5 14.5q-13 10 -19 24t-8 30q-1 10 -0.5 20
t0.5 21l-14 2l-14 2q-6 2 -13.5 2t-13.5 2q-12 3 -20 10t-9 21q-1 13 7 20.5t19 11.5q8 2 14.5 3t13.5 2q11 2 21 2t24 2q3 18 5.5 35t6.5 37q-12 0 -22.5 -0.5t-20.5 0.5q-10 0 -18.5 -0.5t-16.5 1.5q-15 2 -24 11t-10 23q0 27 28 36q17 5 35.5 7.5t36.5 6.5q11 2 17 3t9 4
t4.5 9t3.5 17q5 23 10 45.5t11 45.5q2 8 4.5 15.5t4.5 14.5q10 26 25.5 37.5t35.5 9.5q20 -4 31.5 -19.5t12.5 -44.5q1 -23 -1 -46.5t-4 -47.5q-1 -8 -1.5 -15.5t-2.5 -17.5q23 -6 44.5 -4t44.5 6q5 22 8 44t6 45l4 24t5 23q5 20 18 31.5t30 11.5q17 1 31.5 -9.5t18.5 -30.5
q5 -20 5.5 -40t2.5 -40q1 -10 0.5 -20.5t-0.5 -24.5q11 0 20 0.5t18 -1.5q12 -2 24 -5t23 -8q13 -5 18.5 -17t3.5 -26q-3 -28 -30 -34q-11 -4 -21.5 -5.5t-21.5 -3.5q-12 -2 -23 -2t-24 -1q-2 -17 -2.5 -31.5t-2.5 -31.5h41q8 -2 16.5 -3.5t16.5 -4.5q27 -12 27 -41
q0 -31 -27 -41q-9 -5 -19 -6.5t-20 -2.5q-12 -2 -23.5 -1t-24.5 1zM276 348q-1 -17 -2 -33t-2 -30h80l4 28t4 29q-22 2 -41.5 3t-42.5 3z" />
    <glyph glyph-name="dollar" unicode="$" horiz-adv-x="462" 
d="M152 49q-15 5 -30 9t-30 10q-29 13 -45 32.5t-20 40t4 39t26 30.5q15 10 28.5 11t27.5 -2q4 -1 19 -3.5t33.5 -4t37.5 -1.5t31 4t13.5 13.5t-13.5 26.5q-15 15 -33 28q-23 14 -45 27.5t-43 27.5q-42 28 -63.5 63t-23 71.5t18 72t60.5 65.5q18 14 26 20.5t11 13t4 16.5
t4 31q2 8 2 15.5t2 15.5q2 13 14 21t29 9q14 2 27 -4t21 -17q5 -6 8 -13.5t5 -14.5q2 -8 4 -15t4 -15q10 -1 18.5 -1t16.5 -2q15 -2 29.5 -3.5t29.5 -6.5q29 -8 45 -23.5t20.5 -33.5t0 -36t-15.5 -32.5t-27 -23t-34 -6.5q-12 -2 -26 -1t-26 0q-32 -1 -58.5 -6.5t-39.5 -15
t-8 -24.5t35 -34q23 -16 47.5 -30t49.5 -28q96 -52 108 -139q6 -45 -10 -76t-42 -51.5t-56.5 -30.5t-53.5 -13q-2 -11 -3 -23.5t-3 -24.5q-3 -8 -6 -14.5t-8 -14.5q-9 -9 -21 -13.5t-27 -2.5q-33 2 -38 26q-5 14 -6.5 29t-4.5 32z" />
    <glyph glyph-name="percent" unicode="%" horiz-adv-x="675" 
d="M152 -16q-31 13 -29 44q0 28 8 55q25 92 51.5 183t63.5 179q20 49 39 97t38 97q12 37 42 63q16 13 33.5 18.5t37.5 -2.5q22 -8 31 -24t10 -39q1 -4 1 -9t1 -14q-2 -8 -3.5 -19t-6.5 -22q-55 -130 -109 -257.5t-110 -255.5q-5 -14 -13 -28l-16 -28q-3 -7 -8 -12.5
t-10 -11.5q-22 -23 -51 -14zM636 145q-10 -38 -32.5 -64t-52.5 -38.5t-64.5 -10.5t-67.5 21q-38 22 -54 62.5t-5 89.5q2 13 7.5 24.5t10.5 24.5q11 26 29.5 43t41 26.5t47 12t48.5 -0.5q44 -8 69 -37t29 -77q2 -20 0 -38.5t-6 -37.5zM553 186q1 14 -3 24.5t-18 15.5
q-13 6 -27 2t-21 -18q-8 -12 -13 -26t-6 -29q-3 -24 15 -35t41 2q20 11 26 27.5t6 36.5zM21 540q1 35 13 65.5t40 54.5q6 5 12 12t12 13q17 18 39 23t45 -2q28 -8 49 -25.5t32.5 -39.5t13 -46.5t-8.5 -48.5q-9 -20 -18.5 -40.5t-22.5 -38.5q-24 -33 -60.5 -44.5t-71.5 2.5
q-76 29 -74 115zM191 575q-2 5 -5.5 13.5t-11.5 10.5q-6 3 -15 1t-16 -7q-33 -24 -33 -66q0 -9 2.5 -16.5t12.5 -12.5q18 -8 35 7q14 12 21.5 29.5t9.5 40.5z" />
    <glyph glyph-name="ampersand" unicode="&#x26;" horiz-adv-x="639" 
d="M415 217q26 37 32 76q2 16 5.5 31t8.5 30q6 17 19.5 28t33.5 12q26 1 43 -12.5t25.5 -33.5t9 -43.5t-6.5 -42.5q-8 -19 -17 -37.5t-19 -38.5q-9 -13 -16 -29q14 -11 27.5 -20t25.5 -19q40 -32 21 -69q-8 -17 -26.5 -25t-43.5 -3q-19 4 -37 9.5t-35 12.5q-17 8 -31 7.5
t-31 -10.5q-54 -29 -111.5 -37.5t-118.5 6.5q-42 10 -72.5 32t-48 51.5t-21.5 65.5t8 75q8 32 25 59.5t40 50.5q11 11 13 20.5t-3 23.5q-16 45 -21.5 91.5t2.5 94.5q8 63 47.5 109t98.5 61q34 9 72 4.5t72.5 -19.5t63 -39t43.5 -54q21 -44 18 -86.5t-33 -80.5
q-17 -21 -38 -39.5t-43 -35.5q-23 -18 -47.5 -35t-50.5 -35q21 -36 51 -60.5t66 -45.5zM241 459q26 18 51 36t50 35q6 5 9.5 11.5t7.5 12.5q14 25 -14 40q-20 9 -45.5 3.5t-37.5 -24.5q-17 -25 -25 -53t4 -61zM291 127q-28 23 -52.5 45t-48.5 45q-2 -2 -5 -7.5t-7 -11.5
q-14 -29 -6 -47.5t40 -23.5q18 -4 37.5 -2t41.5 2z" />
    <glyph glyph-name="quotesingle" unicode="'" horiz-adv-x="170" 
d="M39 592q2 31 4 57l4 52q3 22 16.5 35t33.5 13q19 -1 32.5 -15t12.5 -36q0 -16 -2.5 -46.5t-10.5 -58t-23 -45t-42 -7.5q-22 9 -25 34v17z" />
    <glyph glyph-name="parenleft" unicode="(" horiz-adv-x="455" 
d="M34 378q3 74 23.5 161t65.5 172q25 48 58 88.5t79 71.5q21 15 45 20.5t50 -2.5q22 -8 38 -22t21 -37q6 -25 -2.5 -44t-27.5 -36l-30 -26t-28 -27q-32 -35 -54.5 -73t-38.5 -82q-29 -81 -32.5 -161.5t19.5 -161.5q33 -112 135 -170q3 -2 6.5 -3.5t6.5 -3.5
q31 -20 42.5 -51t-2.5 -60q-7 -15 -19.5 -26t-28 -17t-32.5 -6.5t-34 5.5q-40 14 -74 37.5t-62 54.5q-37 40 -62 81.5t-40 88.5t-20 103t-2 126z" />
    <glyph glyph-name="parenright" unicode=")" horiz-adv-x="455" 
d="M418 393q-3 -74 -23.5 -161t-65.5 -172q-25 -48 -58 -88.5t-79 -71.5q-21 -15 -45 -20.5t-50 2.5q-22 8 -38 22t-21 37q-6 25 2.5 44t27.5 36l30 26t28 27q32 35 54.5 73t38.5 82q29 81 32.5 161.5t-19.5 161.5q-33 112 -135 170q-3 2 -6.5 3.5t-6.5 3.5q-31 20 -42.5 51
t2.5 60q7 15 19.5 26t28 17t32.5 6.5t34 -5.5q40 -14 74 -37.5t62 -54.5q37 -41 62 -82t40 -88.5t20 -103t2 -125.5z" />
    <glyph glyph-name="asterisk" unicode="*" horiz-adv-x="328" 
d="M110 636q-11 7 -20 12t-18 9q-10 5 -14.5 12.5t-1.5 18.5q4 12 13 17t20 3q11 -3 22 -6.5t24 -7.5q1 6 2 11.5t1 10.5q2 14 7.5 22t19.5 10q12 2 19 -5t10 -18l7 -14q11 8 20.5 13.5t20.5 11.5q29 16 43 -3q16 -21 -8 -44q-11 -10 -22 -19.5t-25 -20.5q10 -7 18.5 -13
t16.5 -11q7 -5 12.5 -10t10.5 -11q8 -8 9 -17t-6 -18q-15 -18 -35 -9q-12 6 -25 12t-27 14q-2 -12 -3.5 -22.5t-3.5 -20.5l-4 -16t-7 -15q-5 -11 -13.5 -14t-18.5 0q-11 2 -15.5 9.5t-3.5 18.5q0 10 0.5 19.5t2.5 23.5q-12 -6 -20 -11.5t-16 -9.5q-14 -8 -27 -5.5t-21 13.5
q-12 20 11 42q11 10 21.5 18.5t23.5 19.5z" />
    <glyph glyph-name="plus" unicode="+" horiz-adv-x="317" 
d="M122 263q-17 0 -30 -1t-26 1q-19 2 -28.5 11t-9.5 23q0 29 38 34q7 2 13.5 1.5t14.5 0.5q6 1 13 2t16 2q1 11 1 20t1 18q3 36 31 41q15 2 25.5 -8.5t13.5 -28.5q2 -10 3 -21t3 -22q8 0 15 0.5t14 -0.5q8 0 15.5 -0.5t15.5 -2.5q25 -7 27 -32q1 -12 -5.5 -23t-20.5 -14
q-14 -4 -28.5 -5t-29.5 -3q-1 -9 -1.5 -18t-3.5 -17q-3 -14 -12.5 -21.5t-21.5 -7.5q-25 0 -35 24q-2 5 -3 11t-3 13q0 5 -0.5 10t-1.5 13z" />
    <glyph glyph-name="comma" unicode="," horiz-adv-x="166" 
d="M105 -31q-9 -8 -20.5 -12t-25.5 1q-29 9 -29 38v42.5t1 43.5q0 5 1.5 12t3.5 14q5 17 18 27t30 10q16 1 29 -9t20 -27q5 -17 6 -36t-3 -38.5t-11.5 -36.5t-19.5 -29z" />
    <glyph glyph-name="hyphen" unicode="-" horiz-adv-x="378" 
d="M68 254q-41 5 -39 39q0 33 42 35q16 1 45.5 2t61.5 1.5t61 1t46 0.5q29 0 42.5 -9t15.5 -22t-6 -26.5t-22 -23.5q-13 -9 -45.5 -11t-70.5 0t-74 6t-57 7z" />
    <glyph glyph-name="period" unicode="." horiz-adv-x="187" 
d="M37 64q2 30 21 45t40.5 14.5t39.5 -16t18 -47.5q-5 -28 -25 -42t-41.5 -13.5t-38 15t-14.5 44.5z" />
    <glyph glyph-name="slash" unicode="/" horiz-adv-x="432" 
d="M414 707q-4 -12 -7 -23.5t-10 -21.5q-43 -72 -74 -147.5t-63 -151.5q-33 -78 -64 -155t-63 -154q-5 -11 -10 -21.5t-11 -18.5q-22 -31 -56 -22q-13 5 -20.5 16t-6.5 28q0 7 1.5 15t3.5 16q19 98 59 195q48 111 94 220t92 220q6 12 13.5 21.5t16.5 20.5q14 14 32.5 18.5
t34.5 -1.5q17 -6 26.5 -20t11.5 -34z" />
    <glyph glyph-name="zero" unicode="0" horiz-adv-x="525" 
d="M499 383q-2 -59 -13 -115t-33 -113q-16 -37 -39 -67t-55 -54q-50 -37 -104.5 -37.5t-103.5 37.5q-57 43 -86 101.5t-37 127.5q-11 74 3.5 144t47.5 136q21 43 57.5 75t81 47t91 11.5t86.5 -31.5q35 -24 55.5 -54t31.5 -64t14 -70.5t3 -73.5zM286 512q-26 -12 -42.5 -37
t-26 -57.5t-12 -68.5t1 -71t12 -65t20.5 -49q14 -21 31.5 -22t32.5 18q17 19 28 47q5 13 12.5 41.5t12 64t5.5 73t-5.5 67t-23 47t-46.5 12.5z" />
    <glyph glyph-name="one" unicode="1" horiz-adv-x="322" 
d="M123 468q-13 -4 -23.5 -7.5t-21.5 -5.5q-14 -2 -25.5 3.5t-18.5 18.5q-19 26 -1 52q8 11 17 21.5t18 21.5q22 24 43.5 47.5t42.5 48.5q13 16 31.5 22.5t37 4t34.5 -13.5t25 -31q6 -15 9.5 -32.5t3.5 -34.5q1 -23 -1.5 -47t-4.5 -47q-2 -60 -3 -120t-4 -120q-2 -42 -6 -84
t-7 -84q-2 -8 -4 -15t-4 -15q-13 -29 -38.5 -43.5t-53.5 -9.5q-29 5 -49 28t-19 54q1 43 4.5 84.5t5.5 83.5q5 52 8.5 104t6.5 104q0 3 -1 5.5t-2 6.5z" />
    <glyph glyph-name="two" unicode="2" horiz-adv-x="477" 
d="M296 146q7 -1 19.5 -1.5t25 -1.5t23.5 -2t16 -2q30 -6 47.5 -27.5t14.5 -47.5q-2 -26 -23 -45t-52 -20q-16 -1 -38.5 -1t-46 0.5t-46 1t-38.5 0.5h-24t-25 -1q-22 -1 -40.5 7.5t-30.5 23t-16.5 34t0.5 41.5q6 31 24 53q33 50 67 98.5t68 96.5q11 15 21 30t18 32
q7 12 12 25l10 26q5 17 2.5 32.5t-18.5 26.5q-14 13 -35 13.5t-36 -10.5q-33 -21 -44 -57q-5 -17 -8 -35.5t-5 -35.5q-5 -20 -13.5 -32.5t-25.5 -16.5q-15 -3 -30 4t-26 24q-14 24 -16.5 51t2.5 55q6 53 37 96q38 53 87 79.5t98.5 29.5t94 -15.5t74 -54.5t38.5 -88t-14 -116
q-10 -27 -20.5 -56.5t-24.5 -56.5q-17 -32 -38.5 -62t-41.5 -59q-5 -9 -10 -17t-13 -19z" />
    <glyph glyph-name="three" unicode="3" horiz-adv-x="488" 
d="M196 563q-14 -2 -28 -6.5t-29 -9.5q-9 -2 -18.5 -5t-18.5 -4q-14 -1 -25.5 4.5t-19 14.5t-10 21.5t1.5 26.5q8 29 28 46.5t47 23.5q94 26 186 4q36 -8 59.5 -30.5t33.5 -51.5t8 -60.5t-17 -57.5q-7 -13 -16.5 -26t-20.5 -28q5 -4 10.5 -9t10.5 -10q42 -42 64 -90.5
t17 -108.5q-2 -26 -11 -48t-23 -43q-26 -42 -63 -70.5t-80 -42t-90 -12t-92 20.5q-48 21 -67 63t-2 90q12 29 34.5 42t54.5 5q11 -2 23 -6t23 -8q61 -15 107 27q32 29 10 65q-18 31 -55 39q-14 2 -28 3t-28 3q-54 3 -56 58q0 29 11 53t40 37q19 9 34 20q16 11 27 23t12 21
t-9 14t-35 2z" />
    <glyph glyph-name="four" unicode="4" horiz-adv-x="494" 
d="M218 293q20 2 38.5 5t38.5 5q2 22 2.5 42.5t2.5 41.5q4 23 6.5 45.5t8.5 44.5q11 36 34.5 42.5t65.5 2.5q30 -2 46 -24t9 -50q-15 -83 -13.5 -164.5t1.5 -165.5q0 -13 1 -26t-1 -27q-2 -32 -24 -53t-56 -22q-35 0 -58.5 20.5t-26.5 53.5q-1 17 -0.5 33.5t0.5 33.5
q0 4 -0.5 7.5t-2.5 10.5q-27 -3 -54 -6.5t-53 -5.5q-23 -1 -46 -0.5t-44 5.5q-33 5 -53 26.5t-18 52.5q2 26 7.5 53t11.5 53q20 65 39.5 130.5t39.5 131.5q5 14 8.5 28.5t7.5 29.5q6 25 23.5 38.5t41.5 12.5q23 -1 39.5 -14t22.5 -39q8 -33 4 -65t-9 -65q-8 -49 -18.5 -97.5
t-19.5 -97.5q-1 -5 -1 -12t-1 -15z" />
    <glyph glyph-name="five" unicode="5" horiz-adv-x="498" 
d="M196 462q25 -2 47.5 -3.5t43.5 -6.5q113 -22 160 -117q20 -42 26.5 -84t-3.5 -87q-8 -31 -26 -58.5t-44 -49.5t-58 -36.5t-67 -18.5q-56 -9 -106.5 -0.5t-98.5 37.5q-31 22 -43 54q-7 17 -4.5 33t12 28.5t24.5 20t35 8.5q35 1 66 -15q31 -13 59 -10.5t54 22.5
q24 18 31.5 49t-3.5 60q-25 53 -95 49q-18 -1 -36 -3t-35 -5q-48 -9 -76 14t-23 66q8 59 17.5 116l19.5 117q6 32 33 47.5t62 9.5q23 -4 45.5 -5t45.5 -3q30 -2 59.5 -2.5t58.5 -2.5q35 -3 55.5 -25.5t16.5 -51.5q-2 -14 -9.5 -26.5t-20 -21t-28 -12.5t-31.5 -2
q-28 4 -55 9.5t-54 10.5q-13 2 -21 2.5t-12.5 -2.5t-6.5 -10t-4 -19q-3 -20 -5.5 -38t-5.5 -38z" />
    <glyph glyph-name="six" unicode="6" horiz-adv-x="536" 
d="M260 432q50 -3 96 -11t80.5 -25.5t55.5 -47.5t22 -78q-1 -54 -17.5 -104t-56.5 -95q-30 -35 -71.5 -53.5t-86 -21t-88 11.5t-79.5 45q-40 34 -59 87.5t-20.5 116t12 129t39 127t61.5 109.5t78 78q17 13 39.5 15.5t43.5 -3t38.5 -18.5t25.5 -31t3.5 -39.5t-26.5 -45.5
q-20 -21 -32 -37.5t-21 -32.5t-17 -34t-20 -42zM359 245q-10 40 -61 39q-32 -1 -51 -23q-23 -23 -24.5 -55.5t16.5 -58.5q19 -29 58 -28q22 1 36 16t20.5 35.5t7.5 41.5t-2 33z" />
    <glyph glyph-name="seven" unicode="7" horiz-adv-x="454" 
d="M332 329q14 -4 27 -6t24 -6q17 -6 28 -17t12 -29q0 -35 -35 -49q-11 -5 -22 -7.5t-23 -4.5q-11 -1 -21.5 -0.5t-21.5 0.5q-6 -26 -11 -50.5t-12 -48.5q-4 -17 -7.5 -34t-10.5 -34q-14 -29 -43.5 -40.5t-58.5 -7.5t-49.5 21.5t-15.5 46.5q4 29 8.5 56.5t9.5 56.5
q2 7 3.5 14.5t4.5 15.5q-9 2 -15.5 2t-13.5 1q-9 2 -17 3.5t-16 4.5q-28 9 -27 36q2 26 27 32q20 5 40 9.5t40 9.5q5 1 9.5 1.5t10.5 1.5q19 63 39.5 126t40.5 129q-8 1 -14.5 1.5t-12.5 0.5q-24 1 -46.5 2t-46.5 3q-16 1 -36 8q-17 7 -26 20t-8 30q2 35 34 47q21 10 39 11
q48 8 95.5 13t96.5 3q10 0 21.5 0.5t22.5 1.5q21 0 37.5 -7t27 -19.5t14 -29.5t-1.5 -35q-3 -10 -7.5 -20t-8.5 -20q-21 -57 -41 -112t-40 -112q-2 -5 -2 -10t-1 -9z" />
    <glyph glyph-name="eight" unicode="8" horiz-adv-x="519" 
d="M435 340q8 -18 15.5 -34.5t13.5 -34.5q12 -36 9.5 -77t-22.5 -79.5t-58 -69t-96 -45.5q-45 -11 -87.5 -6.5t-84.5 23.5q-42 21 -63 52.5t-25 73.5q-5 54 17.5 102t60.5 84q-57 45 -77.5 93.5t-13 94.5t38 86t75.5 66.5t99 37t108 -1.5q69 -17 106 -59t46 -94.5t-7.5 -109
t-54.5 -102.5zM293 549q-9 26 -40 29q-18 2 -32.5 -2.5t-21.5 -17.5q-9 -16 -14.5 -32t-4.5 -30.5t9 -27t25 -19.5q13 -5 27 -6t25 7q27 20 34 46.5t-7 52.5zM315 182q-1 7 -1 12.5t-2 12.5q-9 37 -40 40q-19 2 -35.5 -5.5t-23.5 -23.5q-5 -12 -7.5 -26.5t-0.5 -28
t9.5 -23.5t24.5 -14q14 -2 28.5 1t25.5 10t17.5 18t4.5 27z" />
    <glyph glyph-name="nine" unicode="9" horiz-adv-x="526" 
d="M343 285q-43 -11 -81.5 -5t-77.5 16q-37 10 -67 29.5t-50.5 46t-31 58t-8.5 65.5q2 42 23 79t52.5 65.5t69.5 45.5t75 19q62 5 112.5 -12.5t85.5 -65.5q49 -68 55 -142q8 -81 4 -161.5t-33 -160.5q-23 -54 -56.5 -92.5t-75 -58.5t-88 -22t-95.5 18q-46 16 -72 54
q-26 35 -35.5 74t0.5 81q5 24 14 37.5t23.5 20t33.5 7.5t43 -2q20 -2 31 -14t17 -29q2 -9 3 -19t3 -19q2 -8 3.5 -15t4.5 -14q10 -20 31 -24t39 9q4 3 7.5 6.5l7.5 7.5q7 7 13.5 21.5t11 31.5t7 34t1.5 30zM349 423q0 27 -7.5 51t-24.5 46q-5 5 -12 10t-14 5
q-23 8 -43.5 -3.5t-29.5 -34.5q-9 -25 -1 -47t31 -30q25 -7 51 -6.5t50 9.5z" />
    <glyph glyph-name="semicolon" unicode=";" horiz-adv-x="191" 
d="M105 11q-9 -8 -20.5 -12t-25.5 1q-29 9 -29 38v42.5t1 43.5q0 5 1.5 12t3.5 14q5 17 18 27t30 10q16 1 29 -9t20 -27q5 -17 6 -36t-3 -38.5t-11.5 -36.5t-19.5 -29zM37 336q2 30 21 45t40.5 14.5t39.5 -16t18 -47.5q-5 -28 -25 -42t-41.5 -13.5t-38 15t-14.5 44.5z" />
    <glyph glyph-name="less" unicode="&#x3c;" horiz-adv-x="368" 
d="M196 326q20 -11 38 -21.5t36 -20.5q17 -10 31 -20.5t22 -28.5q9 -15 9.5 -30t-6 -26t-20 -17.5t-31.5 -4.5q-11 0 -23.5 4t-22.5 9q-36 21 -72 43t-71 45q-14 7 -27 20q-21 21 -22 46.5t16 48.5q5 6 11 11.5t11 11.5q40 35 80 71.5t81 72.5q14 12 30 22q17 8 34 5.5
t29 -14.5q13 -11 16 -28.5t-7 -35.5q-18 -28 -45 -58q-18 -21 -37 -41t-38 -41q-5 -4 -9.5 -9.5t-12.5 -13.5z" />
    <glyph glyph-name="equal" unicode="=" horiz-adv-x="287" 
d="M73 204q-8 0 -15.5 1t-15.5 3q-23 8 -23 31q1 24 24 32q40 8 75.5 7.5t77.5 -0.5q11 0 28 -5q12 -4 19.5 -12t8.5 -22q1 -13 -8.5 -23t-24.5 -12t-30 -2h-29q-34 0 -53 0.5t-34 1.5zM237 377q28 -8 26 -36q-2 -29 -26 -34q-12 -2 -39 -3t-56.5 0t-55 4t-34.5 8
q-25 8 -22 31q2 11 9.5 17t18.5 8q3 0 6 0.5t7 0.5q49 5 88.5 9.5t77.5 -5.5z" />
    <glyph glyph-name="greater" unicode="&#x3e;" horiz-adv-x="368" 
d="M185 326q-8 8 -12.5 13.5t-9.5 9.5q-19 21 -38 41t-37 41q-27 30 -45 58q-10 18 -7 35.5t16 28.5q12 12 29 14.5t34 -5.5q16 -10 30 -22q41 -36 81 -72.5t80 -71.5q5 -6 11 -11.5t11 -11.5q17 -23 16 -48.5t-22 -46.5q-13 -13 -27 -20q-35 -23 -71 -45t-72 -43
q-10 -5 -22.5 -9t-23.5 -4q-18 -2 -31.5 4.5t-20 17.5t-6 26t9.5 30q8 18 22 28.5t31 20.5q18 10 36 20.5t38 21.5z" />
    <glyph glyph-name="cent" unicode="&#xa2;" horiz-adv-x="477" 
d="M330 96q-2 -22 -4 -41l-4 -38q-5 -27 -27 -33q-19 -5 -31.5 6t-12.5 34q-1 8 0 15.5t1 15.5q0 7 -1 14t-2 15q-93 12 -147.5 65t-65.5 144q-7 51 4.5 91t36 71t61 54.5t79.5 41.5q-1 14 -1.5 26t-0.5 24q0 42 37 47q36 3 48 -36q5 -14 7.5 -28.5t4.5 -30.5q20 -8 40 -15
t40 -16q21 -9 33 -27t15 -38t-4.5 -40t-25.5 -35q-26 -20 -59 -13q-11 3 -22 7t-22 5q-16 0 -31.5 -0.5t-29.5 -5.5q-35 -14 -45 -46t9 -63q19 -37 58 -31q12 1 23 4t24 4q16 2 32.5 4.5t33.5 0.5q43 -6 55 -47q5 -19 0.5 -36.5t-20.5 -30.5q-12 -10 -27 -17l-30 -14
q-7 -3 -14.5 -4t-14.5 -3z" />
    <glyph glyph-name="Euro" unicode="&#x20ac;" horiz-adv-x="654" 
d="M303 425q30 -1 53 0.5t42 1.5q14 0 21 -12.5t7 -23.5q-1 -12 -8.5 -22t-21.5 -12q-31 -5 -59 -5t-56 3q-1 -10 -1.5 -19.5t-1.5 -20.5h41q21 -2 43 -4t43 -4q28 -3 35 -30q2 -13 -3 -23.5t-15 -17.5q-14 -11 -30 -13.5t-33 -1.5q-14 1 -28.5 2.5t-31.5 3.5
q13 -26 29.5 -40t44.5 -14q31 0 60.5 2.5t58.5 13.5q20 9 38.5 8.5t37.5 -7.5q31 -11 43 -37.5t-1 -57.5q-7 -18 -20 -32t-30 -24q-59 -33 -126 -39t-128 15t-110 69t-73 123q-2 4 -4 9t-5 13h-65q-11 0 -19.5 5t-10.5 18q-2 11 4 24t20 17q14 5 28.5 2.5t31.5 0.5
q0 11 -0.5 21.5t-1.5 23.5q-11 0 -20.5 -0.5t-18.5 0.5q-33 0 -35 26q-1 12 6.5 24.5t24.5 15.5q12 2 24 0t23 0l4 16l4 16q28 95 86 160t158 87q54 13 107.5 5.5t104.5 -27.5q26 -10 40.5 -31.5t18 -47t-3.5 -50.5t-23 -42q-20 -20 -43 -23.5t-48 4.5q-29 8 -57.5 13.5
t-59.5 3.5q-31 -3 -52 -19t-38 -47z" />
    <glyph glyph-name="yen" unicode="&#xa5;" horiz-adv-x="509" 
d="M266 500q16 34 30.5 67t29.5 66q7 14 13.5 28.5t14.5 28.5q16 23 42 30t49 -4q24 -13 33.5 -38t0.5 -52q-5 -12 -11 -22t-11 -21q-29 -51 -59 -101.5t-61 -104.5q8 1 14 2t12 0q14 -2 29 -4t28 -7q26 -11 26.5 -34t-23.5 -37q-11 -6 -22.5 -9t-24.5 -5q-11 -2 -22.5 -2.5
t-24.5 -2.5q-2 -16 2.5 -22.5t19.5 -5.5t29.5 -1t29.5 -5q13 -2 22 -9t11 -21t-5.5 -24.5t-18.5 -15.5q-11 -6 -24 -9t-25 -5q-8 -2 -17.5 -1.5t-21.5 0.5v-70q-1 -19 -7 -37t-20 -32q-16 -14 -34.5 -18t-36.5 0.5t-32.5 17.5t-21.5 33q-3 12 -4 24t-2 25q-1 16 -0.5 32.5
t0.5 34.5q-17 1 -30 1.5t-25 1.5q-19 2 -30.5 11t-12.5 23q0 28 36 36q16 3 33.5 5t36.5 5q1 8 2.5 16t3.5 19q-17 4 -32 6t-31 6q-11 2 -21.5 5.5t-20.5 9.5q-9 5 -13 14.5t1 19.5q4 6 11.5 11.5t14.5 7.5q18 3 36 3.5t38 2.5q-4 6 -6 9.5t-5 8.5q-29 47 -58 93.5t-58 94.5
q-10 17 -15 37t2 42q7 23 23.5 38t36.5 20t41 -1t38 -24q11 -14 20 -32t17 -35q14 -31 26 -62t26 -63q2 0 4 0.5t4 0.5z" />
    <glyph glyph-name="multiply" unicode="&#xd7;" horiz-adv-x="294" 
d="M145 260q-9 -10 -16.5 -18t-15.5 -16q-8 -11 -18 -21q-10 -8 -20.5 -9.5t-21.5 6.5q-23 14 -13 39q5 11 10 21l10 20l10 16t11 18q-8 9 -15 17.5t-13 17.5q-10 14 -10 24t8 21q8 8 20 10.5t25 -4.5q4 -2 8 -3.5t7 -4.5q3 -2 7.5 -5.5t12.5 -8.5q4 6 7 12t8 10l15.5 15.5
t15.5 12.5q14 10 28 9t23 -11q11 -9 12.5 -22.5t-6.5 -28.5q-8 -12 -16 -23t-18 -24q8 -6 16 -11t15 -12l19 -19t15 -21q5 -11 4.5 -21.5t-6 -18.5t-14.5 -13t-21 -4q-11 1 -22 5.5t-19 10.5q-11 6 -20 14.5t-22 19.5z" />
    <glyph glyph-name="divide" unicode="&#xf7;" horiz-adv-x="320" 
d="M109 270q-10 0 -24.5 1.5t-28 5.5t-22.5 12t-8 22q0 11 8 21t22 12q45 5 90.5 9.5t90.5 6.5q25 0 37 -10.5t13 -27.5q0 -16 -12 -27.5t-35 -14.5q-32 -4 -63.5 -6t-67.5 -4zM188 216q0 -13 -9 -21.5t-22 -8.5q-13 1 -21.5 10t-8.5 22q2 13 12 21.5t22 7.5q13 -2 20.5 -10
t6.5 -21zM158 441q11 -1 19.5 -9t8.5 -21q0 -12 -9 -21t-23 -8q-11 1 -19 10t-7 20q0 13 9.5 21.5t20.5 7.5z" />
    <glyph glyph-name="quotedblright" unicode="&#x201d;" horiz-adv-x="298" 
d="M39 592q2 31 4 57l4 52q3 22 16.5 35t33.5 13q19 -1 32.5 -15t12.5 -36q0 -16 -2.5 -46.5t-10.5 -58t-23 -45t-42 -7.5q-22 9 -25 34v17zM163 592q2 31 4 57l4 52q3 22 16.5 35t33.5 13q19 -1 32.5 -15t12.5 -36q0 -16 -2.5 -46.5t-10.5 -58t-23 -45t-42 -7.5
q-22 9 -25 34v17z" />
    <glyph glyph-name="quotedblleft" unicode="&#x201c;" horiz-adv-x="298" 
d="M267 672q-2 -31 -4 -57l-4 -52q-3 -22 -16.5 -35t-33.5 -13q-19 1 -32.5 15t-12.5 36q0 16 2.5 46.5t10.5 58t23 45t42 7.5q22 -9 25 -34v-17zM143 672q-2 -31 -4 -57l-4 -52q-3 -22 -16.5 -35t-33.5 -13q-19 1 -32.5 15t-12.5 36q0 16 2.5 46.5t10.5 58t23 45t42 7.5
q22 -9 25 -34v-17z" />
    <glyph glyph-name="quoteright" unicode="&#x2019;" horiz-adv-x="170" 
d="M39 592q2 31 4 57l4 52q3 22 16.5 35t33.5 13q19 -1 32.5 -15t12.5 -36q0 -16 -2.5 -46.5t-10.5 -58t-23 -45t-42 -7.5q-22 9 -25 34v17z" />
    <glyph glyph-name="quoteleft" unicode="&#x2018;" horiz-adv-x="170" 
d="M143 672q-2 -31 -4 -57l-4 -52q-3 -22 -16.5 -35t-33.5 -13q-19 1 -32.5 15t-12.5 36q0 16 2.5 46.5t10.5 58t23 45t42 7.5q22 -9 25 -34v-17z" />
    <glyph glyph-name="trademark" unicode="&#x2122;" horiz-adv-x="563" 
d="M170 686q0 -5 -0.5 -9t-0.5 -9v-46v-32.5t0.5 -24t1.5 -21.5q0 -8 -2 -11q-4 -9 -13.5 -13t-20 -3.5t-19 5.5t-9.5 14q-1 2 -0.5 4.5t0.5 4.5q0 35 0.5 64t1.5 64v13q-8 0 -15.5 0.5t-13.5 1.5q-8 2 -15 3.5t-13 3.5q-4 2 -8 4.5t-7 4.5q-8 8 -3 17.5t18 9.5q6 1 12 0.5
t13 1.5q26 2 50.5 3.5t50.5 3.5q10 2 18.5 2h17.5q14 0 24.5 -7t12.5 -17q2 -13 -7 -22.5t-26 -10.5h-12t-11 1h-25zM456 646q-3 -2 -5.5 -5.5t-5.5 -6.5q-12 -15 -26 -29q-8 -10 -20.5 -9t-20.5 9q-7 8 -13.5 15.5t-13.5 15.5q-3 5 -5 7q-2 -6 -2 -8q-1 -17 -1 -38.5
t-2 -38.5q0 -10 -3 -19q-7 -22 -34 -21q-10 0 -18 4q-23 7 -19 28q6 32 8 69t4 70q0 14 3 31q2 17 22 22q10 2 19 -0.5t15 -10.5q8 -10 15.5 -20.5t15.5 -21.5t15 -22.5t15 -22.5q7 9 12.5 17.5t11.5 16.5q10 14 19.5 27t19.5 26q8 12 24 13q19 1 29 -13q5 -10 5 -17
q2 -17 3 -34l2 -34q1 -23 1 -50t1 -50v-8t-2 -7q-4 -9 -15 -12.5t-23 -2t-21.5 7t-9.5 14.5q0 12 1 27.5t2 27.5v47q0 4 -1 6h-2z" />
    <glyph glyph-name="colon" unicode=":" horiz-adv-x="191" 
d="M37 336q2 30 21 45t40.5 14.5t39.5 -16t18 -47.5q-5 -28 -25 -42t-41.5 -13.5t-38 15t-14.5 44.5zM37 91q2 30 21 45t40.5 14.5t39.5 -16t18 -47.5q-5 -28 -25 -42t-41.5 -13.5t-38 15t-14.5 44.5z" />
    <glyph glyph-name="plusminus" unicode="&#xb1;" horiz-adv-x="317" 
d="M122 263q-17 0 -30 -1t-26 1q-19 2 -28.5 11t-9.5 23q0 29 38 34q7 2 13.5 1.5t14.5 0.5q6 1 13 2t16 2q1 11 1 20t1 18q3 36 31 41q15 2 25.5 -8.5t13.5 -28.5q2 -10 3 -21t3 -22q8 0 15 0.5t14 -0.5q8 0 15.5 -0.5t15.5 -2.5q25 -7 27 -32q1 -12 -5.5 -23t-20.5 -14
q-14 -4 -28.5 -5t-29.5 -3q-1 -9 -1.5 -18t-3.5 -17q-3 -14 -12.5 -21.5t-21.5 -7.5q-25 0 -35 24q-2 5 -3 11t-3 13q0 5 -0.5 10t-1.5 13zM60 73q-24 1 -35 11.5t-10.5 23.5t11.5 24t32 13q19 1 46.5 3t55 2.5t52.5 0t40 -3.5q23 -3 36 -12.5t11 -23.5q0 -13 -12.5 -22.5
t-34.5 -13.5q-45 -5 -95.5 -4.5t-96.5 2.5z" />
    <glyph glyph-name="sterling" unicode="&#xa3;" horiz-adv-x="484" 
d="M307 230q-6 -23 -11 -45t-11 -46q20 -2 39.5 -2.5t39.5 -2.5q8 -1 15.5 0t15.5 -1q29 -5 45.5 -22t16.5 -40q0 -26 -17.5 -45t-46.5 -22q-52 -4 -105 -3q-46 0 -90.5 3.5t-91.5 -3.5q-24 -5 -44.5 8t-28.5 36q-9 21 -3.5 43t22.5 39q8 7 16 11.5t18 9.5q24 14 38.5 35.5
t16.5 52.5q-10 2 -18.5 2t-16.5 2q-11 1 -20.5 2t-18.5 6q-26 10 -24 36q2 28 28 33q16 4 31.5 5.5t32.5 3.5q4 17 -0.5 33.5t-8.5 33.5q-22 71 -13 138q6 36 20 67.5t38 54.5t58.5 35.5t80.5 9.5q32 -2 60 -17.5t47 -39.5t27 -54.5t2 -62.5q-3 -25 -21 -49
q-16 -21 -36.5 -19.5t-37.5 24.5q-7 10 -13.5 21t-14.5 20q-8 10 -19 16t-25 1q-14 -6 -17.5 -17t-2.5 -23q1 -26 8 -57q7 -27 14 -53.5t15 -55.5q12 0 24.5 0.5t25.5 -0.5q14 -2 27 -3.5t27 -6.5q17 -7 25.5 -21t6.5 -31q-3 -17 -14.5 -29t-30.5 -14q-10 -2 -20.5 -1.5
t-21.5 1.5q-16 0 -38 3z" />
    <glyph glyph-name="at" unicode="@" horiz-adv-x="681" 
d="M441 247q-23 -10 -42.5 -21t-40.5 -16q-30 -7 -57.5 1t-47.5 27t-30.5 45.5t-5.5 56.5q13 100 99 158q40 26 82.5 25t80.5 -30q8 -6 13.5 -16.5t7.5 -21.5q1 -11 0 -22.5t-3 -22.5t-1.5 -32t5 -36t13.5 -17.5t23 24.5q19 33 19.5 68.5t-12 67t-37 57t-55 40t-65.5 15.5
t-69 -16q-81 -42 -116.5 -111t-34.5 -157q1 -46 18.5 -84.5t47.5 -64.5t69.5 -38t84.5 -4q18 4 36 11.5t35 14.5q11 5 21 10t21 7q49 14 66 -33q2 -6 3.5 -12.5t3.5 -11.5q7 -20 1 -35t-22 -26q-73 -50 -150.5 -65t-163.5 17q-52 20 -88.5 55.5t-65.5 80.5q-36 67 -46 142.5
t4 148t52 136.5t97 109q57 43 123.5 61.5t129.5 7t115 -54.5t80 -123q8 -30 12 -66.5t1 -74.5t-13 -73.5t-28.5 -62.5t-46.5 -42.5t-66 -12.5q-16 2 -30 7.5t-27 9.5zM317 326q-2 -17 8 -24.5t27 -2.5q13 5 22.5 14t12.5 23q9 51 1 68t-22 10.5t-29 -31.5t-20 -57z" />
    <glyph glyph-name="asciicircum" unicode="^" horiz-adv-x="345" 
d="M171 571q-15 -28 -30 -53.5t-34 -46.5q-10 -11 -22.5 -13t-23.5 5q-13 8 -16 18.5t-1 24.5l6 19l82 182q4 13 15 27q17 19 41.5 19t40.5 -20q8 -8 12.5 -17t8.5 -19q14 -35 28 -71t26 -72q5 -14 7.5 -29t2.5 -30q1 -15 -7.5 -27t-23.5 -18q-31 -11 -51 12q-21 26 -32 53
t-21 55q-2 0 -4 0.5t-4 0.5z" />
  </font>
</defs>
</svg>
